SplineFontDB: 3.0
FontName: RisingSun-BoldItalic
FullName: Rising Sun Bold Italic
FamilyName: Rising Sun
Weight: Bold
Copyright: Copyright (c) 2010 - 2013, Matt McInerney (matt@pixelspread.com), Pablo Impallari (impallari@gmail.com), Rodrigo Fuenzalida (hello@rfuenzalida.com) with Reserved Font Name RALEWAY.\nCopyright (c) 2016, Cristiano Sobral (cssobral2013@gmail.com), with Reserved Font Name RISING SUN.
Version: 1.000
ItalicAngle: -12
UnderlinePosition: -100
UnderlineWidth: 50
Ascent: 800
Descent: 200
InvalidEm: 0
sfntRevision: 0x00010000
LayerCount: 2
Layer: 0 1 "Back" 1
Layer: 1 1 "Fore" 0
XUID: [1021 368 144034212 26167]
StyleMap: 0x0021
FSType: 4
OS2Version: 3
OS2_WeightWidthSlopeOnly: 0
OS2_UseTypoMetrics: 0
CreationTime: 1372299720
ModificationTime: 1466168012
PfmFamily: 17
TTFWeight: 700
TTFWidth: 5
LineGap: 0
VLineGap: 0
Panose: 2 11 8 3 3 1 1 6 0 3
OS2TypoAscent: 800
OS2TypoAOffset: 0
OS2TypoDescent: -200
OS2TypoDOffset: 0
OS2TypoLinegap: 0
OS2WinAscent: 930
OS2WinAOffset: 0
OS2WinDescent: 249
OS2WinDOffset: 0
HheadAscent: 930
HheadAOffset: 0
HheadDescent: -249
HheadDOffset: 0
OS2SubXSize: 700
OS2SubYSize: 650
OS2SubXOff: 0
OS2SubYOff: 140
OS2SupXSize: 700
OS2SupYSize: 650
OS2SupXOff: 0
OS2SupYOff: 477
OS2StrikeYSize: 50
OS2StrikeYPos: 250
OS2CapHeight: 710
OS2XHeight: 524
OS2Vendor: 'pyrs'
OS2CodePages: 20000093.00000000
OS2UnicodeRanges: a00000ff.5000205b.00000000.00000000
Lookup: 1 0 0 "'aalt' Access All Alternates in Latin lookup 0" { "'aalt' Access All Alternates in Latin lookup 0 subtable"  } ['aalt' ('latn' <'dflt' > ) ]
Lookup: 3 0 0 "'aalt' Access All Alternates in Latin lookup 1" { "'aalt' Access All Alternates in Latin lookup 1 subtable"  } ['aalt' ('latn' <'dflt' > ) ]
Lookup: 1 0 0 "'smcp' Lowercase to Small Capitals in Latin lookup 2" { "'smcp' Lowercase to Small Capitals in Latin lookup 2 subtable"  } ['smcp' ('latn' <'dflt' > ) ]

StartChar: exclam
Encoding: 33 33 5
Width: 290
GlyphClass: 2
Flags: W
LayerCount: 2
Fore
SplineSet
71 267 m 1,0,-1
 166 717 l 1,1,-1
 300 717 l 1,2,-1
 205 267 l 1,3,-1
 71 267 l 1,0,-1
14 0 m 1,4,-1
 46 151 l 1,5,-1
 180 151 l 1,6,-1
 148 0 l 1,7,-1
 14 0 l 1,4,-1
EndSplineSet
EndChar

StartChar: quotedbl
Encoding: 34 34 6
Width: 387
GlyphClass: 2
Flags: W
LayerCount: 2
Fore
SplineSet
100 499 m 1,0,-1
 147 723 l 1,1,-1
 261 723 l 1,2,-1
 214 499 l 1,3,-1
 100 499 l 1,0,-1
255 499 m 1,4,-1
 303 723 l 1,5,-1
 417 723 l 1,6,-1
 369 499 l 1,7,-1
 255 499 l 1,4,-1
EndSplineSet
EndChar

StartChar: numbersign
Encoding: 35 35 7
Width: 692
GlyphClass: 2
Flags: W
LayerCount: 2
Fore
SplineSet
682 424 m 1,0,-1
 543 424 l 1,1,-1
 484 287 l 1,2,-1
 608 287 l 1,3,-1
 587 187 l 1,4,-1
 439 187 l 1,5,-1
 356 0 l 1,6,-1
 249 0 l 1,7,-1
 332 187 l 1,8,-1
 226 187 l 1,9,-1
 143 0 l 1,10,-1
 35 0 l 1,11,-1
 118 187 l 1,12,-1
 12 187 l 1,13,-1
 33 287 l 1,14,-1
 164 287 l 1,15,-1
 222 424 l 1,16,-1
 107 424 l 1,17,-1
 128 518 l 1,18,-1
 266 518 l 1,19,-1
 351 710 l 1,20,-1
 458 710 l 1,21,-1
 373 518 l 1,22,-1
 479 518 l 1,23,-1
 564 710 l 1,24,-1
 672 710 l 1,25,-1
 586 518 l 1,26,-1
 703 518 l 1,27,-1
 682 424 l 1,0,-1
377 287 m 1,28,-1
 436 424 l 1,29,-1
 330 424 l 1,30,-1
 272 287 l 1,31,-1
 377 287 l 1,28,-1
EndSplineSet
EndChar

StartChar: dollar
Encoding: 36 36 8
Width: 611
GlyphClass: 2
Flags: W
LayerCount: 2
Fore
SplineSet
533 524 m 1,0,1
 530 531 530 531 517 541 c 128,-1,2
 504 551 504 551 485 561.5 c 128,-1,3
 466 572 466 572 441.5 580.5 c 128,-1,4
 417 589 417 589 390 592 c 1,5,-1
 353 420 l 1,6,7
 385 411 385 411 420.5 399 c 128,-1,8
 456 387 456 387 485.5 367.5 c 128,-1,9
 515 348 515 348 534.5 318.5 c 128,-1,10
 554 289 554 289 554 244 c 0,11,12
 554 179 554 179 530 133 c 128,-1,13
 506 87 506 87 467 56.5 c 128,-1,14
 428 26 428 26 377 10.5 c 128,-1,15
 326 -5 326 -5 272 -7 c 1,16,-1
 249 -117 l 1,17,-1
 190 -117 l 1,18,-1
 213 -6 l 1,19,20
 147 -1 147 -1 89 22.5 c 128,-1,21
 31 46 31 46 -12 84 c 1,22,-1
 74 203 l 1,23,24
 78 195 78 195 93.5 182 c 128,-1,25
 109 169 109 169 132.5 156.5 c 128,-1,26
 156 144 156 144 186 133 c 128,-1,27
 216 122 216 122 249 118 c 1,28,-1
 285 289 l 1,29,-1
 250 300 l 2,30,31
 212 312 212 312 183.5 326 c 128,-1,32
 155 340 155 340 135.5 358 c 128,-1,33
 116 376 116 376 106 399 c 128,-1,34
 96 422 96 422 96 453 c 0,35,36
 96 511 96 511 118 557 c 128,-1,37
 140 603 140 603 177 636.5 c 128,-1,38
 214 670 214 670 263 689.5 c 128,-1,39
 312 709 312 709 366 714 c 1,40,-1
 388 815 l 1,41,-1
 447 815 l 1,42,-1
 425 714 l 1,43,44
 487 709 487 709 535.5 686.5 c 128,-1,45
 584 664 584 664 617 636 c 1,46,-1
 533 524 l 1,0,1
400 202 m 0,47,48
 400 229 400 229 379 245.5 c 128,-1,49
 358 262 358 262 323 276 c 1,50,-1
 289 116 l 1,51,52
 345 118 345 118 372.5 141 c 128,-1,53
 400 164 400 164 400 202 c 0,47,48
247 499 m 0,54,55
 247 474 247 474 264.5 459 c 128,-1,56
 282 444 282 444 316 432 c 1,57,-1
 350 593 l 1,58,59
 299 589 299 589 273 563.5 c 128,-1,60
 247 538 247 538 247 499 c 0,54,55
EndSplineSet
EndChar

StartChar: percent
Encoding: 37 37 9
Width: 760
GlyphClass: 2
Flags: W
LayerCount: 2
Fore
SplineSet
219 417 m 0,0,1
 190 417 190 417 166 426.5 c 128,-1,2
 142 436 142 436 125 453 c 128,-1,3
 108 470 108 470 98.5 493 c 128,-1,4
 89 516 89 516 89 543 c 0,5,6
 89 579 89 579 105.5 611 c 128,-1,7
 122 643 122 643 149 667.5 c 128,-1,8
 176 692 176 692 211 706 c 128,-1,9
 246 720 246 720 283 720 c 0,10,11
 312 720 312 720 335.5 710.5 c 128,-1,12
 359 701 359 701 376 684 c 128,-1,13
 393 667 393 667 402.5 644 c 128,-1,14
 412 621 412 621 412 594 c 0,15,16
 412 558 412 558 396 526 c 128,-1,17
 380 494 380 494 353 469.5 c 128,-1,18
 326 445 326 445 291 431 c 128,-1,19
 256 417 256 417 219 417 c 0,0,1
233 484 m 0,20,21
 248 484 248 484 263.5 492.5 c 128,-1,22
 279 501 279 501 291 515.5 c 128,-1,23
 303 530 303 530 310.5 548.5 c 128,-1,24
 318 567 318 567 318 587 c 0,25,26
 318 615 318 615 304.5 634 c 128,-1,27
 291 653 291 653 269 653 c 0,28,29
 254 653 254 653 238.5 644.5 c 128,-1,30
 223 636 223 636 211 621.5 c 128,-1,31
 199 607 199 607 191.5 588.5 c 128,-1,32
 184 570 184 570 184 550 c 0,33,34
 184 522 184 522 197 503 c 128,-1,35
 210 484 210 484 233 484 c 0,20,21
500 -10 m 0,36,37
 471 -10 471 -10 447.5 -0.5 c 128,-1,38
 424 9 424 9 407 26 c 128,-1,39
 390 43 390 43 380.5 66 c 128,-1,40
 371 89 371 89 371 116 c 0,41,42
 371 152 371 152 387 184 c 128,-1,43
 403 216 403 216 430 240.5 c 128,-1,44
 457 265 457 265 492 279 c 128,-1,45
 527 293 527 293 564 293 c 0,46,47
 593 293 593 293 617 283.5 c 128,-1,48
 641 274 641 274 658 257 c 128,-1,49
 675 240 675 240 684 217 c 128,-1,50
 693 194 693 194 693 167 c 0,51,52
 693 131 693 131 677 99 c 128,-1,53
 661 67 661 67 634 42.5 c 128,-1,54
 607 18 607 18 572 4 c 128,-1,55
 537 -10 537 -10 500 -10 c 0,36,37
514 57 m 0,56,57
 530 57 530 57 545 65.5 c 128,-1,58
 560 74 560 74 572 88 c 128,-1,59
 584 102 584 102 591.5 121 c 128,-1,60
 599 140 599 140 599 160 c 0,61,62
 599 188 599 188 585.5 207 c 128,-1,63
 572 226 572 226 550 226 c 0,64,65
 535 226 535 226 519.5 217.5 c 128,-1,66
 504 209 504 209 491.5 194.5 c 128,-1,67
 479 180 479 180 471.5 161.5 c 128,-1,68
 464 143 464 143 464 123 c 0,69,70
 464 95 464 95 478 76 c 128,-1,71
 492 57 492 57 514 57 c 0,56,57
39 47 m 1,72,-1
 376 376 l 1,73,-1
 695 718 l 1,74,-1
 744 664 l 1,75,-1
 415 340 l 1,76,-1
 88 -7 l 1,77,-1
 39 47 l 1,72,-1
EndSplineSet
EndChar

StartChar: ampersand
Encoding: 38 38 10
Width: 697
GlyphClass: 2
Flags: W
LayerCount: 2
Fore
SplineSet
399 67 m 1,0,1
 351 29 351 29 299 9.5 c 128,-1,2
 247 -10 247 -10 196 -10 c 0,3,4
 152 -10 152 -10 118.5 4 c 128,-1,5
 85 18 85 18 62 41.5 c 128,-1,6
 39 65 39 65 27 96.5 c 128,-1,7
 15 128 15 128 15 164 c 0,8,9
 15 204 15 204 28.5 236.5 c 128,-1,10
 42 269 42 269 65 296 c 128,-1,11
 88 323 88 323 118 345.5 c 128,-1,12
 148 368 148 368 182 389 c 1,13,14
 156 429 156 429 145 459.5 c 128,-1,15
 134 490 134 490 134 522 c 0,16,17
 134 564 134 564 152 600.5 c 128,-1,18
 170 637 170 637 201 663 c 128,-1,19
 232 689 232 689 272 704 c 128,-1,20
 312 719 312 719 356 719 c 0,21,22
 416 719 416 719 463 687 c 128,-1,23
 510 655 510 655 528 592 c 1,24,-1
 435 540 l 1,25,26
 424 578 424 578 398.5 599 c 128,-1,27
 373 620 373 620 344 620 c 0,28,29
 327 620 327 620 312 614 c 128,-1,30
 297 608 297 608 285 598 c 128,-1,31
 273 588 273 588 266 574 c 128,-1,32
 259 560 259 560 259 544 c 0,33,34
 259 524 259 524 273 499 c 128,-1,35
 287 474 287 474 321 425 c 2,36,-1
 438 255 l 1,37,38
 456 290 456 290 469.5 330 c 128,-1,39
 483 370 483 370 491 416 c 1,40,-1
 671 416 l 1,41,-1
 656 320 l 1,42,-1
 575 320 l 1,43,44
 560 277 560 277 540 239.5 c 128,-1,45
 520 202 520 202 497 170 c 1,46,-1
 616 0 l 1,47,-1
 445 0 l 1,48,-1
 399 67 l 1,0,1
231 93 m 0,49,50
 290 93 290 93 349 141 c 1,51,-1
 239 303 l 1,52,53
 191 274 191 274 168 245.5 c 128,-1,54
 145 217 145 217 145 179 c 0,55,56
 145 137 145 137 170 115 c 128,-1,57
 195 93 195 93 231 93 c 0,49,50
EndSplineSet
EndChar

StartChar: quotesingle
Encoding: 39 39 11
Width: 232
GlyphClass: 2
Flags: W
LayerCount: 2
Fore
SplineSet
100 499 m 1,0,-1
 147 723 l 1,1,-1
 261 723 l 1,2,-1
 214 499 l 1,3,-1
 100 499 l 1,0,-1
EndSplineSet
EndChar

StartChar: parenleft
Encoding: 40 40 12
Width: 304
GlyphClass: 2
Flags: W
LayerCount: 2
Fore
SplineSet
35 263 m 0,0,1
 35 329 35 329 53.5 390 c 128,-1,2
 72 451 72 451 104.5 511.5 c 128,-1,3
 137 572 137 572 180.5 632.5 c 128,-1,4
 224 693 224 693 274 757 c 1,5,-1
 367 714 l 1,6,7
 328 663 328 663 290.5 607.5 c 128,-1,8
 253 552 253 552 224.5 495 c 128,-1,9
 196 438 196 438 178.5 381 c 128,-1,10
 161 324 161 324 161 271 c 0,11,12
 161 209 161 209 175 136.5 c 128,-1,13
 189 64 189 64 212 -4 c 1,14,-1
 103 -53 l 1,15,16
 88 -18 88 -18 75.5 21 c 128,-1,17
 63 60 63 60 54 101 c 128,-1,18
 45 142 45 142 40 183 c 128,-1,19
 35 224 35 224 35 263 c 0,0,1
EndSplineSet
EndChar

StartChar: parenright
Encoding: 41 41 13
Width: 304
GlyphClass: 2
Flags: W
LayerCount: 2
Fore
SplineSet
289 431 m 0,0,1
 289 365 289 365 269.5 302 c 128,-1,2
 250 239 250 239 217 179 c 128,-1,3
 184 119 184 119 141 61 c 128,-1,4
 98 3 98 3 50 -53 c 1,5,-1
 -37 -4 l 1,6,7
 6 52 6 52 42.5 105 c 128,-1,8
 79 158 79 158 106 210 c 128,-1,9
 133 262 133 262 148 315 c 128,-1,10
 163 368 163 368 163 424 c 0,11,12
 163 466 163 466 157.5 509.5 c 128,-1,13
 152 553 152 553 144.5 592.5 c 128,-1,14
 137 632 137 632 128 664 c 128,-1,15
 119 696 119 696 112 714 c 1,16,-1
 224 757 l 1,17,18
 252 678 252 678 270.5 593.5 c 128,-1,19
 289 509 289 509 289 431 c 0,0,1
EndSplineSet
EndChar

StartChar: asterisk
Encoding: 42 42 14
Width: 337
GlyphClass: 2
Flags: W
LayerCount: 2
Fore
SplineSet
120 520 m 1,0,-1
 179 591 l 1,1,-1
 117 613 l 1,2,-1
 147 671 l 1,3,-1
 209 640 l 1,4,-1
 221 717 l 1,5,-1
 292 717 l 1,6,-1
 271 640 l 1,7,-1
 346 671 l 1,8,-1
 351 613 l 1,9,-1
 280 591 l 1,10,-1
 310 520 l 1,11,-1
 251 486 l 1,12,-1
 224 561 l 1,13,-1
 164 486 l 1,14,-1
 120 520 l 1,0,-1
EndSplineSet
EndChar

StartChar: plus
Encoding: 43 43 15
Width: 427
GlyphClass: 2
Flags: W
LayerCount: 2
Fore
SplineSet
386 409 m 1,0,-1
 386 301 l 1,1,-1
 283 301 l 1,2,-1
 283 188 l 1,3,-1
 163 188 l 1,4,-1
 163 301 l 1,5,-1
 59 301 l 1,6,-1
 59 409 l 1,7,-1
 163 409 l 1,8,-1
 163 522 l 1,9,-1
 283 522 l 1,10,-1
 283 409 l 1,11,-1
 386 409 l 1,0,-1
EndSplineSet
EndChar

StartChar: comma
Encoding: 44 44 16
Width: 230
GlyphClass: 2
Flags: W
LayerCount: 2
Fore
SplineSet
-16 -115 m 1,0,-1
 37 4 l 1,1,-1
 -5 4 l 1,2,-1
 25 144 l 1,3,-1
 140 144 l 1,4,-1
 110 4 l 1,5,-1
 45 -115 l 1,6,-1
 -16 -115 l 1,0,-1
EndSplineSet
EndChar

StartChar: hyphen
Encoding: 45 45 17
Width: 402
GlyphClass: 2
Flags: W
LayerCount: 2
Fore
SplineSet
38 214 m 1,0,-1
 64 335 l 1,1,-1
 353 335 l 1,2,-1
 327 214 l 1,3,-1
 38 214 l 1,0,-1
EndSplineSet
EndChar

StartChar: period
Encoding: 46 46 18
Width: 224
GlyphClass: 2
Flags: W
LayerCount: 2
Fore
SplineSet
-6 0 m 1,0,-1
 25 144 l 1,1,-1
 135 144 l 1,2,-1
 104 0 l 1,3,-1
 -6 0 l 1,0,-1
EndSplineSet
EndChar

StartChar: slash
Encoding: 47 47 19
Width: 692
GlyphClass: 2
Flags: W
LayerCount: 2
Fore
SplineSet
745 710 m 1,0,-1
 121 0 l 1,1,-1
 -27 0 l 1,2,-1
 597 710 l 1,3,-1
 745 710 l 1,0,-1
EndSplineSet
EndChar

StartChar: zero
Encoding: 48 48 20
Width: 676
GlyphClass: 2
Flags: W
LayerCount: 2
Fore
SplineSet
272 -10 m 0,0,1
 212 -10 212 -10 169 16 c 128,-1,2
 126 42 126 42 98 83 c 128,-1,3
 70 124 70 124 57 175.5 c 128,-1,4
 44 227 44 227 44 278 c 0,5,6
 44 352 44 352 74 428.5 c 128,-1,7
 104 505 104 505 156 567.5 c 128,-1,8
 208 630 208 630 277 670 c 128,-1,9
 346 710 346 710 424 710 c 0,10,11
 484 710 484 710 527.5 683.5 c 128,-1,12
 571 657 571 657 598.5 615.5 c 128,-1,13
 626 574 626 574 639 522 c 128,-1,14
 652 470 652 470 652 419 c 0,15,16
 652 345 652 345 622 269 c 128,-1,17
 592 193 592 193 540.5 131 c 128,-1,18
 489 69 489 69 419.5 29.5 c 128,-1,19
 350 -10 350 -10 272 -10 c 0,0,1
297 112 m 0,20,21
 346 112 346 112 386 142.5 c 128,-1,22
 426 173 426 173 454 218 c 128,-1,23
 482 263 482 263 497 315.5 c 128,-1,24
 512 368 512 368 512 412 c 0,25,26
 512 445 512 445 505.5 476.5 c 128,-1,27
 499 508 499 508 485 533 c 128,-1,28
 471 558 471 558 450 573 c 128,-1,29
 429 588 429 588 399 588 c 0,30,31
 348 588 348 588 308.5 555.5 c 128,-1,32
 269 523 269 523 241 475 c 128,-1,33
 213 427 213 427 198.5 372.5 c 128,-1,34
 184 318 184 318 184 273 c 0,35,36
 184 241 184 241 190.5 212 c 128,-1,37
 197 183 197 183 210.5 160.5 c 128,-1,38
 224 138 224 138 245.5 125 c 128,-1,39
 267 112 267 112 297 112 c 0,20,21
EndSplineSet
Substitution2: "'lnum' Lining Figures in Latin lookup 3 subtable" zero.lnum
Substitution2: "'aalt' Access All Alternates in Latin lookup 0 subtable" zero.lnum
EndChar

StartChar: one
Encoding: 49 49 21
Width: 474
GlyphClass: 2
Flags: W
LayerCount: 2
Fore
SplineSet
26 121 m 1,0,-1
 158 121 l 1,1,-1
 256 583 l 1,2,3
 246 571 246 571 225 556.5 c 128,-1,4
 204 542 204 542 179 528.5 c 128,-1,5
 154 515 154 515 128.5 506 c 128,-1,6
 103 497 103 497 84 497 c 1,7,-1
 110 621 l 1,8,9
 135 621 135 621 165.5 635.5 c 128,-1,10
 196 650 196 650 222 667.5 c 128,-1,11
 248 685 248 685 265.5 700 c 128,-1,12
 283 715 283 715 284 717 c 2,13,-1
 421 717 l 1,14,-1
 295 121 l 1,15,-1
 415 121 l 1,16,-1
 390 0 l 1,17,-1
 0 0 l 1,18,-1
 26 121 l 1,0,-1
EndSplineSet
Substitution2: "'lnum' Lining Figures in Latin lookup 3 subtable" one.lnum
Substitution2: "'aalt' Access All Alternates in Latin lookup 0 subtable" one.lnum
EndChar

StartChar: two
Encoding: 50 50 22
Width: 587
GlyphClass: 2
Flags: W
LayerCount: 2
Fore
SplineSet
-21 0 m 1,0,1
 -6 69 -6 69 13 120.5 c 128,-1,2
 32 172 32 172 60.5 211 c 128,-1,3
 89 250 89 250 128 279 c 128,-1,4
 167 308 167 308 222 333 c 0,5,6
 260 351 260 351 297 367 c 128,-1,7
 334 383 334 383 363.5 404 c 128,-1,8
 393 425 393 425 411 453 c 128,-1,9
 429 481 429 481 429 522 c 0,10,11
 429 557 429 557 409.5 577.5 c 128,-1,12
 390 598 390 598 352 598 c 0,13,14
 326 598 326 598 301 590 c 128,-1,15
 276 582 276 582 253 569.5 c 128,-1,16
 230 557 230 557 209.5 542 c 128,-1,17
 189 527 189 527 174 513 c 1,18,-1
 109 601 l 1,19,20
 126 617 126 617 154 637.5 c 128,-1,21
 182 658 182 658 219 676 c 128,-1,22
 256 694 256 694 300.5 706.5 c 128,-1,23
 345 719 345 719 395 719 c 0,24,25
 489 719 489 719 536.5 671.5 c 128,-1,26
 584 624 584 624 584 548 c 0,27,28
 584 492 584 492 568.5 452 c 128,-1,29
 553 412 553 412 524.5 381 c 128,-1,30
 496 350 496 350 456.5 326 c 128,-1,31
 417 302 417 302 370 280 c 0,32,33
 295 244 295 244 251 208.5 c 128,-1,34
 207 173 207 173 196 121 c 1,35,-1
 498 121 l 1,36,-1
 473 0 l 1,37,-1
 -21 0 l 1,38,-1
 -21 0 l 1,0,1
EndSplineSet
Substitution2: "'lnum' Lining Figures in Latin lookup 3 subtable" two.lnum
Substitution2: "'aalt' Access All Alternates in Latin lookup 0 subtable" two.lnum
EndChar

StartChar: three
Encoding: 51 51 23
Width: 561
GlyphClass: 2
Flags: W
LayerCount: 2
Fore
SplineSet
194 -9 m 0,0,1
 111 -9 111 -9 61.5 27 c 128,-1,2
 12 63 12 63 2 130 c 1,3,-1
 92 218 l 1,4,5
 93 203 93 203 99 184.5 c 128,-1,6
 105 166 105 166 119.5 150.5 c 128,-1,7
 134 135 134 135 157 124.5 c 128,-1,8
 180 114 180 114 214 114 c 0,9,10
 242 114 242 114 268 121.5 c 128,-1,11
 294 129 294 129 313.5 143.5 c 128,-1,12
 333 158 333 158 345 177.5 c 128,-1,13
 357 197 357 197 357 221 c 0,14,15
 357 267 357 267 313.5 288.5 c 128,-1,16
 270 310 270 310 185 310 c 2,17,-1
 154 310 l 1,18,-1
 177 422 l 1,19,-1
 209 422 l 2,20,21
 250 422 250 422 286 428.5 c 128,-1,22
 322 435 322 435 348.5 448.5 c 128,-1,23
 375 462 375 462 390 482.5 c 128,-1,24
 405 503 405 503 405 530 c 0,25,26
 405 568 405 568 381 584.5 c 128,-1,27
 357 601 357 601 325 601 c 0,28,29
 298 601 298 601 274 593.5 c 128,-1,30
 250 586 250 586 229.5 574 c 128,-1,31
 209 562 209 562 193.5 547.5 c 128,-1,32
 178 533 178 533 169 520 c 1,33,-1
 103 617 l 1,34,35
 125 641 125 641 154.5 660 c 128,-1,36
 184 679 184 679 217 692 c 128,-1,37
 250 705 250 705 284.5 712 c 128,-1,38
 319 719 319 719 352 719 c 0,39,40
 397 719 397 719 434 706.5 c 128,-1,41
 471 694 471 694 497.5 672 c 128,-1,42
 524 650 524 650 538 619 c 128,-1,43
 552 588 552 588 552 552 c 0,44,45
 552 486 552 486 508 438 c 128,-1,46
 464 390 464 390 389 373 c 1,47,48
 440 363 440 363 468 322.5 c 128,-1,49
 496 282 496 282 496 225 c 0,50,51
 496 167 496 167 468.5 123 c 128,-1,52
 441 79 441 79 397.5 50 c 128,-1,53
 354 21 354 21 300 6 c 128,-1,54
 246 -9 246 -9 194 -9 c 0,0,1
EndSplineSet
Substitution2: "'lnum' Lining Figures in Latin lookup 3 subtable" three.lnum
Substitution2: "'aalt' Access All Alternates in Latin lookup 0 subtable" three.lnum
EndChar

StartChar: four
Encoding: 52 52 24
Width: 563
GlyphClass: 2
Flags: W
LayerCount: 2
Fore
SplineSet
243 0 m 1,0,-1
 277 161 l 1,1,-1
 -3 161 l 1,2,-1
 23 281 l 1,3,-1
 435 710 l 1,4,-1
 527 710 l 1,5,-1
 436 282 l 1,6,-1
 520 282 l 1,7,-1
 495 161 l 1,8,-1
 411 161 l 1,9,-1
 377 0 l 1,10,-1
 243 0 l 1,0,-1
317 282 m 1,11,-1
 366 508 l 1,12,-1
 158 282 l 1,13,-1
 317 282 l 1,11,-1
EndSplineSet
Substitution2: "'lnum' Lining Figures in Latin lookup 3 subtable" four.lnum
Substitution2: "'aalt' Access All Alternates in Latin lookup 0 subtable" four.lnum
EndChar

StartChar: five
Encoding: 53 53 25
Width: 547
GlyphClass: 2
Flags: W
LayerCount: 2
Fore
SplineSet
191 -10 m 0,0,1
 117 -10 117 -10 65.5 23 c 128,-1,2
 14 56 14 56 -5 114 c 1,3,-1
 89 194 l 1,4,5
 107 155 107 155 140.5 132 c 128,-1,6
 174 109 174 109 216 109 c 0,7,8
 245 109 245 109 270.5 120 c 128,-1,9
 296 131 296 131 315.5 150.5 c 128,-1,10
 335 170 335 170 346 196 c 128,-1,11
 357 222 357 222 357 253 c 0,12,13
 357 294 357 294 335 319 c 128,-1,14
 313 344 313 344 275 344 c 0,15,16
 245 344 245 344 216 329 c 128,-1,17
 187 314 187 314 166 288 c 1,18,-1
 50 288 l 1,19,20
 59 308 59 308 72.5 343 c 128,-1,21
 86 378 86 378 102 419.5 c 128,-1,22
 118 461 118 461 135.5 505 c 128,-1,23
 153 549 153 549 169 589.5 c 128,-1,24
 185 630 185 630 197.5 661.5 c 128,-1,25
 210 693 210 693 217 710 c 1,26,-1
 551 710 l 1,27,-1
 524 588 l 1,28,-1
 288 588 l 1,29,-1
 229 429 l 1,30,31
 243 443 243 443 265 451 c 128,-1,32
 287 459 287 459 318 459 c 0,33,34
 359 459 359 459 392 445.5 c 128,-1,35
 425 432 425 432 448.5 408 c 128,-1,36
 472 384 472 384 485 350 c 128,-1,37
 498 316 498 316 498 276 c 0,38,39
 498 214 498 214 473 162 c 128,-1,40
 448 110 448 110 406 71.5 c 128,-1,41
 364 33 364 33 308.5 11.5 c 128,-1,42
 253 -10 253 -10 191 -10 c 0,0,1
EndSplineSet
Substitution2: "'lnum' Lining Figures in Latin lookup 3 subtable" five.lnum
Substitution2: "'aalt' Access All Alternates in Latin lookup 0 subtable" five.lnum
EndChar

StartChar: six
Encoding: 54 54 26
Width: 592
GlyphClass: 2
Flags: W
LayerCount: 2
Fore
SplineSet
236 -10 m 0,0,1
 143 -10 143 -10 93 52.5 c 128,-1,2
 43 115 43 115 43 224 c 0,3,4
 43 325 43 325 69.5 414.5 c 128,-1,5
 96 504 96 504 143.5 570.5 c 128,-1,6
 191 637 191 637 257.5 676 c 128,-1,7
 324 715 324 715 404 715 c 0,8,9
 467 715 467 715 515 686 c 128,-1,10
 563 657 563 657 589 603 c 1,11,-1
 495 519 l 1,12,13
 480 557 480 557 449 578 c 128,-1,14
 418 599 418 599 377 599 c 0,15,16
 316 599 316 599 268 546 c 128,-1,17
 220 493 220 493 197 396 c 1,18,19
 225 432 225 432 265 453 c 128,-1,20
 305 474 305 474 351 474 c 0,21,22
 394 474 394 474 429.5 459 c 128,-1,23
 465 444 465 444 490 418 c 128,-1,24
 515 392 515 392 528.5 356.5 c 128,-1,25
 542 321 542 321 542 280 c 0,26,27
 542 221 542 221 516.5 168.5 c 128,-1,28
 491 116 491 116 448.5 76.5 c 128,-1,29
 406 37 406 37 351 13.5 c 128,-1,30
 296 -10 296 -10 236 -10 c 0,0,1
261 103 m 0,31,32
 288 103 288 103 315 116 c 128,-1,33
 342 129 342 129 363.5 151 c 128,-1,34
 385 173 385 173 398 201.5 c 128,-1,35
 411 230 411 230 411 261 c 0,36,37
 411 306 411 306 385 336.5 c 128,-1,38
 359 367 359 367 317 367 c 0,39,40
 289 367 289 367 262 354.5 c 128,-1,41
 235 342 235 342 214 321 c 128,-1,42
 193 300 193 300 180 272 c 128,-1,43
 167 244 167 244 167 213 c 0,44,45
 167 167 167 167 193 135 c 128,-1,46
 219 103 219 103 261 103 c 0,31,32
EndSplineSet
Substitution2: "'lnum' Lining Figures in Latin lookup 3 subtable" six.lnum
Substitution2: "'aalt' Access All Alternates in Latin lookup 0 subtable" six.lnum
EndChar

StartChar: seven
Encoding: 55 55 27
Width: 546
GlyphClass: 2
Flags: W
LayerCount: 2
Fore
SplineSet
394 588 m 1,0,-1
 93 588 l 1,1,-1
 120 710 l 1,2,-1
 631 710 l 1,3,-1
 145 0 l 1,4,-1
 -6 0 l 1,5,-1
 394 588 l 1,0,-1
EndSplineSet
Substitution2: "'lnum' Lining Figures in Latin lookup 3 subtable" seven.lnum
Substitution2: "'aalt' Access All Alternates in Latin lookup 0 subtable" seven.lnum
EndChar

StartChar: eight
Encoding: 56 56 28
Width: 583
GlyphClass: 2
Flags: W
LayerCount: 2
Fore
SplineSet
522 242 m 0,0,1
 522 187 522 187 497 141 c 128,-1,2
 472 95 472 95 430 61.5 c 128,-1,3
 388 28 388 28 334.5 9.5 c 128,-1,4
 281 -9 281 -9 224 -9 c 0,5,6
 180 -9 180 -9 142.5 4.5 c 128,-1,7
 105 18 105 18 78 43 c 128,-1,8
 51 68 51 68 36 102 c 128,-1,9
 21 136 21 136 21 177 c 0,10,11
 21 216 21 216 34.5 248 c 128,-1,12
 48 280 48 280 69 305.5 c 128,-1,13
 90 331 90 331 115.5 349.5 c 128,-1,14
 141 368 141 368 164 380 c 1,15,16
 138 394 138 394 122.5 423.5 c 128,-1,17
 107 453 107 453 107 488 c 0,18,19
 107 540 107 540 133 581.5 c 128,-1,20
 159 623 159 623 199 651.5 c 128,-1,21
 239 680 239 680 286.5 695 c 128,-1,22
 334 710 334 710 377 710 c 0,23,24
 412 710 412 710 446 699.5 c 128,-1,25
 480 689 480 689 507 668 c 128,-1,26
 534 647 534 647 550.5 616.5 c 128,-1,27
 567 586 567 586 567 546 c 0,28,29
 567 517 567 517 557 491.5 c 128,-1,30
 547 466 547 466 530.5 444.5 c 128,-1,31
 514 423 514 423 493 406.5 c 128,-1,32
 472 390 472 390 450 380 c 1,33,34
 479 362 479 362 500.5 326 c 128,-1,35
 522 290 522 290 522 242 c 0,0,1
386 238 m 0,36,37
 386 279 386 279 359.5 301.5 c 128,-1,38
 333 324 333 324 295 324 c 0,39,40
 270 324 270 324 246 314.5 c 128,-1,41
 222 305 222 305 203 288.5 c 128,-1,42
 184 272 184 272 172.5 249 c 128,-1,43
 161 226 161 226 161 199 c 0,44,45
 161 160 161 160 187.5 136 c 128,-1,46
 214 112 214 112 251 112 c 0,47,48
 275 112 275 112 299.5 121.5 c 128,-1,49
 324 131 324 131 343 148 c 128,-1,50
 362 165 362 165 374 188 c 128,-1,51
 386 211 386 211 386 238 c 0,36,37
243 494 m 0,52,53
 243 460 243 460 266 442.5 c 128,-1,54
 289 425 289 425 317 425 c 0,55,56
 335 425 335 425 354.5 431.5 c 128,-1,57
 374 438 374 438 390 451 c 128,-1,58
 406 464 406 464 416.5 482 c 128,-1,59
 427 500 427 500 427 524 c 0,60,61
 427 555 427 555 405.5 573 c 128,-1,62
 384 591 384 591 352 591 c 0,63,64
 331 591 331 591 311.5 584 c 128,-1,65
 292 577 292 577 277 564 c 128,-1,66
 262 551 262 551 252.5 533 c 128,-1,67
 243 515 243 515 243 494 c 0,52,53
EndSplineSet
Substitution2: "'lnum' Lining Figures in Latin lookup 3 subtable" eight.lnum
Substitution2: "'aalt' Access All Alternates in Latin lookup 0 subtable" eight.lnum
EndChar

StartChar: nine
Encoding: 57 57 29
Width: 592
GlyphClass: 2
Flags: W
LayerCount: 2
Fore
SplineSet
72 426 m 0,0,1
 72 484 72 484 97.5 536.5 c 128,-1,2
 123 589 123 589 165.5 629 c 128,-1,3
 208 669 208 669 263 692 c 128,-1,4
 318 715 318 715 378 715 c 0,5,6
 471 715 471 715 521 653 c 128,-1,7
 571 591 571 591 571 481 c 0,8,9
 571 380 571 380 544.5 291 c 128,-1,10
 518 202 518 202 470.5 135 c 128,-1,11
 423 68 423 68 357 29 c 128,-1,12
 291 -10 291 -10 211 -10 c 0,13,14
 147 -10 147 -10 99.5 19.5 c 128,-1,15
 52 49 52 49 25 103 c 1,16,-1
 120 187 l 1,17,18
 134 149 134 149 165 128 c 128,-1,19
 196 107 196 107 237 107 c 0,20,21
 299 107 299 107 346.5 160 c 128,-1,22
 394 213 394 213 417 310 c 1,23,24
 389 274 389 274 349 253 c 128,-1,25
 309 232 309 232 263 232 c 0,26,27
 220 232 220 232 184.5 247 c 128,-1,28
 149 262 149 262 124 288 c 128,-1,29
 99 314 99 314 85.5 349.5 c 128,-1,30
 72 385 72 385 72 426 c 0,0,1
354 603 m 0,31,32
 326 603 326 603 299 590 c 128,-1,33
 272 577 272 577 251 555 c 128,-1,34
 230 533 230 533 217 504.5 c 128,-1,35
 204 476 204 476 204 445 c 0,36,37
 204 400 204 400 230 369.5 c 128,-1,38
 256 339 256 339 298 339 c 0,39,40
 326 339 326 339 353 351.5 c 128,-1,41
 380 364 380 364 401 385 c 128,-1,42
 422 406 422 406 435 434 c 128,-1,43
 448 462 448 462 448 493 c 0,44,45
 448 515 448 515 441 535 c 128,-1,46
 434 555 434 555 421.5 570 c 128,-1,47
 409 585 409 585 392 594 c 128,-1,48
 375 603 375 603 354 603 c 0,31,32
EndSplineSet
Substitution2: "'lnum' Lining Figures in Latin lookup 3 subtable" nine.lnum
Substitution2: "'aalt' Access All Alternates in Latin lookup 0 subtable" nine.lnum
EndChar

StartChar: colon
Encoding: 58 58 30
Width: 244
GlyphClass: 2
Flags: W
LayerCount: 2
Fore
SplineSet
82 374 m 1,0,-1
 113 518 l 1,1,-1
 222 518 l 1,2,-1
 192 374 l 1,3,-1
 82 374 l 1,0,-1
3 0 m 1,4,-1
 34 144 l 1,5,-1
 143 144 l 1,6,-1
 112 0 l 1,7,-1
 3 0 l 1,4,-1
EndSplineSet
EndChar

StartChar: semicolon
Encoding: 59 59 31
Width: 247
GlyphClass: 2
Flags: W
LayerCount: 2
Fore
SplineSet
83 374 m 1,0,-1
 113 518 l 1,1,-1
 223 518 l 1,2,-1
 192 374 l 1,3,-1
 83 374 l 1,0,-1
-7 -115 m 1,4,-1
 45 4 l 1,5,-1
 3 4 l 1,6,-1
 33 144 l 1,7,-1
 149 144 l 1,8,-1
 119 4 l 1,9,-1
 53 -115 l 1,10,-1
 -7 -115 l 1,4,-1
EndSplineSet
EndChar

StartChar: less
Encoding: 60 60 32
Width: 550
GlyphClass: 2
Flags: W
LayerCount: 2
Fore
SplineSet
29 288 m 1,0,-1
 451 543 l 1,1,-1
 451 401 l 1,2,-1
 224 259 l 1,3,-1
 451 123 l 1,4,-1
 451 -27 l 1,5,-1
 29 223 l 1,6,-1
 29 288 l 1,0,-1
EndSplineSet
EndChar

StartChar: equal
Encoding: 61 61 33
Width: 485
GlyphClass: 2
Flags: W
LayerCount: 2
Fore
SplineSet
80 144 m 1,0,-1
 80 231 l 1,1,-1
 393 231 l 1,2,-1
 393 144 l 1,3,-1
 80 144 l 1,0,-1
80 321 m 1,4,-1
 80 408 l 1,5,-1
 393 408 l 1,6,-1
 393 321 l 1,7,-1
 80 321 l 1,4,-1
EndSplineSet
EndChar

StartChar: greater
Encoding: 62 62 34
Width: 550
GlyphClass: 2
Flags: W
LayerCount: 2
Fore
SplineSet
502 223 m 1,0,-1
 80 -27 l 1,1,-1
 80 123 l 1,2,-1
 307 259 l 1,3,-1
 80 401 l 1,4,-1
 80 543 l 1,5,-1
 502 288 l 1,6,-1
 502 223 l 1,0,-1
EndSplineSet
EndChar

StartChar: question
Encoding: 63 63 35
Width: 471
GlyphClass: 2
Flags: W
LayerCount: 2
Fore
SplineSet
101 233 m 1,0,1
 111 282 111 282 133.5 322 c 128,-1,2
 156 362 156 362 211 389 c 0,3,4
 241 404 241 404 268.5 418.5 c 128,-1,5
 296 433 296 433 317.5 450.5 c 128,-1,6
 339 468 339 468 352 490 c 128,-1,7
 365 512 365 512 365 541 c 0,8,9
 365 574 365 574 344.5 592 c 128,-1,10
 324 610 324 610 295 610 c 0,11,12
 275 610 275 610 257 602.5 c 128,-1,13
 239 595 239 595 223 583.5 c 128,-1,14
 207 572 207 572 194 557.5 c 128,-1,15
 181 543 181 543 171 530 c 1,16,-1
 96 590 l 1,17,18
 134 652 134 652 195.5 685.5 c 128,-1,19
 257 719 257 719 323 719 c 0,20,21
 354 719 354 719 383.5 710 c 128,-1,22
 413 701 413 701 435.5 682 c 128,-1,23
 458 663 458 663 471.5 633.5 c 128,-1,24
 485 604 485 604 485 563 c 0,25,26
 485 519 485 519 474.5 486.5 c 128,-1,27
 464 454 464 454 445 430 c 128,-1,28
 426 406 426 406 401 388 c 128,-1,29
 376 370 376 370 347 354 c 0,30,31
 325 342 325 342 303 331 c 128,-1,32
 281 320 281 320 262.5 306.5 c 128,-1,33
 244 293 244 293 230 275.5 c 128,-1,34
 216 258 216 258 211 233 c 1,35,-1
 101 233 l 1,0,1
54 0 m 1,36,-1
 83 138 l 1,37,-1
 193 138 l 1,38,-1
 164 0 l 1,39,-1
 54 0 l 1,36,-1
EndSplineSet
EndChar

StartChar: at
Encoding: 64 64 36
Width: 813
GlyphClass: 2
Flags: W
LayerCount: 2
Fore
SplineSet
578 44 m 0,0,1
 605 44 605 44 627.5 69 c 128,-1,2
 650 94 650 94 666.5 131.5 c 128,-1,3
 683 169 683 169 692 213.5 c 128,-1,4
 701 258 701 258 701 297 c 0,5,6
 701 349 701 349 684.5 395 c 128,-1,7
 668 441 668 441 636 475 c 128,-1,8
 604 509 604 509 557.5 529 c 128,-1,9
 511 549 511 549 451 549 c 0,10,11
 377 549 377 549 309.5 519 c 128,-1,12
 242 489 242 489 190.5 437 c 128,-1,13
 139 385 139 385 108 315 c 128,-1,14
 77 245 77 245 77 164 c 0,15,16
 77 107 77 107 93 60 c 128,-1,17
 109 13 109 13 139 -21 c 128,-1,18
 169 -55 169 -55 212.5 -73.5 c 128,-1,19
 256 -92 256 -92 311 -92 c 0,20,21
 350 -92 350 -92 386 -82.5 c 128,-1,22
 422 -73 422 -73 464 -54 c 1,23,-1
 470 -106 l 1,24,25
 428 -126 428 -126 385 -136 c 128,-1,26
 342 -146 342 -146 300 -146 c 0,27,28
 237 -146 237 -146 185.5 -124 c 128,-1,29
 134 -102 134 -102 97 -62.5 c 128,-1,30
 60 -23 60 -23 40 33 c 128,-1,31
 20 89 20 89 20 158 c 0,32,33
 20 254 20 254 58 335.5 c 128,-1,34
 96 417 96 417 158 476.5 c 128,-1,35
 220 536 220 536 300.5 569.5 c 128,-1,36
 381 603 381 603 465 603 c 0,37,38
 533 603 533 603 587.5 580.5 c 128,-1,39
 642 558 642 558 680 519 c 128,-1,40
 718 480 718 480 738 427 c 128,-1,41
 758 374 758 374 758 313 c 0,42,43
 758 265 758 265 745 207.5 c 128,-1,44
 732 150 732 150 706.5 100.5 c 128,-1,45
 681 51 681 51 642.5 17.5 c 128,-1,46
 604 -16 604 -16 553 -16 c 0,47,48
 521 -16 521 -16 500 -0.5 c 128,-1,49
 479 15 479 15 479 50 c 0,50,51
 479 55 479 55 479 59 c 128,-1,52
 479 63 479 63 480 67 c 1,53,54
 443 33 443 33 403 15 c 128,-1,55
 363 -3 363 -3 321 -3 c 0,56,57
 284 -3 284 -3 254.5 11 c 128,-1,58
 225 25 225 25 204 49.5 c 128,-1,59
 183 74 183 74 172 108 c 128,-1,60
 161 142 161 142 161 181 c 0,61,62
 161 236 161 236 181.5 287 c 128,-1,63
 202 338 202 338 236.5 377 c 128,-1,64
 271 416 271 416 316 439.5 c 128,-1,65
 361 463 361 463 409 463 c 0,66,67
 460 463 460 463 492 438.5 c 128,-1,68
 524 414 524 414 535 376 c 1,69,-1
 549 450 l 1,70,-1
 617 450 l 1,71,-1
 550 115 l 2,72,73
 548 107 548 107 547 98 c 128,-1,74
 546 89 546 89 546 82 c 0,75,76
 546 44 546 44 578 44 c 0,0,1
350 64 m 0,77,78
 395 64 395 64 430.5 93 c 128,-1,79
 466 122 466 122 484 166 c 1,80,-1
 504 293 l 1,81,82
 494 338 494 338 467.5 362.5 c 128,-1,83
 441 387 441 387 405 387 c 0,84,85
 376 387 376 387 347 372 c 128,-1,86
 318 357 318 357 294.5 330.5 c 128,-1,87
 271 304 271 304 256.5 268.5 c 128,-1,88
 242 233 242 233 242 193 c 0,89,90
 242 138 242 138 271 101 c 128,-1,91
 300 64 300 64 350 64 c 0,77,78
EndSplineSet
EndChar

StartChar: A
Encoding: 65 65 37
Width: 645
GlyphClass: 2
Flags: W
LayerCount: 2
Fore
SplineSet
352 710 m 1,0,-1
 475 710 l 1,1,-1
 578 0 l 1,2,-1
 436 0 l 1,3,-1
 414 177 l 1,4,-1
 185 177 l 1,5,-1
 89 0 l 1,6,-1
 -53 0 l 1,7,-1
 352 710 l 1,0,-1
411 274 m 1,8,-1
 380 553 l 1,9,-1
 228 274 l 1,10,-1
 411 274 l 1,8,-1
EndSplineSet
EndChar

StartChar: B
Encoding: 66 66 38
Width: 656
GlyphClass: 2
Flags: W
LayerCount: 2
Fore
SplineSet
161 710 m 1,0,-1
 525 710 l 2,1,2
 555 710 555 710 577.5 697.5 c 128,-1,3
 600 685 600 685 615 665 c 128,-1,4
 630 645 630 645 637.5 619 c 128,-1,5
 645 593 645 593 645 565 c 0,6,7
 645 534 645 534 635.5 504 c 128,-1,8
 626 474 626 474 608 447 c 128,-1,9
 590 420 590 420 564.5 398.5 c 128,-1,10
 539 377 539 377 508 364 c 1,11,12
 553 349 553 349 577 312.5 c 128,-1,13
 601 276 601 276 601 223 c 0,14,15
 601 169 601 169 579 127.5 c 128,-1,16
 557 86 557 86 520 57.5 c 128,-1,17
 483 29 483 29 435 14.5 c 128,-1,18
 387 0 387 0 336 0 c 2,19,-1
 10 0 l 1,20,-1
 161 710 l 1,0,-1
361 117 m 2,21,22
 380 117 380 117 399 126 c 128,-1,23
 418 135 418 135 432.5 150.5 c 128,-1,24
 447 166 447 166 456 186.5 c 128,-1,25
 465 207 465 207 465 230 c 0,26,27
 465 261 465 261 449.5 282.5 c 128,-1,28
 434 304 434 304 407 304 c 2,29,-1
 211 304 l 1,30,-1
 172 117 l 1,31,-1
 361 117 l 2,21,22
404 413 m 2,32,33
 422 413 422 413 439.5 421 c 128,-1,34
 457 429 457 429 471 443.5 c 128,-1,35
 485 458 485 458 493.5 478.5 c 128,-1,36
 502 499 502 499 502 524 c 0,37,38
 502 555 502 555 487 573.5 c 128,-1,39
 472 592 472 592 447 592 c 2,40,-1
 273 592 l 1,41,-1
 235 413 l 1,42,-1
 404 413 l 2,32,33
EndSplineSet
EndChar

StartChar: C
Encoding: 67 67 39
Width: 658
GlyphClass: 2
Flags: W
LayerCount: 2
Fore
SplineSet
296 -6 m 0,0,1
 234 -6 234 -6 186 19.5 c 128,-1,2
 138 45 138 45 105 87 c 128,-1,3
 72 129 72 129 54.5 183.5 c 128,-1,4
 37 238 37 238 37 296 c 0,5,6
 37 345 37 345 51 395 c 128,-1,7
 65 445 65 445 91.5 491.5 c 128,-1,8
 118 538 118 538 155.5 578.5 c 128,-1,9
 193 619 193 619 239.5 649 c 128,-1,10
 286 679 286 679 340 696.5 c 128,-1,11
 394 714 394 714 454 714 c 0,12,13
 548 714 548 714 607.5 671 c 128,-1,14
 667 628 667 628 685 559 c 1,15,-1
 564 486 l 1,16,17
 558 516 558 516 544 536.5 c 128,-1,18
 530 557 530 557 510.5 569 c 128,-1,19
 491 581 491 581 468.5 586.5 c 128,-1,20
 446 592 446 592 424 592 c 0,21,22
 368 592 368 592 322 565 c 128,-1,23
 276 538 276 538 244 496 c 128,-1,24
 212 454 212 454 194.5 403 c 128,-1,25
 177 352 177 352 177 304 c 0,26,27
 177 266 177 266 187 232 c 128,-1,28
 197 198 197 198 216 172 c 128,-1,29
 235 146 235 146 262.5 131 c 128,-1,30
 290 116 290 116 326 116 c 0,31,32
 348 116 348 116 373.5 122 c 128,-1,33
 399 128 399 128 423.5 141 c 128,-1,34
 448 154 448 154 470.5 174.5 c 128,-1,35
 493 195 493 195 511 224 c 1,36,-1
 610 159 l 1,37,38
 586 119 586 119 549.5 88.5 c 128,-1,39
 513 58 513 58 470.5 37 c 128,-1,40
 428 16 428 16 382.5 5 c 128,-1,41
 337 -6 337 -6 296 -6 c 0,0,1
EndSplineSet
EndChar

StartChar: D
Encoding: 68 68 40
Width: 692
GlyphClass: 2
Flags: W
LayerCount: 2
Fore
SplineSet
161 710 m 1,0,-1
 408 710 l 2,1,2
 477 710 477 710 527.5 688.5 c 128,-1,3
 578 667 578 667 611 630 c 128,-1,4
 644 593 644 593 660 543 c 128,-1,5
 676 493 676 493 676 435 c 0,6,7
 676 341 676 341 644.5 261.5 c 128,-1,8
 613 182 613 182 556.5 124 c 128,-1,9
 500 66 500 66 423.5 33 c 128,-1,10
 347 0 347 0 257 0 c 2,11,-1
 10 0 l 1,12,-1
 161 710 l 1,0,-1
282 121 m 2,13,14
 339 121 339 121 385.5 145 c 128,-1,15
 432 169 432 169 465 209.5 c 128,-1,16
 498 250 498 250 516 303 c 128,-1,17
 534 356 534 356 534 415 c 0,18,19
 534 493 534 493 495.5 541 c 128,-1,20
 457 589 457 589 382 589 c 2,21,-1
 272 589 l 1,22,-1
 173 121 l 1,23,-1
 282 121 l 2,13,14
EndSplineSet
EndChar

StartChar: E
Encoding: 69 69 41
Width: 578
GlyphClass: 2
Flags: W
LayerCount: 2
Fore
SplineSet
161 710 m 1,0,-1
 621 710 l 1,1,-1
 596 589 l 1,2,-1
 272 589 l 1,3,-1
 236 418 l 1,4,-1
 515 418 l 1,5,-1
 491 306 l 1,6,-1
 212 306 l 1,7,-1
 173 121 l 1,8,-1
 505 121 l 1,9,-1
 479 0 l 1,10,-1
 10 0 l 1,11,-1
 161 710 l 1,0,-1
EndSplineSet
EndChar

StartChar: F
Encoding: 70 70 42
Width: 556
GlyphClass: 2
Flags: W
LayerCount: 2
Fore
SplineSet
161 710 m 1,0,-1
 615 710 l 1,1,-1
 589 589 l 1,2,-1
 272 589 l 1,3,-1
 234 406 l 1,4,-1
 496 406 l 1,5,-1
 472 294 l 1,6,-1
 210 294 l 1,7,-1
 147 0 l 1,8,-1
 10 0 l 1,9,-1
 161 710 l 1,0,-1
EndSplineSet
EndChar

StartChar: G
Encoding: 71 71 43
Width: 697
GlyphClass: 2
Flags: W
LayerCount: 2
Fore
SplineSet
494 80 m 1,0,1
 443 36 443 36 393.5 15.5 c 128,-1,2
 344 -5 344 -5 291 -5 c 0,3,4
 234 -5 234 -5 187.5 17.5 c 128,-1,5
 141 40 141 40 107.5 79 c 128,-1,6
 74 118 74 118 55.5 171.5 c 128,-1,7
 37 225 37 225 37 287 c 0,8,9
 37 373 37 373 72 450.5 c 128,-1,10
 107 528 107 528 165 587 c 128,-1,11
 223 646 223 646 298 680.5 c 128,-1,12
 373 715 373 715 453 715 c 0,13,14
 548 715 548 715 607.5 673 c 128,-1,15
 667 631 667 631 687 560 c 1,16,-1
 568 484 l 1,17,18
 554 537 554 537 515.5 565 c 128,-1,19
 477 593 477 593 423 593 c 0,20,21
 373 593 373 593 329 568.5 c 128,-1,22
 285 544 285 544 251 503.5 c 128,-1,23
 217 463 217 463 197.5 410.5 c 128,-1,24
 178 358 178 358 178 302 c 0,25,26
 178 263 178 263 188.5 229 c 128,-1,27
 199 195 199 195 218.5 170 c 128,-1,28
 238 145 238 145 266 131 c 128,-1,29
 294 117 294 117 329 117 c 0,30,31
 425 117 425 117 522 214 c 1,32,-1
 533 264 l 1,33,-1
 398 264 l 1,34,-1
 420 365 l 1,35,-1
 669 365 l 1,36,-1
 591 0 l 1,37,-1
 477 0 l 1,38,-1
 494 80 l 1,0,1
EndSplineSet
Substitution2: "'ss01' Style Set 1 in Latin lookup 8 subtable" G.alt
Substitution2: "'salt' Stylistic Alternatives in Latin lookup 5 subtable" G.alt
Substitution2: "'aalt' Access All Alternates in Latin lookup 0 subtable" G.alt
EndChar

StartChar: H
Encoding: 72 72 44
Width: 718
GlyphClass: 2
Flags: W
LayerCount: 2
Fore
SplineSet
161 710 m 1,0,-1
 298 710 l 1,1,-1
 237 423 l 1,2,-1
 533 423 l 1,3,-1
 594 710 l 1,4,-1
 731 710 l 1,5,-1
 580 0 l 1,6,-1
 443 0 l 1,7,-1
 507 303 l 1,8,-1
 211 303 l 1,9,-1
 147 0 l 1,10,-1
 10 0 l 1,11,-1
 161 710 l 1,0,-1
EndSplineSet
EndChar

StartChar: I
Encoding: 73 73 45
Width: 285
GlyphClass: 2
Flags: W
LayerCount: 2
Fore
SplineSet
161 709 m 1,0,-1
 298 709 l 1,1,-1
 147 0 l 1,2,-1
 10 0 l 1,3,-1
 161 709 l 1,0,-1
EndSplineSet
EndChar

StartChar: J
Encoding: 74 74 46
Width: 479
GlyphClass: 2
Flags: W
LayerCount: 2
Fore
SplineSet
94 -11 m 0,0,1
 9 -11 9 -11 -43 33 c 1,2,-1
 11 145 l 1,3,4
 21 135 21 135 50 123 c 128,-1,5
 79 111 79 111 120 111 c 0,6,7
 159 111 159 111 185 125.5 c 128,-1,8
 211 140 211 140 229 170 c 128,-1,9
 247 200 247 200 260 244.5 c 128,-1,10
 273 289 273 289 286 349 c 2,11,-1
 363 709 l 1,12,-1
 501 709 l 1,13,-1
 424 349 l 2,14,15
 407 268 407 268 385 201.5 c 128,-1,16
 363 135 363 135 326.5 88 c 128,-1,17
 290 41 290 41 234 15 c 128,-1,18
 178 -11 178 -11 94 -11 c 0,0,1
EndSplineSet
EndChar

StartChar: K
Encoding: 75 75 47
Width: 643
GlyphClass: 2
Flags: W
LayerCount: 2
Fore
SplineSet
161 709 m 1,0,-1
 298 709 l 1,1,-1
 226 372 l 1,2,-1
 571 710 l 1,3,-1
 725 710 l 1,4,-1
 400 395 l 1,5,-1
 590 0 l 1,6,-1
 434 0 l 1,7,-1
 295 307 l 1,8,-1
 192 212 l 1,9,-1
 147 0 l 1,10,-1
 10 0 l 1,11,-1
 161 709 l 1,0,-1
EndSplineSet
EndChar

StartChar: L
Encoding: 76 76 48
Width: 561
GlyphClass: 2
Flags: W
LayerCount: 2
Fore
SplineSet
161 710 m 1,0,-1
 298 710 l 1,1,-1
 173 121 l 1,2,-1
 512 121 l 1,3,-1
 487 0 l 1,4,-1
 10 0 l 1,5,-1
 161 710 l 1,0,-1
EndSplineSet
EndChar

StartChar: M
Encoding: 77 77 49
Width: 830
GlyphClass: 2
Flags: W
LayerCount: 2
Fore
SplineSet
161 710 m 1,0,-1
 309 710 l 1,1,-1
 416 306 l 1,2,-1
 696 710 l 1,3,-1
 843 710 l 1,4,-1
 692 0 l 1,5,-1
 555 0 l 1,6,-1
 655 470 l 1,7,-1
 414 120 l 1,8,-1
 339 120 l 1,9,-1
 247 470 l 1,10,-1
 147 0 l 1,11,-1
 10 0 l 1,12,-1
 161 710 l 1,0,-1
EndSplineSet
EndChar

StartChar: N
Encoding: 78 78 50
Width: 733
GlyphClass: 2
Flags: W
LayerCount: 2
Fore
SplineSet
161 710 m 1,0,-1
 268 710 l 1,1,-1
 510 244 l 1,2,-1
 609 709 l 1,3,-1
 746 709 l 1,4,-1
 595 0 l 1,5,-1
 484 0 l 1,6,-1
 243 455 l 1,7,-1
 147 0 l 1,8,-1
 10 0 l 1,9,-1
 161 710 l 1,0,-1
EndSplineSet
EndChar

StartChar: O
Encoding: 79 79 51
Width: 729
GlyphClass: 2
Flags: W
LayerCount: 2
Fore
SplineSet
299 -5 m 0,0,1
 236 -5 236 -5 187 19.5 c 128,-1,2
 138 44 138 44 104.5 85 c 128,-1,3
 71 126 71 126 54 179 c 128,-1,4
 37 232 37 232 37 290 c 0,5,6
 37 371 37 371 71.5 447.5 c 128,-1,7
 106 524 106 524 164 583.5 c 128,-1,8
 222 643 222 643 297.5 679 c 128,-1,9
 373 715 373 715 455 715 c 0,10,11
 518 715 518 715 566.5 690 c 128,-1,12
 615 665 615 665 647.5 624 c 128,-1,13
 680 583 680 583 697 529 c 128,-1,14
 714 475 714 475 714 418 c 0,15,16
 714 338 714 338 680 261.5 c 128,-1,17
 646 185 646 185 588.5 126 c 128,-1,18
 531 67 531 67 456 31 c 128,-1,19
 381 -5 381 -5 299 -5 c 0,0,1
326 117 m 0,20,21
 381 117 381 117 426.5 144 c 128,-1,22
 472 171 472 171 505 213 c 128,-1,23
 538 255 538 255 556 306.5 c 128,-1,24
 574 358 574 358 574 408 c 0,25,26
 574 445 574 445 565 478.5 c 128,-1,27
 556 512 556 512 537.5 537 c 128,-1,28
 519 562 519 562 491 577 c 128,-1,29
 463 592 463 592 426 592 c 0,30,31
 371 592 371 592 325 565.5 c 128,-1,32
 279 539 279 539 246 497 c 128,-1,33
 213 455 213 455 195 403.5 c 128,-1,34
 177 352 177 352 177 301 c 0,35,36
 177 264 177 264 186 231 c 128,-1,37
 195 198 195 198 214 172.5 c 128,-1,38
 233 147 233 147 260.5 132 c 128,-1,39
 288 117 288 117 326 117 c 0,20,21
EndSplineSet
EndChar

StartChar: P
Encoding: 80 80 52
Width: 601
GlyphClass: 2
Flags: W
LayerCount: 2
Fore
SplineSet
161 710 m 1,0,-1
 447 710 l 2,1,2
 487 710 487 710 519 693.5 c 128,-1,3
 551 677 551 677 573 649.5 c 128,-1,4
 595 622 595 622 606.5 586.5 c 128,-1,5
 618 551 618 551 618 514 c 0,6,7
 618 464 618 464 597 414.5 c 128,-1,8
 576 365 576 365 539.5 326 c 128,-1,9
 503 287 503 287 454.5 262.5 c 128,-1,10
 406 238 406 238 352 238 c 2,11,-1
 197 238 l 1,12,-1
 147 0 l 1,13,-1
 10 0 l 1,14,-1
 161 710 l 1,0,-1
368 359 m 2,15,16
 389 359 389 359 408.5 370 c 128,-1,17
 428 381 428 381 443.5 400.5 c 128,-1,18
 459 420 459 420 468 446 c 128,-1,19
 477 472 477 472 477 503 c 0,20,21
 477 544 477 544 458 566.5 c 128,-1,22
 439 589 439 589 412 589 c 2,23,-1
 272 589 l 1,24,-1
 223 359 l 1,25,-1
 368 359 l 2,15,16
EndSplineSet
EndChar

StartChar: Q
Encoding: 81 81 53
Width: 728
GlyphClass: 2
Flags: W
LayerCount: 2
Fore
SplineSet
478 42 m 1,0,1
 436 19 436 19 391 7 c 128,-1,2
 346 -5 346 -5 298 -5 c 0,3,4
 235 -5 235 -5 186 19.5 c 128,-1,5
 137 44 137 44 104 85 c 128,-1,6
 71 126 71 126 53.5 179 c 128,-1,7
 36 232 36 232 36 290 c 0,8,9
 36 371 36 371 70.5 447.5 c 128,-1,10
 105 524 105 524 163 583.5 c 128,-1,11
 221 643 221 643 296.5 679 c 128,-1,12
 372 715 372 715 454 715 c 0,13,14
 517 715 517 715 565.5 690 c 128,-1,15
 614 665 614 665 647 624 c 128,-1,16
 680 583 680 583 697 529 c 128,-1,17
 714 475 714 475 714 418 c 0,18,19
 714 330 714 330 674 248 c 128,-1,20
 634 166 634 166 567 106 c 1,21,-1
 637 0 l 1,22,-1
 506 0 l 1,23,-1
 478 42 l 1,0,1
326 117 m 0,24,25
 350 117 350 117 372.5 122.5 c 128,-1,26
 395 128 395 128 416 138 c 1,27,-1
 335 263 l 1,28,-1
 465 263 l 1,29,-1
 501 207 l 1,30,31
 536 250 536 250 555 303 c 128,-1,32
 574 356 574 356 574 408 c 0,33,34
 574 445 574 445 564.5 478.5 c 128,-1,35
 555 512 555 512 536.5 537.5 c 128,-1,36
 518 563 518 563 490.5 578 c 128,-1,37
 463 593 463 593 426 593 c 0,38,39
 371 593 371 593 325 566.5 c 128,-1,40
 279 540 279 540 246 498 c 128,-1,41
 213 456 213 456 195 404 c 128,-1,42
 177 352 177 352 177 301 c 0,43,44
 177 264 177 264 186 231 c 128,-1,45
 195 198 195 198 214 172.5 c 128,-1,46
 233 147 233 147 260.5 132 c 128,-1,47
 288 117 288 117 326 117 c 0,24,25
EndSplineSet
EndChar

StartChar: R
Encoding: 82 82 54
Width: 642
GlyphClass: 2
Flags: W
LayerCount: 2
Fore
SplineSet
10 0 m 1,0,-1
 161 710 l 1,1,-1
 461 710 l 2,2,3
 501 710 501 710 533 693.5 c 128,-1,4
 565 677 565 677 587 649.5 c 128,-1,5
 609 622 609 622 620.5 586.5 c 128,-1,6
 632 551 632 551 632 514 c 0,7,8
 632 475 632 475 619 437.5 c 128,-1,9
 606 400 606 400 583.5 367 c 128,-1,10
 561 334 561 334 530.5 308 c 128,-1,11
 500 282 500 282 464 267 c 1,12,-1
 560 0 l 1,13,-1
 404 0 l 1,14,-1
 320 238 l 1,15,-1
 197 238 l 1,16,-1
 147 0 l 1,17,-1
 10 0 l 1,0,-1
382 359 m 2,18,19
 402 359 402 359 421.5 370.5 c 128,-1,20
 441 382 441 382 456 401.5 c 128,-1,21
 471 421 471 421 480.5 446.5 c 128,-1,22
 490 472 490 472 490 500 c 0,23,24
 490 538 490 538 471.5 563.5 c 128,-1,25
 453 589 453 589 426 589 c 2,26,-1
 272 589 l 1,27,-1
 223 359 l 1,28,-1
 382 359 l 2,18,19
EndSplineSet
EndChar

StartChar: S
Encoding: 83 83 55
Width: 592
GlyphClass: 2
Flags: W
LayerCount: 2
Fore
SplineSet
243 -8 m 0,0,1
 168 -8 168 -8 98.5 16 c 128,-1,2
 29 40 29 40 -21 84 c 1,3,-1
 65 203 l 1,4,5
 70 194 70 194 88.5 179.5 c 128,-1,6
 107 165 107 165 134.5 150.5 c 128,-1,7
 162 136 162 136 197.5 126 c 128,-1,8
 233 116 233 116 272 116 c 0,9,10
 332 116 332 116 361.5 139.5 c 128,-1,11
 391 163 391 163 391 202 c 0,12,13
 391 221 391 221 379.5 235 c 128,-1,14
 368 249 368 249 348 260 c 128,-1,15
 328 271 328 271 300.5 280.5 c 128,-1,16
 273 290 273 290 240 300 c 0,17,18
 165 323 165 323 126 357.5 c 128,-1,19
 87 392 87 392 87 453 c 0,20,21
 87 515 87 515 112 563.5 c 128,-1,22
 137 612 137 612 178.5 646 c 128,-1,23
 220 680 220 680 274.5 697.5 c 128,-1,24
 329 715 329 715 388 715 c 0,25,26
 459 715 459 715 514.5 691.5 c 128,-1,27
 570 668 570 668 608 636 c 1,28,-1
 523 524 l 1,29,30
 519 531 519 531 504 543 c 128,-1,31
 489 555 489 555 466.5 566.5 c 128,-1,32
 444 578 444 578 416 586 c 128,-1,33
 388 594 388 594 358 594 c 0,34,35
 298 594 298 594 268 568 c 128,-1,36
 238 542 238 542 238 499 c 0,37,38
 238 482 238 482 246.5 469.5 c 128,-1,39
 255 457 255 457 272 447.5 c 128,-1,40
 289 438 289 438 313 430 c 128,-1,41
 337 422 337 422 369 413 c 0,42,43
 409 402 409 402 441.5 388 c 128,-1,44
 474 374 474 374 497 354.5 c 128,-1,45
 520 335 520 335 532.5 308 c 128,-1,46
 545 281 545 281 545 244 c 0,47,48
 545 177 545 177 519 129 c 128,-1,49
 493 81 493 81 451 50.5 c 128,-1,50
 409 20 409 20 354.5 6 c 128,-1,51
 300 -8 300 -8 243 -8 c 0,0,1
EndSplineSet
EndChar

StartChar: T
Encoding: 84 84 56
Width: 592
GlyphClass: 2
Flags: W
LayerCount: 2
Fore
SplineSet
289 589 m 1,0,-1
 76 589 l 1,1,-1
 101 710 l 1,2,-1
 664 710 l 1,3,-1
 638 589 l 1,4,-1
 426 589 l 1,5,-1
 301 0 l 1,6,-1
 163 0 l 1,7,-1
 289 589 l 1,0,-1
EndSplineSet
EndChar

StartChar: U
Encoding: 85 85 57
Width: 720
GlyphClass: 2
Flags: W
LayerCount: 2
Fore
SplineSet
295 -5 m 0,0,1
 231 -5 231 -5 186.5 13.5 c 128,-1,2
 142 32 142 32 114 64.5 c 128,-1,3
 86 97 86 97 73.5 140.5 c 128,-1,4
 61 184 61 184 61 235 c 0,5,6
 61 290 61 290 74 348 c 2,7,-1
 151 710 l 1,8,-1
 288 710 l 1,9,-1
 211 348 l 2,10,11
 206 325 206 325 203.5 302.5 c 128,-1,12
 201 280 201 280 201 259 c 0,13,14
 201 229 201 229 207 203 c 128,-1,15
 213 177 213 177 227.5 158 c 128,-1,16
 242 139 242 139 264.5 128 c 128,-1,17
 287 117 287 117 320 117 c 0,18,19
 365 117 365 117 400 137 c 128,-1,20
 435 157 435 157 460.5 189 c 128,-1,21
 486 221 486 221 503 262.5 c 128,-1,22
 520 304 520 304 529 348 c 2,23,-1
 606 710 l 1,24,-1
 743 710 l 1,25,-1
 666 348 l 2,26,27
 651 275 651 275 620 211 c 128,-1,28
 589 147 589 147 543 99 c 128,-1,29
 497 51 497 51 435 23 c 128,-1,30
 373 -5 373 -5 295 -5 c 0,0,1
EndSplineSet
EndChar

StartChar: V
Encoding: 86 86 58
Width: 646
GlyphClass: 2
Flags: W
LayerCount: 2
Fore
SplineSet
86 710 m 1,0,-1
 231 710 l 1,1,-1
 293 173 l 1,2,-1
 581 710 l 1,3,-1
 726 710 l 1,4,-1
 314 0 l 1,5,-1
 198 0 l 1,6,-1
 86 710 l 1,0,-1
EndSplineSet
EndChar

StartChar: W
Encoding: 87 87 59
Width: 1002
GlyphClass: 2
Flags: W
LayerCount: 2
Fore
SplineSet
82 710 m 1,0,-1
 231 710 l 1,1,-1
 299 158 l 1,2,-1
 427 385 l 1,3,-1
 383 708 l 1,4,-1
 510 708 l 1,5,-1
 534 473 l 1,6,-1
 657 708 l 1,7,-1
 785 708 l 1,8,-1
 602 385 l 1,9,-1
 635 158 l 1,10,-1
 937 710 l 1,11,-1
 1087 710 l 1,12,-1
 663 0 l 1,13,-1
 548 0 l 1,14,-1
 497 298 l 1,15,-1
 319 0 l 1,16,-1
 204 0 l 1,17,-1
 82 710 l 1,0,-1
EndSplineSet
Substitution2: "'ss01' Style Set 1 in Latin lookup 8 subtable" W.alt
Substitution2: "'salt' Stylistic Alternatives in Latin lookup 5 subtable" W.alt
Substitution2: "'aalt' Access All Alternates in Latin lookup 0 subtable" W.alt
EndChar

StartChar: X
Encoding: 88 88 60
Width: 619
GlyphClass: 2
Flags: W
LayerCount: 2
Fore
SplineSet
247 350 m 1,0,-1
 85 710 l 1,1,-1
 235 710 l 1,2,-1
 341 446 l 1,3,-1
 559 710 l 1,4,-1
 708 710 l 1,5,-1
 393 350 l 1,6,-1
 549 0 l 1,7,-1
 400 0 l 1,8,-1
 300 254 l 1,9,-1
 92 0 l 1,10,-1
 -58 0 l 1,11,-1
 247 350 l 1,0,-1
EndSplineSet
EndChar

StartChar: Y
Encoding: 89 89 61
Width: 619
GlyphClass: 2
Flags: W
LayerCount: 2
Fore
SplineSet
225 250 m 1,0,-1
 81 710 l 1,1,-1
 231 710 l 1,2,-1
 319 368 l 1,3,-1
 555 710 l 1,4,-1
 704 710 l 1,5,-1
 361 248 l 1,6,-1
 309 0 l 1,7,-1
 172 0 l 1,8,-1
 225 250 l 1,0,-1
EndSplineSet
EndChar

StartChar: Z
Encoding: 90 90 62
Width: 597
GlyphClass: 2
Flags: W
LayerCount: 2
Fore
SplineSet
-13 104 m 1,0,-1
 463 589 l 1,1,-1
 102 589 l 1,2,-1
 127 710 l 1,3,-1
 648 710 l 1,4,-1
 626 606 l 1,5,-1
 163 121 l 1,6,-1
 525 121 l 1,7,-1
 500 0 l 1,8,-1
 -35 0 l 1,9,-1
 -13 104 l 1,0,-1
EndSplineSet
EndChar

StartChar: bracketleft
Encoding: 91 91 63
Width: 302
GlyphClass: 2
Flags: W
LayerCount: 2
Fore
SplineSet
1 -40 m 1,0,-1
 167 740 l 1,1,-1
 351 740 l 1,2,-1
 329 633 l 1,3,-1
 268 633 l 1,4,-1
 148 67 l 1,5,-1
 209 67 l 1,6,-1
 186 -40 l 1,7,-1
 1 -40 l 1,0,-1
EndSplineSet
EndChar

StartChar: backslash
Encoding: 92 92 64
Width: 604
GlyphClass: 2
Flags: W
LayerCount: 2
Fore
SplineSet
256 710 m 1,0,-1
 518 0 l 1,1,-1
 370 0 l 1,2,-1
 107 710 l 1,3,-1
 256 710 l 1,0,-1
EndSplineSet
EndChar

StartChar: bracketright
Encoding: 93 93 65
Width: 302
GlyphClass: 2
Flags: W
LayerCount: 2
Fore
SplineSet
-29 -40 m 1,0,-1
 -6 67 l 1,1,-1
 55 67 l 1,2,-1
 175 633 l 1,3,-1
 114 633 l 1,4,-1
 137 740 l 1,5,-1
 322 740 l 1,6,-1
 157 -40 l 1,7,-1
 -29 -40 l 1,0,-1
EndSplineSet
EndChar

StartChar: asciicircum
Encoding: 94 94 66
Width: 589
GlyphClass: 2
Flags: W
LayerCount: 2
Fore
SplineSet
48 303 m 1,0,-1
 246 710 l 1,1,-1
 358 710 l 1,2,-1
 555 303 l 1,3,-1
 445 303 l 1,4,-1
 302 597 l 1,5,-1
 156 303 l 1,6,-1
 48 303 l 1,0,-1
EndSplineSet
EndChar

StartChar: underscore
Encoding: 95 95 67
Width: 456
GlyphClass: 2
Flags: W
LayerCount: 2
Fore
SplineSet
-35 -121 m 1,0,-1
 -10 0 l 1,1,-1
 337 0 l 1,2,-1
 311 -121 l 1,3,-1
 -35 -121 l 1,0,-1
EndSplineSet
EndChar

StartChar: grave
Encoding: 96 96 68
Width: 246
GlyphClass: 2
Flags: W
LayerCount: 2
Fore
SplineSet
60 730 m 1,0,-1
 183 730 l 1,1,-1
 209 611 l 1,2,-1
 116 593 l 1,3,-1
 60 730 l 1,0,-1
EndSplineSet
EndChar

StartChar: a
Encoding: 97 97 69
Width: 624
GlyphClass: 2
Flags: W
LayerCount: 2
Fore
SplineSet
201 -10 m 0,0,1
 157 -10 157 -10 122.5 6.5 c 128,-1,2
 88 23 88 23 64 52 c 128,-1,3
 40 81 40 81 27.5 120.5 c 128,-1,4
 15 160 15 160 15 205 c 0,5,6
 15 270 15 270 38.5 329.5 c 128,-1,7
 62 389 62 389 101.5 434 c 128,-1,8
 141 479 141 479 193 506 c 128,-1,9
 245 533 245 533 302 533 c 0,10,11
 356 533 356 533 394 505 c 128,-1,12
 432 477 432 477 446 432 c 1,13,-1
 466 522 l 1,14,-1
 600 522 l 1,15,-1
 522 154 l 2,16,17
 519 143 519 143 519 136 c 0,18,19
 519 115 519 115 543 114 c 1,20,-1
 519 0 l 1,21,22
 501 -3 501 -3 487.5 -5 c 128,-1,23
 474 -7 474 -7 464 -7 c 0,24,25
 429 -7 429 -7 408.5 8 c 128,-1,26
 388 23 388 23 388 53 c 0,27,28
 388 65 388 65 394 91 c 1,29,30
 356 41 356 41 304.5 15.5 c 128,-1,31
 253 -10 253 -10 201 -10 c 0,0,1
261 104 m 0,32,33
 278 104 278 104 297.5 110.5 c 128,-1,34
 317 117 317 117 335 129 c 128,-1,35
 353 141 353 141 369 157 c 128,-1,36
 385 173 385 173 396 192 c 1,37,-1
 422 317 l 1,38,39
 416 361 416 361 387 390 c 128,-1,40
 358 419 358 419 320 419 c 0,41,42
 288 419 288 419 258 402.5 c 128,-1,43
 228 386 228 386 205.5 358.5 c 128,-1,44
 183 331 183 331 169.5 296.5 c 128,-1,45
 156 262 156 262 156 226 c 0,46,47
 156 174 156 174 184 139 c 128,-1,48
 212 104 212 104 261 104 c 0,32,33
EndSplineSet
Substitution2: "'ss02' Style Set 2 in Latin lookup 9 subtable" a.alt2
Substitution2: "'ss01' Style Set 1 in Latin lookup 8 subtable" a.alt
Substitution2: "'salt' Stylistic Alternatives in Latin lookup 5 subtable" a.alt
Substitution2: "'smcp' Lowercase to Small Capitals in Latin lookup 2 subtable" A.sc
AlternateSubs2: "'aalt' Access All Alternates in Latin lookup 1 subtable" A.sc a.alt a.alt2
EndChar

StartChar: b
Encoding: 98 98 70
Width: 612
GlyphClass: 2
Flags: W
LayerCount: 2
Fore
SplineSet
282 -10 m 0,0,1
 223 -10 223 -10 185 17 c 128,-1,2
 147 44 147 44 132 91 c 1,3,-1
 113 0 l 1,4,-1
 -4 0 l 1,5,-1
 151 730 l 1,6,-1
 285 730 l 1,7,-1
 221 432 l 1,8,9
 256 478 256 478 305.5 505.5 c 128,-1,10
 355 533 355 533 409 533 c 0,11,12
 451 533 451 533 482.5 516.5 c 128,-1,13
 514 500 514 500 536 471 c 128,-1,14
 558 442 558 442 569 403.5 c 128,-1,15
 580 365 580 365 580 321 c 0,16,17
 580 253 580 253 555 193 c 128,-1,18
 530 133 530 133 488.5 88 c 128,-1,19
 447 43 447 43 393 16.5 c 128,-1,20
 339 -10 339 -10 282 -10 c 0,0,1
272 104 m 0,21,22
 304 104 304 104 334 119.5 c 128,-1,23
 364 135 364 135 387.5 161.5 c 128,-1,24
 411 188 411 188 425 222.5 c 128,-1,25
 439 257 439 257 439 295 c 0,26,27
 439 320 439 320 432.5 342.5 c 128,-1,28
 426 365 426 365 414 382 c 128,-1,29
 402 399 402 399 384 409 c 128,-1,30
 366 419 366 419 343 419 c 0,31,32
 302 419 302 419 262.5 389.5 c 128,-1,33
 223 360 223 360 197 317 c 1,34,-1
 170 192 l 1,35,36
 176 154 176 154 203.5 129 c 128,-1,37
 231 104 231 104 272 104 c 0,21,22
EndSplineSet
Substitution2: "'smcp' Lowercase to Small Capitals in Latin lookup 2 subtable" B.sc
Substitution2: "'aalt' Access All Alternates in Latin lookup 0 subtable" B.sc
EndChar

StartChar: c
Encoding: 99 99 71
Width: 542
GlyphClass: 2
Flags: W
LayerCount: 2
Fore
SplineSet
228 -10 m 0,0,1
 176 -10 176 -10 136 7.5 c 128,-1,2
 96 25 96 25 69 55 c 128,-1,3
 42 85 42 85 28.5 125 c 128,-1,4
 15 165 15 165 15 210 c 0,5,6
 15 272 15 272 39.5 330.5 c 128,-1,7
 64 389 64 389 107.5 434 c 128,-1,8
 151 479 151 479 211.5 506 c 128,-1,9
 272 533 272 533 343 533 c 0,10,11
 426 533 426 533 475.5 496 c 128,-1,12
 525 459 525 459 541 399 c 1,13,-1
 403 359 l 1,14,15
 393 388 393 388 371 403.5 c 128,-1,16
 349 419 349 419 317 419 c 0,17,18
 286 419 286 419 256.5 404.5 c 128,-1,19
 227 390 227 390 204.5 364 c 128,-1,20
 182 338 182 338 168 302.5 c 128,-1,21
 154 267 154 267 154 226 c 0,22,23
 154 172 154 172 180.5 138 c 128,-1,24
 207 104 207 104 251 104 c 0,25,26
 283 104 283 104 314.5 122 c 128,-1,27
 346 140 346 140 363 166 c 1,28,-1
 485 126 l 1,29,30
 446 66 446 66 379 28 c 128,-1,31
 312 -10 312 -10 228 -10 c 0,0,1
EndSplineSet
Substitution2: "'smcp' Lowercase to Small Capitals in Latin lookup 2 subtable" C.sc
Substitution2: "'aalt' Access All Alternates in Latin lookup 0 subtable" C.sc
EndChar

StartChar: d
Encoding: 100 100 72
Width: 624
GlyphClass: 2
Flags: W
LayerCount: 2
Fore
SplineSet
201 -10 m 0,0,1
 157 -10 157 -10 122.5 6.5 c 128,-1,2
 88 23 88 23 64 52 c 128,-1,3
 40 81 40 81 27.5 120.5 c 128,-1,4
 15 160 15 160 15 205 c 0,5,6
 15 270 15 270 38.5 329.5 c 128,-1,7
 62 389 62 389 101.5 434 c 128,-1,8
 141 479 141 479 193 506 c 128,-1,9
 245 533 245 533 302 533 c 0,10,11
 356 533 356 533 394 505 c 128,-1,12
 432 477 432 477 446 432 c 1,13,-1
 510 730 l 1,14,-1
 644 730 l 1,15,-1
 522 154 l 2,16,17
 519 143 519 143 519 136 c 0,18,19
 519 115 519 115 543 114 c 1,20,-1
 519 0 l 1,21,22
 501 -3 501 -3 487.5 -5 c 128,-1,23
 474 -7 474 -7 464 -7 c 0,24,25
 429 -7 429 -7 408.5 7 c 128,-1,26
 388 21 388 21 388 50 c 0,27,28
 388 58 388 58 389.5 67.5 c 128,-1,29
 391 77 391 77 394 91 c 1,30,31
 356 41 356 41 304.5 15.5 c 128,-1,32
 253 -10 253 -10 201 -10 c 0,0,1
261 104 m 0,33,34
 278 104 278 104 297.5 110.5 c 128,-1,35
 317 117 317 117 335 129 c 128,-1,36
 353 141 353 141 369 157 c 128,-1,37
 385 173 385 173 396 192 c 1,38,-1
 422 317 l 1,39,40
 416 361 416 361 387 390 c 128,-1,41
 358 419 358 419 320 419 c 0,42,43
 288 419 288 419 258 402.5 c 128,-1,44
 228 386 228 386 205.5 358.5 c 128,-1,45
 183 331 183 331 169.5 296.5 c 128,-1,46
 156 262 156 262 156 226 c 0,47,48
 156 174 156 174 184 139 c 128,-1,49
 212 104 212 104 261 104 c 0,33,34
EndSplineSet
Substitution2: "'ss01' Style Set 1 in Latin lookup 8 subtable" d.alt
Substitution2: "'salt' Stylistic Alternatives in Latin lookup 5 subtable" d.alt
Substitution2: "'smcp' Lowercase to Small Capitals in Latin lookup 2 subtable" D.sc
AlternateSubs2: "'aalt' Access All Alternates in Latin lookup 1 subtable" D.sc d.alt
EndChar

StartChar: e
Encoding: 101 101 73
Width: 551
GlyphClass: 2
Flags: W
LayerCount: 2
Fore
SplineSet
230 -10 m 0,0,1
 180 -10 180 -10 140.5 6.5 c 128,-1,2
 101 23 101 23 73 52.5 c 128,-1,3
 45 82 45 82 30.5 122.5 c 128,-1,4
 16 163 16 163 16 211 c 0,5,6
 16 276 16 276 41.5 334.5 c 128,-1,7
 67 393 67 393 111.5 437 c 128,-1,8
 156 481 156 481 216.5 507 c 128,-1,9
 277 533 277 533 347 533 c 0,10,11
 432 533 432 533 482.5 495.5 c 128,-1,12
 533 458 533 458 533 387 c 0,13,14
 533 218 533 218 231 218 c 0,15,16
 213 218 213 218 194 218 c 128,-1,17
 175 218 175 218 154 220 c 1,18,-1
 154 207 l 2,19,20
 154 154 154 154 178 121 c 128,-1,21
 202 88 202 88 254 88 c 0,22,23
 294 88 294 88 329.5 107 c 128,-1,24
 365 126 365 126 386 160 c 1,25,-1
 492 127 l 1,26,27
 472 97 472 97 443 71.5 c 128,-1,28
 414 46 414 46 379.5 28 c 128,-1,29
 345 10 345 10 307 0 c 128,-1,30
 269 -10 269 -10 230 -10 c 0,0,1
327 436 m 0,31,32
 298 436 298 436 273 425.5 c 128,-1,33
 248 415 248 415 228.5 397 c 128,-1,34
 209 379 209 379 194 355 c 128,-1,35
 179 331 179 331 170 304 c 1,36,37
 186 303 186 303 201 303 c 128,-1,38
 216 303 216 303 232 303 c 0,39,40
 280 303 280 303 313.5 308 c 128,-1,41
 347 313 347 313 367.5 323 c 128,-1,42
 388 333 388 333 397 346.5 c 128,-1,43
 406 360 406 360 406 378 c 0,44,45
 406 407 406 407 384 421.5 c 128,-1,46
 362 436 362 436 327 436 c 0,31,32
EndSplineSet
Substitution2: "'smcp' Lowercase to Small Capitals in Latin lookup 2 subtable" E.sc
Substitution2: "'aalt' Access All Alternates in Latin lookup 0 subtable" E.sc
EndChar

StartChar: f
Encoding: 102 102 74
Width: 361
GlyphClass: 2
Flags: W
LayerCount: 2
Fore
SplineSet
108 394 m 1,0,-1
 44 394 l 1,1,-1
 66 496 l 1,2,-1
 130 496 l 1,3,-1
 137 528 l 2,4,5
 147 577 147 577 167 616 c 128,-1,6
 187 655 187 655 215 682.5 c 128,-1,7
 243 710 243 710 277.5 725 c 128,-1,8
 312 740 312 740 350 740 c 0,9,10
 411 740 411 740 468 709 c 1,11,-1
 421 608 l 1,12,13
 408 616 408 616 390 621.5 c 128,-1,14
 372 627 372 627 356 627 c 0,15,16
 292 627 292 627 272 533 c 2,17,-1
 264 496 l 1,18,-1
 384 496 l 1,19,-1
 362 394 l 1,20,-1
 242 394 l 1,21,-1
 113 -212 l 1,22,-1
 -21 -212 l 1,23,-1
 108 394 l 1,0,-1
EndSplineSet
Substitution2: "'smcp' Lowercase to Small Capitals in Latin lookup 2 subtable" F.sc
Substitution2: "'aalt' Access All Alternates in Latin lookup 0 subtable" F.sc
EndChar

StartChar: g
Encoding: 103 103 75
Width: 611
GlyphClass: 2
Flags: W
LayerCount: 2
Fore
SplineSet
162 -223 m 0,0,1
 80 -223 80 -223 29.5 -194.5 c 128,-1,2
 -21 -166 -21 -166 -50 -114 c 1,3,-1
 38 -43 l 1,4,5
 58 -80 58 -80 96 -101 c 128,-1,6
 134 -122 134 -122 183 -122 c 0,7,8
 212 -122 212 -122 240.5 -113.5 c 128,-1,9
 269 -105 269 -105 292.5 -87 c 128,-1,10
 316 -69 316 -69 333.5 -41 c 128,-1,11
 351 -13 351 -13 359 25 c 2,12,-1
 373 91 l 1,13,14
 339 46 339 46 290 21.5 c 128,-1,15
 241 -3 241 -3 190 -3 c 0,16,17
 148 -3 148 -3 116 13.5 c 128,-1,18
 84 30 84 30 61.5 58 c 128,-1,19
 39 86 39 86 27.5 124 c 128,-1,20
 16 162 16 162 16 206 c 0,21,22
 16 271 16 271 40 330.5 c 128,-1,23
 64 390 64 390 104.5 435 c 128,-1,24
 145 480 145 480 198.5 506.5 c 128,-1,25
 252 533 252 533 312 533 c 0,26,27
 370 533 370 533 407.5 505.5 c 128,-1,28
 445 478 445 478 463 432 c 1,29,-1
 482 524 l 1,30,-1
 600 524 l 1,31,-1
 493 25 l 2,32,33
 481 -33 481 -33 450.5 -79 c 128,-1,34
 420 -125 420 -125 376 -157 c 128,-1,35
 332 -189 332 -189 277.5 -206 c 128,-1,36
 223 -223 223 -223 162 -223 c 0,0,1
259 104 m 0,37,38
 298 104 298 104 335.5 130 c 128,-1,39
 373 156 373 156 395 192 c 1,40,-1
 421 317 l 1,41,42
 414 363 414 363 385 391 c 128,-1,43
 356 419 356 419 318 419 c 0,44,45
 285 419 285 419 255.5 402 c 128,-1,46
 226 385 226 385 203.5 357.5 c 128,-1,47
 181 330 181 330 168 295.5 c 128,-1,48
 155 261 155 261 155 226 c 0,49,50
 155 200 155 200 162.5 178 c 128,-1,51
 170 156 170 156 183.5 139.5 c 128,-1,52
 197 123 197 123 216 113.5 c 128,-1,53
 235 104 235 104 259 104 c 0,37,38
EndSplineSet
Substitution2: "'smcp' Lowercase to Small Capitals in Latin lookup 2 subtable" G.sc
Substitution2: "'aalt' Access All Alternates in Latin lookup 0 subtable" G.sc
EndChar

StartChar: h
Encoding: 104 104 76
Width: 582
GlyphClass: 2
Flags: W
LayerCount: 2
Fore
SplineSet
151 730 m 1,0,-1
 285 730 l 1,1,-1
 220 427 l 1,2,3
 259 478 259 478 311 505.5 c 128,-1,4
 363 533 363 533 420 533 c 0,5,6
 455 533 455 533 478.5 523.5 c 128,-1,7
 502 514 502 514 516.5 497.5 c 128,-1,8
 531 481 531 481 537 458.5 c 128,-1,9
 543 436 543 436 543 410 c 0,10,11
 543 390 543 390 540.5 369 c 128,-1,12
 538 348 538 348 533 327 c 2,13,-1
 464 0 l 1,14,-1
 330 0 l 1,15,-1
 392 294 l 2,16,17
 398 322 398 322 398 343 c 0,18,19
 398 415 398 415 337 415 c 0,20,21
 321 415 321 415 301 407 c 128,-1,22
 281 399 281 399 261.5 384.5 c 128,-1,23
 242 370 242 370 224.5 350 c 128,-1,24
 207 330 207 330 195 306 c 1,25,-1
 130 0 l 1,26,-1
 -4 0 l 1,27,-1
 151 730 l 1,0,-1
EndSplineSet
Substitution2: "'smcp' Lowercase to Small Capitals in Latin lookup 2 subtable" H.sc
Substitution2: "'aalt' Access All Alternates in Latin lookup 0 subtable" H.sc
EndChar

StartChar: i
Encoding: 105 105 77
Width: 253
GlyphClass: 2
Flags: W
LayerCount: 2
Fore
SplineSet
107 524 m 1,0,-1
 241 524 l 1,1,-1
 130 0 l 1,2,-1
 -4 0 l 1,3,-1
 107 524 l 1,0,-1
151 730 m 1,4,-1
 285 730 l 1,5,-1
 257 597 l 1,6,-1
 123 597 l 1,7,-1
 151 730 l 1,4,-1
EndSplineSet
Substitution2: "'smcp' Lowercase to Small Capitals in Latin lookup 2 subtable" I.sc
Substitution2: "'aalt' Access All Alternates in Latin lookup 0 subtable" I.sc
EndChar

StartChar: j
Encoding: 106 106 78
Width: 258
GlyphClass: 2
Flags: W
LayerCount: 2
Fore
SplineSet
-83 -196 m 0,0,1
 -119 -196 -119 -196 -149.5 -184.5 c 128,-1,2
 -180 -173 -180 -173 -201 -149 c 1,3,-1
 -125 -58 l 1,4,5
 -117 -69 -117 -69 -103.5 -74.5 c 128,-1,6
 -90 -80 -90 -80 -75 -80 c 0,7,8
 -51 -80 -51 -80 -30 -61.5 c 128,-1,9
 -9 -43 -9 -43 -3 -14 c 2,10,-1
 112 524 l 1,11,-1
 246 524 l 1,12,-1
 134 -4 l 2,13,14
 125 -46 125 -46 104 -81.5 c 128,-1,15
 83 -117 83 -117 53.5 -142.5 c 128,-1,16
 24 -168 24 -168 -11 -182 c 128,-1,17
 -46 -196 -46 -196 -83 -196 c 0,0,1
156 730 m 1,18,-1
 290 730 l 1,19,-1
 261 597 l 1,20,-1
 127 597 l 1,21,-1
 156 730 l 1,18,-1
EndSplineSet
Substitution2: "'ss01' Style Set 1 in Latin lookup 8 subtable" j.alt
Substitution2: "'salt' Stylistic Alternatives in Latin lookup 5 subtable" j.alt
Substitution2: "'smcp' Lowercase to Small Capitals in Latin lookup 2 subtable" J.sc
AlternateSubs2: "'aalt' Access All Alternates in Latin lookup 1 subtable" J.sc j.alt
EndChar

StartChar: k
Encoding: 107 107 79
Width: 560
GlyphClass: 2
Flags: W
LayerCount: 2
Fore
SplineSet
151 730 m 1,0,-1
 284 730 l 1,1,-1
 212 390 l 1,2,3
 254 453 254 453 307.5 492 c 128,-1,4
 361 531 361 531 426 531 c 0,5,6
 481 531 481 531 508 501 c 128,-1,7
 535 471 535 471 535 417 c 0,8,9
 535 352 535 352 496.5 296.5 c 128,-1,10
 458 241 458 241 384 205 c 1,11,-1
 482 0 l 1,12,-1
 340 0 l 1,13,-1
 238 237 l 1,14,15
 323 254 323 254 369 292 c 128,-1,16
 415 330 415 330 415 373 c 0,17,18
 415 396 415 396 402 407 c 128,-1,19
 389 418 389 418 369 418 c 0,20,21
 343 418 343 418 315.5 404 c 128,-1,22
 288 390 288 390 262.5 365 c 128,-1,23
 237 340 237 340 215 307 c 128,-1,24
 193 274 193 274 179 237 c 1,25,-1
 129 0 l 1,26,-1
 -4 0 l 1,27,-1
 151 730 l 1,0,-1
EndSplineSet
Substitution2: "'smcp' Lowercase to Small Capitals in Latin lookup 2 subtable" K.sc
Substitution2: "'aalt' Access All Alternates in Latin lookup 0 subtable" K.sc
EndChar

StartChar: l
Encoding: 108 108 80
Width: 309
GlyphClass: 2
Flags: W
LayerCount: 2
Fore
SplineSet
121 -8 m 0,0,1
 70 -8 70 -8 43 15.5 c 128,-1,2
 16 39 16 39 16 83 c 0,3,4
 16 92 16 92 17 101 c 128,-1,5
 18 110 18 110 20 121 c 2,6,-1
 150 730 l 1,7,-1
 283 730 l 1,8,-1
 164 168 l 2,9,10
 163 163 163 163 162.5 158 c 128,-1,11
 162 153 162 153 162 148 c 0,12,13
 162 107 162 107 203 107 c 0,14,15
 214 107 214 107 228.5 111 c 128,-1,16
 243 115 243 115 256 121 c 1,17,-1
 252 19 l 1,18,19
 223 6 223 6 186.5 -1 c 128,-1,20
 150 -8 150 -8 121 -8 c 0,0,1
EndSplineSet
Substitution2: "'ss01' Style Set 1 in Latin lookup 8 subtable" l.alt
Substitution2: "'salt' Stylistic Alternatives in Latin lookup 5 subtable" l.alt
Substitution2: "'smcp' Lowercase to Small Capitals in Latin lookup 2 subtable" L.sc
AlternateSubs2: "'aalt' Access All Alternates in Latin lookup 1 subtable" L.sc l.alt
EndChar

StartChar: m
Encoding: 109 109 81
Width: 892
GlyphClass: 2
Flags: W
LayerCount: 2
Fore
SplineSet
107 524 m 1,0,-1
 228 524 l 1,1,-1
 207 427 l 1,2,3
 245 477 245 477 299.5 505 c 128,-1,4
 354 533 354 533 411 533 c 0,5,6
 473 533 473 533 501 502.5 c 128,-1,7
 529 472 529 472 531 422 c 1,8,9
 573 476 573 476 626 504.5 c 128,-1,10
 679 533 679 533 736 533 c 0,11,12
 770 533 770 533 792.5 523.5 c 128,-1,13
 815 514 815 514 828.5 497.5 c 128,-1,14
 842 481 842 481 847.5 459 c 128,-1,15
 853 437 853 437 853 411 c 0,16,17
 853 395 853 395 851 374.5 c 128,-1,18
 849 354 849 354 843 327 c 2,19,-1
 773 0 l 1,20,-1
 639 0 l 1,21,-1
 701 294 l 2,22,23
 704 309 704 309 706 322.5 c 128,-1,24
 708 336 708 336 708 347 c 0,25,26
 708 382 708 382 693.5 398.5 c 128,-1,27
 679 415 679 415 654 415 c 0,28,29
 617 415 617 415 578.5 384 c 128,-1,30
 540 353 540 353 516 305 c 1,31,-1
 452 0 l 1,32,-1
 318 0 l 1,33,-1
 380 294 l 2,34,35
 386 325 386 325 386 348 c 0,36,37
 386 383 386 383 372 399 c 128,-1,38
 358 415 358 415 332 415 c 0,39,40
 314 415 314 415 295 407 c 128,-1,41
 276 399 276 399 257.5 384.5 c 128,-1,42
 239 370 239 370 223 350 c 128,-1,43
 207 330 207 330 195 306 c 1,44,-1
 130 0 l 1,45,-1
 -4 0 l 1,46,-1
 107 524 l 1,0,-1
EndSplineSet
Substitution2: "'smcp' Lowercase to Small Capitals in Latin lookup 2 subtable" M.sc
Substitution2: "'aalt' Access All Alternates in Latin lookup 0 subtable" M.sc
EndChar

StartChar: n
Encoding: 110 110 82
Width: 582
GlyphClass: 2
Flags: W
LayerCount: 2
Fore
SplineSet
107 524 m 1,0,-1
 228 524 l 1,1,-1
 207 427 l 1,2,3
 245 477 245 477 303 505 c 128,-1,4
 361 533 361 533 426 533 c 0,5,6
 460 533 460 533 482.5 523.5 c 128,-1,7
 505 514 505 514 518.5 498 c 128,-1,8
 532 482 532 482 537.5 459.5 c 128,-1,9
 543 437 543 437 543 412 c 0,10,11
 543 392 543 392 540.5 370.5 c 128,-1,12
 538 349 538 349 533 327 c 2,13,-1
 464 0 l 1,14,-1
 330 0 l 1,15,-1
 392 294 l 2,16,17
 395 309 395 309 397 322.5 c 128,-1,18
 399 336 399 336 399 347 c 0,19,20
 399 382 399 382 383.5 398.5 c 128,-1,21
 368 415 368 415 342 415 c 0,22,23
 324 415 324 415 303 407 c 128,-1,24
 282 399 282 399 262 384.5 c 128,-1,25
 242 370 242 370 224.5 350 c 128,-1,26
 207 330 207 330 195 306 c 1,27,-1
 130 0 l 1,28,-1
 -4 0 l 1,29,-1
 107 524 l 1,0,-1
EndSplineSet
Substitution2: "'smcp' Lowercase to Small Capitals in Latin lookup 2 subtable" N.sc
Substitution2: "'aalt' Access All Alternates in Latin lookup 0 subtable" N.sc
EndChar

StartChar: o
Encoding: 111 111 83
Width: 586
GlyphClass: 2
Flags: W
LayerCount: 2
Fore
SplineSet
227 -10 m 0,0,1
 174 -10 174 -10 134.5 7.5 c 128,-1,2
 95 25 95 25 68.5 55 c 128,-1,3
 42 85 42 85 28.5 124.5 c 128,-1,4
 15 164 15 164 15 208 c 0,5,6
 15 270 15 270 39.5 328.5 c 128,-1,7
 64 387 64 387 107.5 432.5 c 128,-1,8
 151 478 151 478 211 505.5 c 128,-1,9
 271 533 271 533 342 533 c 0,10,11
 394 533 394 533 433.5 515.5 c 128,-1,12
 473 498 473 498 500 468.5 c 128,-1,13
 527 439 527 439 540.5 399 c 128,-1,14
 554 359 554 359 554 314 c 0,15,16
 554 252 554 252 529.5 194 c 128,-1,17
 505 136 505 136 461.5 90.5 c 128,-1,18
 418 45 418 45 358 17.5 c 128,-1,19
 298 -10 298 -10 227 -10 c 0,0,1
251 104 m 0,20,21
 282 104 282 104 311.5 119.5 c 128,-1,22
 341 135 341 135 364 161 c 128,-1,23
 387 187 387 187 401 222.5 c 128,-1,24
 415 258 415 258 415 298 c 0,25,26
 415 352 415 352 389 385.5 c 128,-1,27
 363 419 363 419 318 419 c 0,28,29
 287 419 287 419 257.5 403.5 c 128,-1,30
 228 388 228 388 205 361.5 c 128,-1,31
 182 335 182 335 168 300 c 128,-1,32
 154 265 154 265 154 225 c 0,33,34
 154 171 154 171 180 137.5 c 128,-1,35
 206 104 206 104 251 104 c 0,20,21
EndSplineSet
Substitution2: "'smcp' Lowercase to Small Capitals in Latin lookup 2 subtable" O.sc
Substitution2: "'aalt' Access All Alternates in Latin lookup 0 subtable" O.sc
EndChar

StartChar: p
Encoding: 112 112 84
Width: 612
GlyphClass: 2
Flags: W
LayerCount: 2
Fore
SplineSet
107 524 m 1,0,-1
 224 524 l 1,1,-1
 205 434 l 1,2,3
 243 480 243 480 291.5 506.5 c 128,-1,4
 340 533 340 533 397 533 c 0,5,6
 439 533 439 533 473 516.5 c 128,-1,7
 507 500 507 500 530.5 470.5 c 128,-1,8
 554 441 554 441 566.5 402 c 128,-1,9
 579 363 579 363 579 318 c 0,10,11
 579 253 579 253 556 194 c 128,-1,12
 533 135 533 135 494 89.5 c 128,-1,13
 455 44 455 44 403.5 17 c 128,-1,14
 352 -10 352 -10 296 -10 c 0,15,16
 239 -10 239 -10 201 17.5 c 128,-1,17
 163 45 163 45 149 92 c 1,18,-1
 84 -213 l 1,19,-1
 -50 -213 l 1,20,-1
 107 524 l 1,0,-1
276 104 m 0,21,22
 308 104 308 104 337.5 120.5 c 128,-1,23
 367 137 367 137 389.5 164 c 128,-1,24
 412 191 412 191 425.5 225.5 c 128,-1,25
 439 260 439 260 439 296 c 0,26,27
 439 349 439 349 411 384 c 128,-1,28
 383 419 383 419 335 419 c 0,29,30
 317 419 317 419 298 412.5 c 128,-1,31
 279 406 279 406 261 394 c 128,-1,32
 243 382 243 382 227 366 c 128,-1,33
 211 350 211 350 200 331 c 1,34,-1
 173 208 l 1,35,36
 181 163 181 163 209 133.5 c 128,-1,37
 237 104 237 104 276 104 c 0,21,22
EndSplineSet
Substitution2: "'smcp' Lowercase to Small Capitals in Latin lookup 2 subtable" P.sc
Substitution2: "'aalt' Access All Alternates in Latin lookup 0 subtable" P.sc
EndChar

StartChar: q
Encoding: 113 113 85
Width: 611
GlyphClass: 2
Flags: W
LayerCount: 2
Fore
SplineSet
183 -10 m 0,0,1
 143 -10 143 -10 112 6.5 c 128,-1,2
 81 23 81 23 59.5 51.5 c 128,-1,3
 38 80 38 80 26.5 118.5 c 128,-1,4
 15 157 15 157 15 202 c 0,5,6
 15 270 15 270 40 330 c 128,-1,7
 65 390 65 390 106.5 435 c 128,-1,8
 148 480 148 480 202 506.5 c 128,-1,9
 256 533 256 533 313 533 c 256,10,11
 370 533 370 533 408 505.5 c 128,-1,12
 446 478 446 478 463 433 c 1,13,-1
 482 524 l 1,14,-1
 599 524 l 1,15,-1
 477 -52 l 2,16,17
 476 -57 476 -57 475.5 -61 c 128,-1,18
 475 -65 475 -65 475 -69 c 0,19,20
 475 -91 475 -91 504 -92 c 1,21,-1
 480 -206 l 1,22,23
 463 -209 463 -209 443.5 -210.5 c 128,-1,24
 424 -212 424 -212 408 -212 c 0,25,26
 372 -212 372 -212 349 -193 c 128,-1,27
 326 -174 326 -174 326 -141 c 0,28,29
 326 -136 326 -136 326.5 -131 c 128,-1,30
 327 -126 327 -126 328 -121 c 2,31,-1
 373 92 l 1,32,33
 335 41 335 41 286.5 15.5 c 128,-1,34
 238 -10 238 -10 183 -10 c 0,0,1
257 104 m 0,35,36
 296 104 296 104 330.5 128 c 128,-1,37
 365 152 365 152 394 190 c 1,38,-1
 421 314 l 1,39,40
 419 336 419 336 410.5 355 c 128,-1,41
 402 374 402 374 388.5 388.5 c 128,-1,42
 375 403 375 403 357.5 411 c 128,-1,43
 340 419 340 419 321 419 c 0,44,45
 289 419 289 419 259 402.5 c 128,-1,46
 229 386 229 386 206 359 c 128,-1,47
 183 332 183 332 169 297 c 128,-1,48
 155 262 155 262 155 225 c 0,49,50
 155 173 155 173 182 138.5 c 128,-1,51
 209 104 209 104 257 104 c 0,35,36
EndSplineSet
Substitution2: "'ss01' Style Set 1 in Latin lookup 8 subtable" q.alt
Substitution2: "'salt' Stylistic Alternatives in Latin lookup 5 subtable" q.alt
Substitution2: "'smcp' Lowercase to Small Capitals in Latin lookup 2 subtable" Q.sc
AlternateSubs2: "'aalt' Access All Alternates in Latin lookup 1 subtable" Q.sc q.alt
EndChar

StartChar: r
Encoding: 114 114 86
Width: 378
GlyphClass: 2
Flags: W
LayerCount: 2
Fore
SplineSet
107 524 m 1,0,-1
 230 524 l 1,1,-1
 206 412 l 1,2,3
 244 466 244 466 291 497.5 c 128,-1,4
 338 529 338 529 385 529 c 0,5,6
 395 529 395 529 400 528.5 c 128,-1,7
 405 528 405 528 409 527 c 1,8,-1
 384 408 l 1,9,10
 327 407 327 407 276.5 384.5 c 128,-1,11
 226 362 226 362 197 317 c 1,12,-1
 130 0 l 1,13,-1
 -4 0 l 1,14,-1
 107 524 l 1,0,-1
EndSplineSet
Substitution2: "'smcp' Lowercase to Small Capitals in Latin lookup 2 subtable" R.sc
Substitution2: "'aalt' Access All Alternates in Latin lookup 0 subtable" R.sc
EndChar

StartChar: s
Encoding: 115 115 87
Width: 480
GlyphClass: 2
Flags: W
LayerCount: 2
Fore
SplineSet
184 -10 m 0,0,1
 121 -10 121 -10 65 11 c 128,-1,2
 9 32 9 32 -25 71 c 1,3,-1
 42 155 l 1,4,5
 119 86 119 86 201 86 c 0,6,7
 243 86 243 86 267 104 c 128,-1,8
 291 122 291 122 291 154 c 0,9,10
 291 176 291 176 269.5 188.5 c 128,-1,11
 248 201 248 201 200 215 c 0,12,13
 160 227 160 227 131.5 238.5 c 128,-1,14
 103 250 103 250 84.5 264 c 128,-1,15
 66 278 66 278 57.5 295.5 c 128,-1,16
 49 313 49 313 49 336 c 0,17,18
 49 380 49 380 68 416.5 c 128,-1,19
 87 453 87 453 119.5 479 c 128,-1,20
 152 505 152 505 195 519.5 c 128,-1,21
 238 534 238 534 286 534 c 0,22,23
 342 534 342 534 387 517 c 128,-1,24
 432 500 432 500 467 462 c 1,25,-1
 396 381 l 1,26,27
 364 411 364 411 331.5 425 c 128,-1,28
 299 439 299 439 265 439 c 0,29,30
 230 439 230 439 204.5 422 c 128,-1,31
 179 405 179 405 179 370 c 0,32,33
 179 349 179 349 198 338 c 128,-1,34
 217 327 217 327 262 314 c 0,35,36
 346 291 346 291 386 262.5 c 128,-1,37
 426 234 426 234 426 184 c 0,38,39
 426 141 426 141 408 105.5 c 128,-1,40
 390 70 390 70 358 44.5 c 128,-1,41
 326 19 326 19 281.5 4.5 c 128,-1,42
 237 -10 237 -10 184 -10 c 0,0,1
EndSplineSet
Substitution2: "'smcp' Lowercase to Small Capitals in Latin lookup 2 subtable" S.sc
Substitution2: "'aalt' Access All Alternates in Latin lookup 0 subtable" S.sc
EndChar

StartChar: t
Encoding: 116 116 88
Width: 373
GlyphClass: 2
Flags: W
LayerCount: 2
Fore
SplineSet
156 -9 m 0,0,1
 108 -9 108 -9 77.5 12.5 c 128,-1,2
 47 34 47 34 47 83 c 0,3,4
 47 103 47 103 51 120 c 2,5,-1
 115 421 l 1,6,-1
 50 421 l 1,7,-1
 72 524 l 1,8,-1
 136 524 l 1,9,-1
 172 694 l 1,10,-1
 306 694 l 1,11,-1
 270 524 l 1,12,-1
 375 524 l 1,13,-1
 353 421 l 1,14,-1
 249 421 l 1,15,-1
 194 165 l 2,16,17
 193 160 193 160 192.5 156.5 c 128,-1,18
 192 153 192 153 192 149 c 0,19,20
 192 130 192 130 202.5 122 c 128,-1,21
 213 114 213 114 230 114 c 0,22,23
 250 114 250 114 269.5 120.5 c 128,-1,24
 289 127 289 127 303 133 c 1,25,-1
 307 27 l 1,26,27
 278 13 278 13 237 2 c 128,-1,28
 196 -9 196 -9 156 -9 c 0,0,1
EndSplineSet
Substitution2: "'ss01' Style Set 1 in Latin lookup 8 subtable" t.alt
Substitution2: "'salt' Stylistic Alternatives in Latin lookup 5 subtable" t.alt
Substitution2: "'smcp' Lowercase to Small Capitals in Latin lookup 2 subtable" T.sc
AlternateSubs2: "'aalt' Access All Alternates in Latin lookup 1 subtable" T.sc t.alt
EndChar

StartChar: u
Encoding: 117 117 89
Width: 595
GlyphClass: 2
Flags: W
LayerCount: 2
Fore
SplineSet
145 -10 m 0,0,1
 22 -10 22 -10 22 118 c 0,2,3
 22 135 22 135 24.5 154.5 c 128,-1,4
 27 174 27 174 32 196 c 2,5,-1
 102 524 l 1,6,-1
 235 524 l 1,7,-1
 172 225 l 2,8,9
 169 210 169 210 167 198 c 128,-1,10
 165 186 165 186 165 175 c 0,11,12
 165 104 165 104 225 104 c 0,13,14
 260 104 260 104 298.5 127.5 c 128,-1,15
 337 151 337 151 369 199 c 1,16,-1
 438 524 l 1,17,-1
 572 524 l 1,18,-1
 493 154 l 2,19,20
 492 149 492 149 491.5 144.5 c 128,-1,21
 491 140 491 140 491 136 c 0,22,23
 491 115 491 115 515 114 c 1,24,-1
 491 0 l 1,25,26
 473 -3 473 -3 459.5 -5 c 128,-1,27
 446 -7 446 -7 435 -7 c 0,28,29
 400 -7 400 -7 380.5 7 c 128,-1,30
 361 21 361 21 361 50 c 0,31,32
 361 58 361 58 362 68 c 128,-1,33
 363 78 363 78 368 98 c 1,34,35
 323 44 323 44 265.5 17 c 128,-1,36
 208 -10 208 -10 145 -10 c 0,0,1
EndSplineSet
Substitution2: "'smcp' Lowercase to Small Capitals in Latin lookup 2 subtable" U.sc
Substitution2: "'aalt' Access All Alternates in Latin lookup 0 subtable" U.sc
EndChar

StartChar: v
Encoding: 118 118 90
Width: 526
GlyphClass: 2
Flags: W
LayerCount: 2
Fore
SplineSet
50 524 m 1,0,-1
 189 524 l 1,1,-1
 221 109 l 1,2,3
 257 164 257 164 286.5 215 c 128,-1,4
 316 266 316 266 340.5 316.5 c 128,-1,5
 365 367 365 367 384.5 417.5 c 128,-1,6
 404 468 404 468 420 524 c 1,7,-1
 543 524 l 1,8,9
 507 393 507 393 434.5 262 c 128,-1,10
 362 131 362 131 260 0 c 1,11,-1
 120 0 l 1,12,-1
 50 524 l 1,0,-1
EndSplineSet
Substitution2: "'smcp' Lowercase to Small Capitals in Latin lookup 2 subtable" V.sc
Substitution2: "'aalt' Access All Alternates in Latin lookup 0 subtable" V.sc
EndChar

StartChar: w
Encoding: 119 119 91
Width: 790
GlyphClass: 2
Flags: W
LayerCount: 2
Fore
SplineSet
42 524 m 1,0,-1
 173 524 l 1,1,-1
 236 120 l 1,2,3
 245 131 245 131 257 150.5 c 128,-1,4
 269 170 269 170 281 191 c 128,-1,5
 293 212 293 212 304.5 231.5 c 128,-1,6
 316 251 316 251 323 262 c 1,7,-1
 267 524 l 1,8,-1
 384 524 l 1,9,-1
 410 362 l 1,10,11
 416 373 416 373 426.5 395.5 c 128,-1,12
 437 418 437 418 448 442.5 c 128,-1,13
 459 467 459 467 468 489.5 c 128,-1,14
 477 512 477 512 480 524 c 1,15,-1
 589 524 l 1,16,17
 565 453 565 453 534.5 390 c 128,-1,18
 504 327 504 327 462 263 c 1,19,-1
 488 143 l 1,20,21
 528 197 528 197 559 243 c 128,-1,22
 590 289 590 289 614 333.5 c 128,-1,23
 638 378 638 378 657.5 424 c 128,-1,24
 677 470 677 470 696 524 c 1,25,-1
 819 524 l 1,26,27
 774 393 774 393 694.5 262 c 128,-1,28
 615 131 615 131 504 0 c 1,29,-1
 403 0 l 1,30,-1
 374 171 l 1,31,32
 367 161 367 161 352 136.5 c 128,-1,33
 337 112 337 112 320.5 85 c 128,-1,34
 304 58 304 58 288.5 34 c 128,-1,35
 273 10 273 10 265 0 c 1,36,-1
 143 0 l 1,37,-1
 42 524 l 1,0,-1
EndSplineSet
Substitution2: "'ss01' Style Set 1 in Latin lookup 8 subtable" w.alt
Substitution2: "'salt' Stylistic Alternatives in Latin lookup 5 subtable" w.alt
Substitution2: "'smcp' Lowercase to Small Capitals in Latin lookup 2 subtable" W.sc
AlternateSubs2: "'aalt' Access All Alternates in Latin lookup 1 subtable" W.sc w.alt
EndChar

StartChar: x
Encoding: 120 120 92
Width: 511
GlyphClass: 2
Flags: W
LayerCount: 2
Fore
SplineSet
175 261 m 1,0,-1
 55 524 l 1,1,-1
 192 524 l 1,2,-1
 259 360 l 1,3,-1
 264 342 l 1,4,-1
 276 360 l 1,5,-1
 415 524 l 1,6,-1
 552 524 l 1,7,-1
 320 261 l 1,8,-1
 443 0 l 1,9,-1
 305 0 l 1,10,-1
 235 163 l 1,11,-1
 230 180 l 1,12,-1
 218 163 l 1,13,-1
 78 0 l 1,14,-1
 -60 0 l 1,15,-1
 175 261 l 1,0,-1
EndSplineSet
Substitution2: "'smcp' Lowercase to Small Capitals in Latin lookup 2 subtable" X.sc
Substitution2: "'aalt' Access All Alternates in Latin lookup 0 subtable" X.sc
EndChar

StartChar: y
Encoding: 121 121 93
Width: 520
GlyphClass: 2
Flags: W
LayerCount: 2
Fore
SplineSet
-44 -126 m 1,0,1
 -14 -123 -14 -123 7.5 -119 c 128,-1,2
 29 -115 29 -115 45.5 -106.5 c 128,-1,3
 62 -98 62 -98 76 -84.5 c 128,-1,4
 90 -71 90 -71 105 -50 c 2,5,-1
 134 -11 l 1,6,-1
 47 524 l 1,7,-1
 184 524 l 1,8,-1
 229 116 l 1,9,-1
 263 172 l 2,10,11
 294 223 294 223 317 267.5 c 128,-1,12
 340 312 340 312 358 354 c 128,-1,13
 376 396 376 396 389 437.5 c 128,-1,14
 402 479 402 479 413 524 c 1,15,-1
 543 524 l 1,16,17
 529 476 529 476 514 434 c 128,-1,18
 499 392 499 392 476 345 c 128,-1,19
 453 298 453 298 419.5 240.5 c 128,-1,20
 386 183 386 183 337 103 c 2,21,-1
 257 -26 l 2,22,23
 222 -82 222 -82 189.5 -120.5 c 128,-1,24
 157 -159 157 -159 123.5 -183 c 128,-1,25
 90 -207 90 -207 53 -217.5 c 128,-1,26
 16 -228 16 -228 -28 -229 c 1,27,-1
 -44 -126 l 1,0,1
EndSplineSet
Substitution2: "'ss01' Style Set 1 in Latin lookup 8 subtable" y.alt
Substitution2: "'salt' Stylistic Alternatives in Latin lookup 5 subtable" y.alt
Substitution2: "'smcp' Lowercase to Small Capitals in Latin lookup 2 subtable" Y.sc
AlternateSubs2: "'aalt' Access All Alternates in Latin lookup 1 subtable" Y.sc y.alt
EndChar

StartChar: z
Encoding: 122 122 94
Width: 471
GlyphClass: 2
Flags: W
LayerCount: 2
Fore
SplineSet
-21 82 m 1,0,-1
 321 430 l 1,1,-1
 65 430 l 1,2,-1
 85 524 l 1,3,-1
 485 524 l 1,4,-1
 467 442 l 1,5,-1
 126 94 l 1,6,-1
 398 94 l 1,7,-1
 378 0 l 1,8,-1
 -38 0 l 1,9,-1
 -21 82 l 1,0,-1
EndSplineSet
Substitution2: "'smcp' Lowercase to Small Capitals in Latin lookup 2 subtable" Z.sc
Substitution2: "'aalt' Access All Alternates in Latin lookup 0 subtable" Z.sc
EndChar

StartChar: braceleft
Encoding: 123 123 95
Width: 308
GlyphClass: 2
Flags: W
LayerCount: 2
Fore
SplineSet
281 633 m 1,0,-1
 238 429 l 2,1,2
 233 409 233 409 220 391.5 c 128,-1,3
 207 374 207 374 189 360 c 1,4,5
 198 349 198 349 204 336 c 128,-1,6
 210 323 210 323 210 307 c 0,7,8
 210 302 210 302 209.5 298.5 c 128,-1,9
 209 295 209 295 208 291 c 2,10,-1
 163 76 l 1,11,-1
 215 76 l 1,12,-1
 192 -31 l 1,13,-1
 41 -31 l 2,14,15
 36 -31 36 -31 30.5 -27 c 128,-1,16
 25 -23 25 -23 25 -12 c 0,17,18
 25 -5 25 -5 26 -1 c 2,19,-1
 78 247 l 2,20,21
 79 251 79 251 79.5 254.5 c 128,-1,22
 80 258 80 258 80 263 c 0,23,24
 80 283 80 283 69.5 297 c 128,-1,25
 59 311 59 311 44 314 c 1,26,-1
 64 408 l 1,27,28
 74 408 74 408 84.5 414 c 128,-1,29
 95 420 95 420 103.5 430 c 128,-1,30
 112 440 112 440 118.5 451 c 128,-1,31
 125 462 125 462 127 473 c 2,32,-1
 177 710 l 2,33,34
 181 729 181 729 190.5 734.5 c 128,-1,35
 200 740 200 740 205 740 c 2,36,-1
 356 740 l 1,37,-1
 333 633 l 1,38,-1
 281 633 l 1,0,-1
EndSplineSet
EndChar

StartChar: bar
Encoding: 124 124 96
Width: 327
GlyphClass: 2
Flags: W
LayerCount: 2
Fore
SplineSet
112 -130 m 1,0,-1
 112 775 l 1,1,-1
 226 775 l 1,2,-1
 226 -130 l 1,3,-1
 112 -130 l 1,0,-1
EndSplineSet
EndChar

StartChar: braceright
Encoding: 125 125 97
Width: 309
GlyphClass: 2
Flags: W
LayerCount: 2
Fore
SplineSet
118 633 m 1,0,-1
 141 740 l 1,1,-1
 291 740 l 2,2,3
 296 740 296 740 302 736 c 128,-1,4
 308 732 308 732 308 719 c 0,5,6
 308 713 308 713 307 710 c 2,7,-1
 256 473 l 2,8,9
 255 470 255 470 255 466.5 c 128,-1,10
 255 463 255 463 255 460 c 0,11,12
 255 440 255 440 265 424 c 128,-1,13
 275 408 275 408 292 408 c 1,14,-1
 271 314 l 1,15,16
 251 310 251 310 232.5 291.5 c 128,-1,17
 214 273 214 273 208 247 c 2,18,-1
 156 -1 l 2,19,20
 152 -19 152 -19 142.5 -25 c 128,-1,21
 133 -31 133 -31 127 -31 c 2,22,-1
 -23 -31 l 1,23,-1
 -1 76 l 1,24,-1
 52 76 l 1,25,-1
 97 291 l 2,26,27
 102 311 102 311 115 328.5 c 128,-1,28
 128 346 128 346 145 360 c 1,29,30
 137 371 137 371 131 384 c 128,-1,31
 125 397 125 397 125 412 c 0,32,33
 125 419 125 419 127 429 c 2,34,-1
 171 633 l 1,35,-1
 118 633 l 1,0,-1
EndSplineSet
EndChar

StartChar: asciitilde
Encoding: 126 126 98
Width: 546
GlyphClass: 2
Flags: W
LayerCount: 2
Fore
SplineSet
41 228 m 1,0,1
 42 237 42 237 51 258.5 c 128,-1,2
 60 280 60 280 78.5 302.5 c 128,-1,3
 97 325 97 325 124.5 342.5 c 128,-1,4
 152 360 152 360 191 360 c 0,5,6
 218 360 218 360 239 351.5 c 128,-1,7
 260 343 260 343 279 333 c 128,-1,8
 298 323 298 323 316.5 314.5 c 128,-1,9
 335 306 335 306 357 306 c 0,10,11
 377 306 377 306 391 313.5 c 128,-1,12
 405 321 405 321 413.5 330 c 128,-1,13
 422 339 422 339 426 347.5 c 128,-1,14
 430 356 430 356 430 358 c 2,15,-1
 503 358 l 1,16,17
 503 353 503 353 494 332 c 128,-1,18
 485 311 485 311 466 288 c 128,-1,19
 447 265 447 265 418 246.5 c 128,-1,20
 389 228 389 228 349 228 c 0,21,22
 323 228 323 228 301.5 236 c 128,-1,23
 280 244 280 244 261 254 c 128,-1,24
 242 264 242 264 223.5 272 c 128,-1,25
 205 280 205 280 184 280 c 0,26,27
 164 280 164 280 150.5 272 c 128,-1,28
 137 264 137 264 129 254.5 c 128,-1,29
 121 245 121 245 118 237 c 128,-1,30
 115 229 115 229 115 228 c 2,31,-1
 41 228 l 1,32,-1
 41 228 l 1,0,1
EndSplineSet
EndChar

StartChar: exclamdown
Encoding: 161 161 100
Width: 290
GlyphClass: 2
Flags: W
LayerCount: 2
Fore
SplineSet
243 445 m 1,0,-1
 147 -5 l 1,1,-1
 13 -5 l 1,2,-1
 109 445 l 1,3,-1
 243 445 l 1,0,-1
299 712 m 1,4,-1
 267 561 l 1,5,-1
 133 561 l 1,6,-1
 165 712 l 1,7,-1
 299 712 l 1,4,-1
EndSplineSet
EndChar

StartChar: cent
Encoding: 162 162 101
Width: 571
GlyphClass: 2
Flags: W
LayerCount: 2
Fore
SplineSet
177 -120 m 1,0,-1
 201 -9 l 1,1,2
 160 -6 160 -6 127.5 14 c 128,-1,3
 95 34 95 34 72.5 64.5 c 128,-1,4
 50 95 50 95 38.5 133 c 128,-1,5
 27 171 27 171 27 212 c 0,6,7
 27 267 27 267 47 320 c 128,-1,8
 67 373 67 373 104.5 417 c 128,-1,9
 142 461 142 461 195.5 491.5 c 128,-1,10
 249 522 249 522 316 532 c 1,11,-1
 340 645 l 1,12,-1
 400 645 l 1,13,-1
 376 532 l 1,14,15
 442 530 442 530 489 496 c 128,-1,16
 536 462 536 462 554 399 c 1,17,-1
 415 359 l 1,18,19
 408 385 408 385 390.5 399 c 128,-1,20
 373 413 373 413 351 415 c 1,21,-1
 286 107 l 1,22,23
 310 112 310 112 336.5 127.5 c 128,-1,24
 363 143 363 143 376 166 c 1,25,-1
 498 126 l 1,26,27
 477 92 477 92 446 66.5 c 128,-1,28
 415 41 415 41 382 24 c 128,-1,29
 349 7 349 7 317 -1.5 c 128,-1,30
 285 -10 285 -10 261 -10 c 1,31,-1
 237 -120 l 1,32,-1
 177 -120 l 1,0,-1
165 223 m 0,33,34
 165 185 165 185 181.5 154.5 c 128,-1,35
 198 124 198 124 227 113 c 1,36,-1
 290 409 l 1,37,38
 264 403 264 403 241 384.5 c 128,-1,39
 218 366 218 366 201 340 c 128,-1,40
 184 314 184 314 174.5 283.5 c 128,-1,41
 165 253 165 253 165 223 c 0,33,34
EndSplineSet
EndChar

StartChar: sterling
Encoding: 163 163 102
Width: 525
GlyphClass: 2
Flags: W
LayerCount: 2
Fore
SplineSet
73 381 m 1,0,-1
 140 381 l 1,1,2
 134 413 134 413 127 443.5 c 128,-1,3
 120 474 120 474 120 504 c 0,4,5
 120 548 120 548 140 586.5 c 128,-1,6
 160 625 160 625 193.5 653.5 c 128,-1,7
 227 682 227 682 270.5 698.5 c 128,-1,8
 314 715 314 715 360 715 c 0,9,10
 419 715 419 715 465.5 687 c 128,-1,11
 512 659 512 659 537 610 c 1,12,-1
 450 528 l 1,13,14
 434 563 434 563 402 584.5 c 128,-1,15
 370 606 370 606 336 606 c 0,16,17
 316 606 316 606 298.5 598 c 128,-1,18
 281 590 281 590 267.5 576.5 c 128,-1,19
 254 563 254 563 246 544 c 128,-1,20
 238 525 238 525 238 503 c 0,21,22
 238 475 238 475 246 445 c 128,-1,23
 254 415 254 415 261 381 c 1,24,-1
 437 381 l 1,25,-1
 415 280 l 1,26,-1
 263 280 l 1,27,28
 260 259 260 259 252 239 c 128,-1,29
 244 219 244 219 230 198 c 128,-1,30
 216 177 216 177 195 154 c 128,-1,31
 174 131 174 131 145 104 c 1,32,33
 167 111 167 111 185 113.5 c 128,-1,34
 203 116 203 116 219 116 c 0,35,36
 253 116 253 116 282.5 107.5 c 128,-1,37
 312 99 312 99 344 99 c 0,38,39
 361 99 361 99 378 103 c 128,-1,40
 395 107 395 107 418 115 c 1,41,-1
 429 15 l 1,42,43
 403 1 403 1 371.5 -7 c 128,-1,44
 340 -15 340 -15 313 -15 c 0,45,46
 291 -15 291 -15 270 -10.5 c 128,-1,47
 249 -6 249 -6 228 -0.5 c 128,-1,48
 207 5 207 5 185.5 9.5 c 128,-1,49
 164 14 164 14 141 14 c 0,50,51
 116 14 116 14 81 8 c 128,-1,52
 46 2 46 2 14 -8 c 1,53,-1
 5 87 l 1,54,55
 68 135 68 135 103 182 c 128,-1,56
 138 229 138 229 146 280 c 1,57,-1
 52 280 l 1,58,-1
 73 381 l 1,0,-1
EndSplineSet
EndChar

StartChar: currency
Encoding: 164 164 103
Width: 576
GlyphClass: 2
Flags: W
LayerCount: 2
Fore
SplineSet
190 495 m 1,0,1
 212 509 212 509 238 517 c 128,-1,2
 264 525 264 525 296 525 c 0,3,4
 327 525 327 525 353 517.5 c 128,-1,5
 379 510 379 510 401 496 c 1,6,-1
 470 567 l 1,7,-1
 525 512 l 1,8,-1
 457 445 l 1,9,10
 472 422 472 422 480.5 394.5 c 128,-1,11
 489 367 489 367 489 337 c 0,12,13
 489 308 489 308 480.5 280.5 c 128,-1,14
 472 253 472 253 456 230 c 1,15,-1
 525 162 l 1,16,-1
 475 112 l 1,17,-1
 403 180 l 1,18,19
 381 166 381 166 354.5 158.5 c 128,-1,20
 328 151 328 151 296 151 c 0,21,22
 234 151 234 151 187 181 c 1,23,-1
 114 112 l 1,24,-1
 65 162 l 1,25,-1
 134 231 l 1,26,27
 103 279 103 279 103 337 c 0,28,29
 103 398 103 398 133 443 c 1,30,-1
 65 512 l 1,31,-1
 119 567 l 1,32,-1
 190 495 l 1,0,1
203 337 m 256,33,34
 203 292 203 292 229.5 263.5 c 128,-1,35
 256 235 256 235 296 235 c 256,36,37
 336 235 336 235 362.5 264 c 128,-1,38
 389 293 389 293 389 338 c 256,39,40
 389 383 389 383 362.5 411.5 c 128,-1,41
 336 440 336 440 296 440 c 256,42,43
 256 440 256 440 229.5 411 c 128,-1,44
 203 382 203 382 203 337 c 256,33,34
EndSplineSet
EndChar

StartChar: yen
Encoding: 165 165 104
Width: 686
GlyphClass: 2
Flags: W
LayerCount: 2
Fore
SplineSet
507 402 m 1,0,-1
 576 402 l 1,1,-1
 558 315 l 1,2,-1
 443 315 l 1,3,-1
 394 248 l 1,4,-1
 388 218 l 1,5,-1
 537 218 l 1,6,-1
 520 131 l 1,7,-1
 369 131 l 1,8,-1
 342 0 l 1,9,-1
 205 0 l 1,10,-1
 232 131 l 1,11,-1
 84 131 l 1,12,-1
 103 218 l 1,13,-1
 251 218 l 1,14,-1
 258 250 l 1,15,-1
 238 315 l 1,16,-1
 124 315 l 1,17,-1
 142 402 l 1,18,-1
 212 402 l 1,19,-1
 114 710 l 1,20,-1
 263 710 l 1,21,-1
 351 368 l 1,22,-1
 587 710 l 1,23,-1
 737 710 l 1,24,-1
 507 402 l 1,0,-1
EndSplineSet
EndChar

StartChar: brokenbar
Encoding: 166 166 105
Width: 320
GlyphClass: 2
Flags: W
LayerCount: 2
Fore
SplineSet
222 264 m 1,0,-1
 222 -130 l 1,1,-1
 108 -130 l 1,2,-1
 108 264 l 1,3,-1
 222 264 l 1,0,-1
222 775 m 1,4,-1
 222 381 l 1,5,-1
 108 381 l 1,6,-1
 108 775 l 1,7,-1
 222 775 l 1,4,-1
EndSplineSet
EndChar

StartChar: section
Encoding: 167 167 106
Width: 515
GlyphClass: 2
Flags: W
LayerCount: 2
Fore
SplineSet
421 215 m 1,0,1
 437 196 437 196 437 152 c 0,2,3
 437 87 437 87 410.5 41.5 c 128,-1,4
 384 -4 384 -4 344 -32.5 c 128,-1,5
 304 -61 304 -61 258.5 -74.5 c 128,-1,6
 213 -88 213 -88 176 -88 c 0,7,8
 138 -88 138 -88 107.5 -77 c 128,-1,9
 77 -66 77 -66 54 -50 c 128,-1,10
 31 -34 31 -34 15.5 -16 c 128,-1,11
 0 2 0 2 -9 16 c 1,12,-1
 94 98 l 1,13,14
 116 66 116 66 141.5 52.5 c 128,-1,15
 167 39 167 39 197 39 c 0,16,17
 214 39 214 39 231.5 44.5 c 128,-1,18
 249 50 249 50 262.5 60.5 c 128,-1,19
 276 71 276 71 284.5 86 c 128,-1,20
 293 101 293 101 293 120 c 0,21,22
 293 133 293 133 287.5 141.5 c 128,-1,23
 282 150 282 150 273.5 154.5 c 128,-1,24
 265 159 265 159 254 160.5 c 128,-1,25
 243 162 243 162 232 163 c 0,26,27
 151 169 151 169 109.5 207.5 c 128,-1,28
 68 246 68 246 68 308 c 0,29,30
 68 351 68 351 81.5 376.5 c 128,-1,31
 95 402 95 402 105 415 c 1,32,33
 97 426 97 426 92 446.5 c 128,-1,34
 87 467 87 467 87 493 c 0,35,36
 87 537 87 537 107.5 577.5 c 128,-1,37
 128 618 128 618 162.5 648.5 c 128,-1,38
 197 679 197 679 241.5 697 c 128,-1,39
 286 715 286 715 333 715 c 0,40,41
 375 715 375 715 405 702.5 c 128,-1,42
 435 690 435 690 456 671.5 c 128,-1,43
 477 653 477 653 490 631.5 c 128,-1,44
 503 610 503 610 511 592 c 1,45,-1
 398 543 l 1,46,47
 390 569 390 569 369 582.5 c 128,-1,48
 348 596 348 596 316 596 c 0,49,50
 280 596 280 596 252 573.5 c 128,-1,51
 224 551 224 551 224 513 c 0,52,53
 224 485 224 485 242.5 475.5 c 128,-1,54
 261 466 261 466 288 465 c 0,55,56
 319 464 319 464 350.5 456.5 c 128,-1,57
 382 449 382 449 407 433 c 128,-1,58
 432 417 432 417 447.5 391 c 128,-1,59
 463 365 463 365 463 328 c 0,60,61
 463 309 463 309 458.5 291.5 c 128,-1,62
 454 274 454 274 447.5 259 c 128,-1,63
 441 244 441 244 434 232.5 c 128,-1,64
 427 221 427 221 421 215 c 1,0,1
196 309 m 0,65,66
 196 286 196 286 208.5 275.5 c 128,-1,67
 221 265 221 265 238.5 261 c 128,-1,68
 256 257 256 257 274 255.5 c 128,-1,69
 292 254 292 254 304 248 c 1,70,71
 316 257 316 257 324 273 c 128,-1,72
 332 289 332 289 332 306 c 0,73,74
 332 334 332 334 311.5 345.5 c 128,-1,75
 291 357 291 357 270 357 c 0,76,77
 255 357 255 357 241.5 360 c 128,-1,78
 228 363 228 363 222 366 c 1,79,80
 212 358 212 358 204 342.5 c 128,-1,81
 196 327 196 327 196 309 c 0,65,66
EndSplineSet
EndChar

StartChar: dieresis
Encoding: 168 168 107
Width: 447
GlyphClass: 2
Flags: W
LayerCount: 2
Fore
SplineSet
73 604 m 1,0,-1
 99 723 l 1,1,-1
 210 723 l 1,2,-1
 184 604 l 1,3,-1
 73 604 l 1,0,-1
261 604 m 1,4,-1
 286 723 l 1,5,-1
 396 723 l 1,6,-1
 372 604 l 1,7,-1
 261 604 l 1,4,-1
EndSplineSet
EndChar

StartChar: copyright
Encoding: 169 169 108
Width: 855
GlyphClass: 2
Flags: W
LayerCount: 2
Fore
SplineSet
436 -7 m 0,0,1
 355 -7 355 -7 286.5 20.5 c 128,-1,2
 218 48 218 48 168 96.5 c 128,-1,3
 118 145 118 145 89.5 211 c 128,-1,4
 61 277 61 277 61 355 c 0,5,6
 61 432 61 432 89.5 498 c 128,-1,7
 118 564 118 564 168 612 c 128,-1,8
 218 660 218 660 286.5 687.5 c 128,-1,9
 355 715 355 715 436 715 c 0,10,11
 518 715 518 715 588 687.5 c 128,-1,12
 658 660 658 660 709 612 c 128,-1,13
 760 564 760 564 788.5 498 c 128,-1,14
 817 432 817 432 817 355 c 0,15,16
 817 277 817 277 788.5 211 c 128,-1,17
 760 145 760 145 709 96.5 c 128,-1,18
 658 48 658 48 588 20.5 c 128,-1,19
 518 -7 518 -7 436 -7 c 0,0,1
436 43 m 256,20,21
 505 43 505 43 564.5 65.5 c 128,-1,22
 624 88 624 88 668.5 129.5 c 128,-1,23
 713 171 713 171 738 228 c 128,-1,24
 763 285 763 285 763 354 c 0,25,26
 763 420 763 420 738.5 476.5 c 128,-1,27
 714 533 714 533 670 575 c 128,-1,28
 626 617 626 617 566 641 c 128,-1,29
 506 665 506 665 436 665 c 0,30,31
 367 665 367 665 308.5 641 c 128,-1,32
 250 617 250 617 207 575 c 128,-1,33
 164 533 164 533 139.5 476.5 c 128,-1,34
 115 420 115 420 115 354 c 256,35,36
 115 288 115 288 139.5 231.5 c 128,-1,37
 164 175 164 175 206.5 133 c 128,-1,38
 249 91 249 91 308 67 c 128,-1,39
 367 43 367 43 436 43 c 256,20,21
445 116 m 0,40,41
 389 116 389 116 342.5 134.5 c 128,-1,42
 296 153 296 153 262.5 185 c 128,-1,43
 229 217 229 217 210.5 260.5 c 128,-1,44
 192 304 192 304 192 355 c 0,45,46
 192 400 192 400 208 443 c 128,-1,47
 224 486 224 486 255.5 519.5 c 128,-1,48
 287 553 287 553 333.5 573 c 128,-1,49
 380 593 380 593 442 593 c 0,50,51
 522 593 522 593 579.5 558.5 c 128,-1,52
 637 524 637 524 664 465 c 1,53,-1
 534 425 l 1,54,55
 518 456 518 456 492 467.5 c 128,-1,56
 466 479 466 479 442 479 c 0,57,58
 415 479 415 479 394.5 469 c 128,-1,59
 374 459 374 459 359.5 442 c 128,-1,60
 345 425 345 425 337.5 402.5 c 128,-1,61
 330 380 330 380 330 355 c 0,62,63
 330 325 330 325 340 301.5 c 128,-1,64
 350 278 350 278 366 262.5 c 128,-1,65
 382 247 382 247 402 238.5 c 128,-1,66
 422 230 422 230 443 230 c 0,67,68
 471 230 471 230 497 245 c 128,-1,69
 523 260 523 260 537 286 c 1,70,-1
 667 247 l 1,71,72
 655 221 655 221 635 197.5 c 128,-1,73
 615 174 615 174 586.5 156 c 128,-1,74
 558 138 558 138 522.5 127 c 128,-1,75
 487 116 487 116 445 116 c 0,40,41
EndSplineSet
EndChar

StartChar: ordfeminine
Encoding: 170 170 109
Width: 425
GlyphClass: 2
Flags: W
LayerCount: 2
Fore
SplineSet
160 339 m 0,0,1
 118 339 118 339 93 365 c 128,-1,2
 68 391 68 391 68 432 c 0,3,4
 68 462 68 462 81 487.5 c 128,-1,5
 94 513 94 513 117 532 c 128,-1,6
 140 551 140 551 171 561.5 c 128,-1,7
 202 572 202 572 237 572 c 0,8,9
 282 572 282 572 312 556 c 1,10,-1
 316 575 l 2,11,12
 317 581 317 581 317.5 586 c 128,-1,13
 318 591 318 591 318 596 c 0,14,15
 318 645 318 645 262 645 c 0,16,17
 234 645 234 645 207 635 c 128,-1,18
 180 625 180 625 148 605 c 1,19,-1
 132 666 l 1,20,21
 207 713 207 713 284 713 c 0,22,23
 347 713 347 713 381 686 c 128,-1,24
 415 659 415 659 415 606 c 0,25,26
 415 595 415 595 413.5 584.5 c 128,-1,27
 412 574 412 574 410 563 c 2,28,-1
 387 459 l 2,29,30
 386 455 386 455 386 448 c 0,31,32
 386 431 386 431 406 430 c 1,33,-1
 388 345 l 1,34,35
 376 343 376 343 365 342 c 128,-1,36
 354 341 354 341 346 341 c 0,37,38
 292 341 292 341 292 381 c 0,39,40
 292 384 292 384 292.5 390 c 128,-1,41
 293 396 293 396 294 404 c 1,42,43
 265 372 265 372 230 355.5 c 128,-1,44
 195 339 195 339 160 339 c 0,0,1
204 411 m 0,45,46
 217 411 217 411 231.5 415.5 c 128,-1,47
 246 420 246 420 258.5 427.5 c 128,-1,48
 271 435 271 435 280.5 444.5 c 128,-1,49
 290 454 290 454 292 464 c 2,50,-1
 300 503 l 1,51,52
 288 509 288 509 272.5 512 c 128,-1,53
 257 515 257 515 243 515 c 0,54,55
 209 515 209 515 185.5 497.5 c 128,-1,56
 162 480 162 480 162 453 c 0,57,58
 162 435 162 435 173.5 423 c 128,-1,59
 185 411 185 411 204 411 c 0,45,46
EndSplineSet
EndChar

StartChar: guillemotleft
Encoding: 171 171 110
Width: 629
GlyphClass: 2
Flags: W
LayerCount: 2
Fore
SplineSet
33 288 m 1,0,-1
 325 477 l 1,1,-1
 302 368 l 1,2,-1
 133 259 l 1,3,-1
 257 156 l 1,4,-1
 234 46 l 1,5,-1
 19 223 l 1,6,-1
 33 288 l 1,0,-1
316 288 m 1,7,-1
 609 477 l 1,8,-1
 586 368 l 1,9,-1
 417 259 l 1,10,-1
 541 156 l 1,11,-1
 518 46 l 1,12,-1
 303 223 l 1,13,-1
 316 288 l 1,7,-1
EndSplineSet
EndChar

StartChar: logicalnot
Encoding: 172 172 111
Width: 591
GlyphClass: 2
Flags: W
LayerCount: 2
Fore
SplineSet
547 400 m 1,0,-1
 484 106 l 1,1,-1
 371 106 l 1,2,-1
 408 280 l 1,3,-1
 53 280 l 1,4,-1
 78 400 l 1,5,-1
 547 400 l 1,0,-1
EndSplineSet
EndChar

StartChar: uni00AD
Encoding: 173 173 112
Width: 582
GlyphClass: 2
Flags: W
LayerCount: 2
Fore
SplineSet
38 214 m 1,0,-1
 64 335 l 1,1,-1
 532 335 l 1,2,-1
 507 214 l 1,3,-1
 38 214 l 1,0,-1
EndSplineSet
EndChar

StartChar: registered
Encoding: 174 174 113
Width: 855
GlyphClass: 2
Flags: W
LayerCount: 2
Fore
SplineSet
437 -7 m 256,0,1
 356 -7 356 -7 287 20.5 c 128,-1,2
 218 48 218 48 167.5 96.5 c 128,-1,3
 117 145 117 145 89 211 c 128,-1,4
 61 277 61 277 61 355 c 0,5,6
 61 432 61 432 89 498 c 128,-1,7
 117 564 117 564 167.5 612 c 128,-1,8
 218 660 218 660 287 687.5 c 128,-1,9
 356 715 356 715 437 715 c 256,10,11
 518 715 518 715 587.5 687.5 c 128,-1,12
 657 660 657 660 708 612 c 128,-1,13
 759 564 759 564 788 498 c 128,-1,14
 817 432 817 432 817 355 c 0,15,16
 817 277 817 277 788 211 c 128,-1,17
 759 145 759 145 708 96.5 c 128,-1,18
 657 48 657 48 587.5 20.5 c 128,-1,19
 518 -7 518 -7 437 -7 c 256,0,1
438 42 m 0,20,21
 506 42 506 42 565 65 c 128,-1,22
 624 88 624 88 667.5 129 c 128,-1,23
 711 170 711 170 735.5 227.5 c 128,-1,24
 760 285 760 285 760 353 c 0,25,26
 760 419 760 419 736 476 c 128,-1,27
 712 533 712 533 669 575 c 128,-1,28
 626 617 626 617 567 641 c 128,-1,29
 508 665 508 665 438 665 c 256,30,31
 368 665 368 665 309 641 c 128,-1,32
 250 617 250 617 207.5 575 c 128,-1,33
 165 533 165 533 141.5 476.5 c 128,-1,34
 118 420 118 420 118 355 c 0,35,36
 118 289 118 289 141.5 232 c 128,-1,37
 165 175 165 175 207.5 132.5 c 128,-1,38
 250 90 250 90 309 66 c 128,-1,39
 368 42 368 42 438 42 c 0,20,21
275 576 m 1,40,-1
 471 576 l 2,41,42
 501 576 501 576 527 563 c 128,-1,43
 553 550 553 550 571.5 529 c 128,-1,44
 590 508 590 508 600.5 482 c 128,-1,45
 611 456 611 456 611 429 c 0,46,47
 611 388 611 388 588.5 352 c 128,-1,48
 566 316 566 316 530 302 c 1,49,-1
 633 136 l 1,50,-1
 527 136 l 1,51,-1
 434 284 l 1,52,-1
 371 284 l 1,53,-1
 371 136 l 1,54,-1
 275 136 l 1,55,-1
 275 576 l 1,40,-1
463 366 m 2,56,57
 488 366 488 366 502.5 382.5 c 128,-1,58
 517 399 517 399 517 429 c 0,59,60
 517 461 517 461 500 476.5 c 128,-1,61
 483 492 483 492 460 492 c 2,62,-1
 371 492 l 1,63,-1
 371 366 l 1,64,-1
 463 366 l 2,56,57
EndSplineSet
EndChar

StartChar: macron
Encoding: 175 175 114
Width: 401
GlyphClass: 2
Flags: W
LayerCount: 2
Fore
SplineSet
68 632 m 1,0,-1
 86 715 l 1,1,-1
 372 715 l 1,2,-1
 354 632 l 1,3,-1
 68 632 l 1,0,-1
EndSplineSet
EndChar

StartChar: degree
Encoding: 176 176 115
Width: 278
GlyphClass: 2
Flags: W
LayerCount: 2
Fore
SplineSet
183 519 m 0,0,1
 146 519 146 519 124.5 541 c 128,-1,2
 103 563 103 563 103 598 c 0,3,4
 103 622 103 622 112.5 644.5 c 128,-1,5
 122 667 122 667 138.5 685 c 128,-1,6
 155 703 155 703 178 713.5 c 128,-1,7
 201 724 201 724 227 724 c 0,8,9
 264 724 264 724 285.5 701 c 128,-1,10
 307 678 307 678 307 643 c 0,11,12
 307 617 307 617 297 594 c 128,-1,13
 287 571 287 571 270.5 554.5 c 128,-1,14
 254 538 254 538 231 528.5 c 128,-1,15
 208 519 208 519 183 519 c 0,0,1
197 584 m 0,16,17
 212 584 212 584 226 597.5 c 128,-1,18
 240 611 240 611 240 629 c 0,19,20
 240 643 240 643 232 651 c 128,-1,21
 224 659 224 659 213 659 c 0,22,23
 196 659 196 659 182.5 645.5 c 128,-1,24
 169 632 169 632 169 615 c 0,25,26
 169 601 169 601 176 592.5 c 128,-1,27
 183 584 183 584 197 584 c 0,16,17
EndSplineSet
EndChar

StartChar: plusminus
Encoding: 177 177 116
Width: 511
GlyphClass: 2
Flags: W
LayerCount: 2
Fore
SplineSet
67 28 m 1,0,-1
 67 136 l 1,1,-1
 420 136 l 1,2,-1
 420 28 l 1,3,-1
 67 28 l 1,0,-1
421 430 m 1,4,-1
 421 323 l 1,5,-1
 304 323 l 1,6,-1
 304 196 l 1,7,-1
 184 196 l 1,8,-1
 184 323 l 1,9,-1
 67 323 l 1,10,-1
 67 430 l 1,11,-1
 184 430 l 1,12,-1
 184 557 l 1,13,-1
 304 557 l 1,14,-1
 304 430 l 1,15,-1
 421 430 l 1,4,-1
EndSplineSet
EndChar

StartChar: twosuperior
Encoding: 178 178 117
Width: 403
GlyphClass: 2
Flags: W
LayerCount: 2
Fore
SplineSet
50 389 m 1,0,1
 59 430 59 430 71.5 460.5 c 128,-1,2
 84 491 84 491 103.5 514 c 128,-1,3
 123 537 123 537 150.5 554.5 c 128,-1,4
 178 572 178 572 216 587 c 0,5,6
 243 597 243 597 269 607 c 128,-1,7
 295 617 295 617 316 628.5 c 128,-1,8
 337 640 337 640 350 655.5 c 128,-1,9
 363 671 363 671 363 693 c 256,10,11
 363 715 363 715 345 726.5 c 128,-1,12
 327 738 327 738 294 738 c 0,13,14
 252 738 252 738 219.5 722 c 128,-1,15
 187 706 187 706 166 689 c 1,16,-1
 128 747 l 1,17,18
 138 757 138 757 156 769 c 128,-1,19
 174 781 174 781 198.5 791.5 c 128,-1,20
 223 802 223 802 254 809 c 128,-1,21
 285 816 285 816 321 816 c 0,22,23
 387 816 387 816 421 787.5 c 128,-1,24
 455 759 455 759 455 710 c 0,25,26
 455 674 455 674 442.5 648 c 128,-1,27
 430 622 430 622 408.5 603.5 c 128,-1,28
 387 585 387 585 358.5 572 c 128,-1,29
 330 559 330 559 298 549 c 0,30,31
 249 533 249 533 224.5 511.5 c 128,-1,32
 200 490 200 490 195 467 c 1,33,-1
 393 467 l 1,34,-1
 376 389 l 1,35,-1
 50 389 l 1,0,1
EndSplineSet
EndChar

StartChar: threesuperior
Encoding: 179 179 118
Width: 392
GlyphClass: 2
Flags: W
LayerCount: 2
Fore
SplineSet
204 383 m 0,0,1
 147 383 147 383 112.5 403.5 c 128,-1,2
 78 424 78 424 61 462 c 1,3,-1
 116 521 l 1,4,5
 117 513 117 513 123.5 503 c 128,-1,6
 130 493 130 493 142 484 c 128,-1,7
 154 475 154 475 173 469 c 128,-1,8
 192 463 192 463 219 463 c 0,9,10
 238 463 238 463 257 467 c 128,-1,11
 276 471 276 471 291 478 c 128,-1,12
 306 485 306 485 315 495.5 c 128,-1,13
 324 506 324 506 324 520 c 0,14,15
 324 546 324 546 290 558 c 128,-1,16
 256 570 256 570 194 570 c 2,17,-1
 171 570 l 1,18,-1
 186 643 l 1,19,-1
 208 643 l 2,20,21
 270 643 270 643 309 657 c 128,-1,22
 348 671 348 671 348 700 c 0,23,24
 348 723 348 723 326 732.5 c 128,-1,25
 304 742 304 742 278 742 c 0,26,27
 241 742 241 742 212.5 728.5 c 128,-1,28
 184 715 184 715 161 692 c 1,29,-1
 124 756 l 1,30,31
 152 785 152 785 199 800.5 c 128,-1,32
 246 816 246 816 292 816 c 0,33,34
 358 816 358 816 396.5 787.5 c 128,-1,35
 435 759 435 759 435 714 c 0,36,37
 435 674 435 674 404.5 647 c 128,-1,38
 374 620 374 620 323 611 c 1,39,40
 362 605 362 605 382.5 580 c 128,-1,41
 403 555 403 555 403 520 c 256,42,43
 403 485 403 485 385 459.5 c 128,-1,44
 367 434 367 434 338.5 417 c 128,-1,45
 310 400 310 400 274.5 391.5 c 128,-1,46
 239 383 239 383 204 383 c 0,0,1
EndSplineSet
EndChar

StartChar: acute
Encoding: 180 180 119
Width: 245
GlyphClass: 2
Flags: W
LayerCount: 2
Fore
SplineSet
110 594 m 1,0,-1
 23 611 l 1,1,-1
 99 730 l 1,2,-1
 223 730 l 1,3,-1
 110 594 l 1,0,-1
EndSplineSet
EndChar

StartChar: mu
Encoding: 181 181 120
Width: 634
GlyphClass: 2
Flags: W
LayerCount: 2
Fore
SplineSet
117 524 m 1,0,-1
 251 524 l 1,1,-1
 187 225 l 2,2,3
 181 196 181 196 181 174 c 0,4,5
 181 104 181 104 243 104 c 0,6,7
 277 104 277 104 315 127.5 c 128,-1,8
 353 151 353 151 385 199 c 1,9,-1
 454 524 l 1,10,-1
 588 524 l 1,11,-1
 509 154 l 2,12,13
 508 149 508 149 507.5 145 c 128,-1,14
 507 141 507 141 507 137 c 0,15,16
 507 115 507 115 537 114 c 1,17,-1
 512 0 l 1,18,19
 492 -3 492 -3 477 -5 c 128,-1,20
 462 -7 462 -7 451 -7 c 0,21,22
 377 -7 377 -7 377 50 c 0,23,24
 377 55 377 55 378 67 c 128,-1,25
 379 79 379 79 384 98 c 1,26,27
 372 80 372 80 353 61 c 128,-1,28
 334 42 334 42 310.5 26 c 128,-1,29
 287 10 287 10 261 0 c 128,-1,30
 235 -10 235 -10 211 -10 c 0,31,32
 178 -10 178 -10 161 6.5 c 128,-1,33
 144 23 144 23 142 49 c 1,34,-1
 94 -212 l 1,35,-1
 -40 -212 l 1,36,-1
 117 524 l 1,0,-1
EndSplineSet
EndChar

StartChar: paragraph
Encoding: 182 182 121
Width: 635
GlyphClass: 2
Flags: W
LayerCount: 2
Fore
SplineSet
62 396 m 0,0,1
 62 467 62 467 85 525 c 128,-1,2
 108 583 108 583 151 624 c 128,-1,3
 194 665 194 665 255 687.5 c 128,-1,4
 316 710 316 710 392 710 c 2,5,-1
 678 710 l 1,6,-1
 656 610 l 1,7,-1
 590 610 l 1,8,-1
 443 -80 l 1,9,-1
 329 -80 l 1,10,-1
 391 208 l 1,11,-1
 345 208 l 1,12,-1
 284 -80 l 1,13,-1
 170 -80 l 1,14,-1
 231 208 l 1,15,16
 151 209 151 209 106.5 260 c 128,-1,17
 62 311 62 311 62 396 c 0,0,1
176 410 m 0,18,19
 176 363 176 363 197.5 337 c 128,-1,20
 219 311 219 311 252 308 c 1,21,-1
 317 610 l 1,22,23
 286 608 286 608 260 591 c 128,-1,24
 234 574 234 574 215.5 547 c 128,-1,25
 197 520 197 520 186.5 484.5 c 128,-1,26
 176 449 176 449 176 410 c 0,18,19
477 610 m 1,27,-1
 430 610 l 1,28,-1
 366 308 l 1,29,-1
 412 308 l 1,30,-1
 477 610 l 1,27,-1
EndSplineSet
EndChar

StartChar: periodcentered
Encoding: 183 183 122
Width: 224
GlyphClass: 2
Flags: W
LayerCount: 2
Fore
SplineSet
44 242 m 1,0,-1
 76 393 l 1,1,-1
 186 393 l 1,2,-1
 154 242 l 1,3,-1
 44 242 l 1,0,-1
EndSplineSet
EndChar

StartChar: cedilla
Encoding: 184 184 123
Width: 313
GlyphClass: 2
Flags: W
LayerCount: 2
Fore
SplineSet
19 -127 m 1,0,1
 29 -134 29 -134 51.5 -140 c 128,-1,2
 74 -146 74 -146 100 -146 c 0,3,4
 127 -146 127 -146 144 -137 c 128,-1,5
 161 -128 161 -128 161 -107 c 0,6,7
 161 -92 161 -92 149 -86 c 128,-1,8
 137 -80 137 -80 117 -80 c 256,9,10
 97 -80 97 -80 74 -84.5 c 128,-1,11
 51 -89 51 -89 39 -92 c 1,12,-1
 122 28 l 1,13,-1
 171 12 l 1,14,-1
 126 -42 l 1,15,16
 133 -40 133 -40 141 -39 c 128,-1,17
 149 -38 149 -38 157 -38 c 0,18,19
 186 -38 186 -38 205.5 -51.5 c 128,-1,20
 225 -65 225 -65 225 -94 c 0,21,22
 225 -137 225 -137 189 -166.5 c 128,-1,23
 153 -196 153 -196 80 -196 c 0,24,25
 48 -196 48 -196 23.5 -190 c 128,-1,26
 -1 -184 -1 -184 -18 -176 c 1,27,-1
 19 -127 l 1,0,1
EndSplineSet
EndChar

StartChar: onesuperior
Encoding: 185 185 124
Width: 288
GlyphClass: 2
Flags: W
LayerCount: 2
Fore
SplineSet
303 469 m 1,0,-1
 286 390 l 1,1,-1
 66 390 l 1,2,-1
 83 469 l 1,3,-1
 157 469 l 1,4,-1
 212 730 l 1,5,6
 206 723 206 723 193.5 714.5 c 128,-1,7
 181 706 181 706 167 698 c 128,-1,8
 153 690 153 690 138 684.5 c 128,-1,9
 123 679 123 679 112 679 c 1,10,-1
 129 758 l 1,11,12
 144 758 144 758 161.5 766.5 c 128,-1,13
 179 775 179 775 194 785.5 c 128,-1,14
 209 796 209 796 219.5 805.5 c 128,-1,15
 230 815 230 815 230 816 c 2,16,-1
 311 816 l 1,17,-1
 236 469 l 1,18,-1
 303 469 l 1,0,-1
EndSplineSet
EndChar

StartChar: ordmasculine
Encoding: 186 186 125
Width: 428
GlyphClass: 2
Flags: W
LayerCount: 2
Fore
SplineSet
221 339 m 0,0,1
 185 339 185 339 158.5 351 c 128,-1,2
 132 363 132 363 114 383 c 128,-1,3
 96 403 96 403 87 430.5 c 128,-1,4
 78 458 78 458 78 488 c 0,5,6
 78 531 78 531 94.5 571.5 c 128,-1,7
 111 612 111 612 140.5 643.5 c 128,-1,8
 170 675 170 675 210.5 694 c 128,-1,9
 251 713 251 713 300 713 c 0,10,11
 336 713 336 713 362.5 701 c 128,-1,12
 389 689 389 689 407 669 c 128,-1,13
 425 649 425 649 434 622 c 128,-1,14
 443 595 443 595 443 564 c 0,15,16
 443 521 443 521 426.5 480.5 c 128,-1,17
 410 440 410 440 381 408.5 c 128,-1,18
 352 377 352 377 311 358 c 128,-1,19
 270 339 270 339 221 339 c 0,0,1
239 423 m 0,20,21
 259 423 259 423 277.5 433 c 128,-1,22
 296 443 296 443 310.5 460.5 c 128,-1,23
 325 478 325 478 334 501.5 c 128,-1,24
 343 525 343 525 343 551 c 0,25,26
 343 585 343 585 326.5 606.5 c 128,-1,27
 310 628 310 628 282 628 c 0,28,29
 262 628 262 628 243.5 618 c 128,-1,30
 225 608 225 608 210.5 590.5 c 128,-1,31
 196 573 196 573 187 550 c 128,-1,32
 178 527 178 527 178 501 c 0,33,34
 178 466 178 466 194.5 444.5 c 128,-1,35
 211 423 211 423 239 423 c 0,20,21
EndSplineSet
EndChar

StartChar: guillemotright
Encoding: 187 187 126
Width: 629
GlyphClass: 2
Flags: W
LayerCount: 2
Fore
SplineSet
576 223 m 1,0,-1
 287 46 l 1,1,-1
 309 156 l 1,2,-1
 478 259 l 1,3,-1
 354 368 l 1,4,-1
 378 477 l 1,5,-1
 590 288 l 1,6,-1
 576 223 l 1,0,-1
292 223 m 1,7,-1
 3 46 l 1,8,-1
 26 156 l 1,9,-1
 194 259 l 1,10,-1
 71 368 l 1,11,-1
 94 477 l 1,12,-1
 306 288 l 1,13,-1
 292 223 l 1,7,-1
EndSplineSet
EndChar

StartChar: onequarter
Encoding: 188 188 127
Width: 837
GlyphClass: 2
Flags: W
LayerCount: 2
Fore
SplineSet
621 93 m 1,0,-1
 412 93 l 1,1,-1
 428 170 l 1,2,-1
 716 422 l 1,3,-1
 770 422 l 1,4,-1
 716 171 l 1,5,-1
 775 171 l 1,6,-1
 758 93 l 1,7,-1
 700 93 l 1,8,-1
 680 0 l 1,9,-1
 602 0 l 1,10,-1
 621 93 l 1,0,-1
641 171 m 1,11,-1
 673 324 l 1,12,-1
 505 171 l 1,13,-1
 641 171 l 1,11,-1
96 47 m 1,14,-1
 433 376 l 1,15,-1
 752 718 l 1,16,-1
 801 664 l 1,17,-1
 472 340 l 1,18,-1
 144 -7 l 1,19,-1
 96 47 l 1,14,-1
293 384 m 1,20,-1
 276 306 l 1,21,-1
 55 306 l 1,22,-1
 72 384 l 1,23,-1
 147 384 l 1,24,-1
 202 645 l 1,25,26
 195 638 195 638 182.5 629.5 c 128,-1,27
 170 621 170 621 156 613 c 128,-1,28
 142 605 142 605 127 599.5 c 128,-1,29
 112 594 112 594 101 594 c 1,30,-1
 118 674 l 1,31,32
 133 674 133 674 150.5 682.5 c 128,-1,33
 168 691 168 691 183.5 701.5 c 128,-1,34
 199 712 199 712 209.5 721 c 128,-1,35
 220 730 220 730 220 731 c 2,36,-1
 300 731 l 1,37,-1
 226 384 l 1,38,-1
 293 384 l 1,20,-1
EndSplineSet
EndChar

StartChar: onehalf
Encoding: 189 189 128
Width: 869
GlyphClass: 2
Flags: W
LayerCount: 2
Fore
SplineSet
440 0 m 1,0,1
 448 41 448 41 460.5 71.5 c 128,-1,2
 473 102 473 102 491.5 125 c 128,-1,3
 510 148 510 148 537 165.5 c 128,-1,4
 564 183 564 183 601 198 c 0,5,6
 626 208 626 208 651.5 217.5 c 128,-1,7
 677 227 677 227 697 238.5 c 128,-1,8
 717 250 717 250 729.5 265.5 c 128,-1,9
 742 281 742 281 742 304 c 0,10,11
 742 349 742 349 675 349 c 0,12,13
 635 349 635 349 604 332.5 c 128,-1,14
 573 316 573 316 553 299 c 1,15,-1
 516 357 l 1,16,17
 525 367 525 367 542.5 379 c 128,-1,18
 560 391 560 391 584 401.5 c 128,-1,19
 608 412 608 412 638 419 c 128,-1,20
 668 426 668 426 702 426 c 0,21,22
 765 426 765 426 798 398 c 128,-1,23
 831 370 831 370 831 321 c 0,24,25
 831 286 831 286 819.5 260 c 128,-1,26
 808 234 808 234 787.5 215.5 c 128,-1,27
 767 197 767 197 739.5 183.5 c 128,-1,28
 712 170 712 170 680 160 c 0,29,30
 632 144 632 144 609 122.5 c 128,-1,31
 586 101 586 101 581 78 c 1,32,-1
 783 78 l 1,33,-1
 767 0 l 1,34,-1
 440 0 l 1,0,1
62 47 m 1,35,-1
 399 376 l 1,36,-1
 718 718 l 1,37,-1
 767 664 l 1,38,-1
 438 340 l 1,39,-1
 110 -7 l 1,40,-1
 62 47 l 1,35,-1
294 384 m 1,41,-1
 277 306 l 1,42,-1
 56 306 l 1,43,-1
 73 384 l 1,44,-1
 148 384 l 1,45,-1
 203 645 l 1,46,47
 196 638 196 638 183.5 629.5 c 128,-1,48
 171 621 171 621 157 613 c 128,-1,49
 143 605 143 605 128 599.5 c 128,-1,50
 113 594 113 594 102 594 c 1,51,-1
 119 674 l 1,52,53
 134 674 134 674 151.5 682.5 c 128,-1,54
 169 691 169 691 184.5 701.5 c 128,-1,55
 200 712 200 712 210.5 721 c 128,-1,56
 221 730 221 730 221 731 c 2,57,-1
 301 731 l 1,58,-1
 227 384 l 1,59,-1
 294 384 l 1,41,-1
EndSplineSet
EndChar

StartChar: threequarters
Encoding: 190 190 129
Width: 850
GlyphClass: 2
Flags: W
LayerCount: 2
Fore
SplineSet
192 298 m 0,0,1
 132 298 132 298 95 318.5 c 128,-1,2
 58 339 58 339 52 377 c 1,3,-1
 107 436 l 1,4,5
 108 429 108 429 114 419.5 c 128,-1,6
 120 410 120 410 132 401 c 128,-1,7
 144 392 144 392 162.5 385.5 c 128,-1,8
 181 379 181 379 207 379 c 0,9,10
 228 379 228 379 247.5 382.5 c 128,-1,11
 267 386 267 386 282 393.5 c 128,-1,12
 297 401 297 401 306 411.5 c 128,-1,13
 315 422 315 422 315 436 c 0,14,15
 315 462 315 462 280.5 474 c 128,-1,16
 246 486 246 486 185 486 c 2,17,-1
 162 486 l 1,18,-1
 177 559 l 1,19,-1
 199 559 l 2,20,21
 262 559 262 559 300.5 572.5 c 128,-1,22
 339 586 339 586 339 617 c 0,23,24
 339 637 339 637 317 647 c 128,-1,25
 295 657 295 657 270 657 c 0,26,27
 232 657 232 657 203.5 643.5 c 128,-1,28
 175 630 175 630 152 608 c 1,29,-1
 115 672 l 1,30,31
 143 701 143 701 190 716 c 128,-1,32
 237 731 237 731 285 731 c 0,33,34
 348 731 348 731 387 702.5 c 128,-1,35
 426 674 426 674 426 631 c 0,36,37
 426 589 426 589 396 562.5 c 128,-1,38
 366 536 366 536 314 526 c 1,39,40
 352 520 352 520 373 495 c 128,-1,41
 394 470 394 470 394 437 c 0,42,43
 394 402 394 402 376 375.5 c 128,-1,44
 358 349 358 349 329.5 332 c 128,-1,45
 301 315 301 315 265 306.5 c 128,-1,46
 229 298 229 298 192 298 c 0,0,1
631 93 m 1,47,-1
 422 93 l 1,48,-1
 438 170 l 1,49,-1
 726 422 l 1,50,-1
 780 422 l 1,51,-1
 726 171 l 1,52,-1
 785 171 l 1,53,-1
 768 93 l 1,54,-1
 710 93 l 1,55,-1
 690 0 l 1,56,-1
 612 0 l 1,57,-1
 631 93 l 1,47,-1
651 171 m 1,58,-1
 683 324 l 1,59,-1
 515 171 l 1,60,-1
 651 171 l 1,58,-1
130 47 m 1,61,-1
 467 376 l 1,62,-1
 786 718 l 1,63,-1
 835 664 l 1,64,-1
 506 340 l 1,65,-1
 178 -7 l 1,66,-1
 130 47 l 1,61,-1
EndSplineSet
EndChar

StartChar: questiondown
Encoding: 191 191 130
Width: 466
GlyphClass: 2
Flags: W
LayerCount: 2
Fore
SplineSet
347 273 m 1,0,1
 337 224 337 224 314.5 184 c 128,-1,2
 292 144 292 144 237 117 c 0,3,4
 207 102 207 102 179.5 87.5 c 128,-1,5
 152 73 152 73 130.5 55.5 c 128,-1,6
 109 38 109 38 96 16 c 128,-1,7
 83 -6 83 -6 83 -35 c 0,8,9
 83 -68 83 -68 103.5 -86 c 128,-1,10
 124 -104 124 -104 153 -104 c 0,11,12
 173 -104 173 -104 191 -96.5 c 128,-1,13
 209 -89 209 -89 225 -77.5 c 128,-1,14
 241 -66 241 -66 254 -52 c 128,-1,15
 267 -38 267 -38 277 -24 c 1,16,-1
 352 -84 l 1,17,18
 314 -146 314 -146 252.5 -179.5 c 128,-1,19
 191 -213 191 -213 125 -213 c 0,20,21
 94 -213 94 -213 64.5 -204 c 128,-1,22
 35 -195 35 -195 12.5 -176 c 128,-1,23
 -10 -157 -10 -157 -23.5 -127.5 c 128,-1,24
 -37 -98 -37 -98 -37 -57 c 0,25,26
 -37 -13 -37 -13 -26.5 19.5 c 128,-1,27
 -16 52 -16 52 3 76 c 128,-1,28
 22 100 22 100 47 118 c 128,-1,29
 72 136 72 136 101 152 c 0,30,31
 123 164 123 164 145 175 c 128,-1,32
 167 186 167 186 185.5 199.5 c 128,-1,33
 204 213 204 213 218 230 c 128,-1,34
 232 247 232 247 237 273 c 1,35,-1
 347 273 l 1,0,1
394 506 m 1,36,-1
 365 368 l 1,37,-1
 255 368 l 1,38,-1
 284 506 l 1,39,-1
 394 506 l 1,36,-1
EndSplineSet
EndChar

StartChar: Agrave
Encoding: 192 192 131
Width: 645
GlyphClass: 2
Flags: W
LayerCount: 2
Fore
SplineSet
352 710 m 1,0,-1
 475 710 l 1,1,-1
 578 0 l 1,2,-1
 436 0 l 1,3,-1
 414 177 l 1,4,-1
 185 177 l 1,5,-1
 89 0 l 1,6,-1
 -53 0 l 1,7,-1
 352 710 l 1,0,-1
411 274 m 1,8,-1
 380 553 l 1,9,-1
 228 274 l 1,10,-1
 411 274 l 1,8,-1
323 917 m 1,11,-1
 446 917 l 1,12,-1
 472 798 l 1,13,-1
 379 780 l 1,14,-1
 323 917 l 1,11,-1
EndSplineSet
EndChar

StartChar: Aacute
Encoding: 193 193 132
Width: 645
GlyphClass: 2
Flags: W
LayerCount: 2
Fore
SplineSet
352 710 m 1,0,-1
 475 710 l 1,1,-1
 578 0 l 1,2,-1
 436 0 l 1,3,-1
 414 177 l 1,4,-1
 185 177 l 1,5,-1
 89 0 l 1,6,-1
 -53 0 l 1,7,-1
 352 710 l 1,0,-1
411 274 m 1,8,-1
 380 553 l 1,9,-1
 228 274 l 1,10,-1
 411 274 l 1,8,-1
445 780 m 1,11,-1
 358 797 l 1,12,-1
 434 916 l 1,13,-1
 558 916 l 1,14,-1
 445 780 l 1,11,-1
EndSplineSet
EndChar

StartChar: Acircumflex
Encoding: 194 194 133
Width: 645
GlyphClass: 2
Flags: W
LayerCount: 2
Fore
SplineSet
352 710 m 1,0,-1
 475 710 l 1,1,-1
 578 0 l 1,2,-1
 436 0 l 1,3,-1
 414 177 l 1,4,-1
 185 177 l 1,5,-1
 89 0 l 1,6,-1
 -53 0 l 1,7,-1
 352 710 l 1,0,-1
411 274 m 1,8,-1
 380 553 l 1,9,-1
 228 274 l 1,10,-1
 411 274 l 1,8,-1
286 815 m 1,11,-1
 409 916 l 1,12,-1
 506 916 l 1,13,-1
 586 815 l 1,14,-1
 509 783 l 1,15,-1
 442 846 l 1,16,-1
 348 783 l 1,17,-1
 286 815 l 1,11,-1
EndSplineSet
EndChar

StartChar: Atilde
Encoding: 195 195 134
Width: 645
GlyphClass: 2
Flags: W
LayerCount: 2
Fore
SplineSet
352 710 m 1,0,-1
 475 710 l 1,1,-1
 578 0 l 1,2,-1
 436 0 l 1,3,-1
 414 177 l 1,4,-1
 185 177 l 1,5,-1
 89 0 l 1,6,-1
 -53 0 l 1,7,-1
 352 710 l 1,0,-1
411 274 m 1,8,-1
 380 553 l 1,9,-1
 228 274 l 1,10,-1
 411 274 l 1,8,-1
488 788 m 0,11,12
 467 788 467 788 452 795 c 128,-1,13
 437 802 437 802 424.5 810.5 c 128,-1,14
 412 819 412 819 400 826 c 128,-1,15
 388 833 388 833 372 833 c 256,16,17
 356 833 356 833 345.5 826 c 128,-1,18
 335 819 335 819 329 810 c 128,-1,19
 323 801 323 801 320.5 793.5 c 128,-1,20
 318 786 318 786 318 785 c 2,21,-1
 244 785 l 1,22,23
 246 794 246 794 256 815.5 c 128,-1,24
 266 837 266 837 284 858.5 c 128,-1,25
 302 880 302 880 327.5 896.5 c 128,-1,26
 353 913 353 913 385 913 c 0,27,28
 407 913 407 913 421 905.5 c 128,-1,29
 435 898 435 898 447 889.5 c 128,-1,30
 459 881 459 881 471 873.5 c 128,-1,31
 483 866 483 866 500 866 c 256,32,33
 517 866 517 866 528.5 873 c 128,-1,34
 540 880 540 880 547 889 c 128,-1,35
 554 898 554 898 557.5 906 c 128,-1,36
 561 914 561 914 561 916 c 2,37,-1
 634 916 l 1,38,39
 632 909 632 909 622 888 c 128,-1,40
 612 867 612 867 593.5 845 c 128,-1,41
 575 823 575 823 548.5 805.5 c 128,-1,42
 522 788 522 788 488 788 c 0,11,12
EndSplineSet
EndChar

StartChar: Adieresis
Encoding: 196 196 135
Width: 645
GlyphClass: 2
Flags: W
LayerCount: 2
Fore
SplineSet
352 710 m 1,0,-1
 475 710 l 1,1,-1
 578 0 l 1,2,-1
 436 0 l 1,3,-1
 414 177 l 1,4,-1
 185 177 l 1,5,-1
 89 0 l 1,6,-1
 -53 0 l 1,7,-1
 352 710 l 1,0,-1
411 274 m 1,8,-1
 380 553 l 1,9,-1
 228 274 l 1,10,-1
 411 274 l 1,8,-1
272 791 m 1,11,-1
 298 910 l 1,12,-1
 409 910 l 1,13,-1
 383 791 l 1,14,-1
 272 791 l 1,11,-1
460 791 m 1,15,-1
 485 910 l 1,16,-1
 595 910 l 1,17,-1
 571 791 l 1,18,-1
 460 791 l 1,15,-1
EndSplineSet
EndChar

StartChar: Aring
Encoding: 197 197 136
Width: 645
GlyphClass: 2
Flags: W
LayerCount: 2
Fore
SplineSet
352 710 m 1,0,-1
 475 710 l 1,1,-1
 578 0 l 1,2,-1
 436 0 l 1,3,-1
 414 177 l 1,4,-1
 185 177 l 1,5,-1
 89 0 l 1,6,-1
 -53 0 l 1,7,-1
 352 710 l 1,0,-1
411 274 m 1,8,-1
 380 553 l 1,9,-1
 228 274 l 1,10,-1
 411 274 l 1,8,-1
340 824 m 0,11,12
 340 868 340 868 372 892 c 128,-1,13
 404 916 404 916 453 916 c 0,14,15
 491 916 491 916 512 899.5 c 128,-1,16
 533 883 533 883 533 854 c 0,17,18
 533 811 533 811 501.5 786.5 c 128,-1,19
 470 762 470 762 420 762 c 0,20,21
 383 762 383 762 361.5 778.5 c 128,-1,22
 340 795 340 795 340 824 c 0,11,12
444 875 m 0,23,24
 425 875 425 875 411.5 863 c 128,-1,25
 398 851 398 851 398 833 c 0,26,27
 398 820 398 820 406.5 811.5 c 128,-1,28
 415 803 415 803 429 803 c 0,29,30
 446 803 446 803 461 815 c 128,-1,31
 476 827 476 827 476 845 c 0,32,33
 476 859 476 859 467 867 c 128,-1,34
 458 875 458 875 444 875 c 0,23,24
EndSplineSet
EndChar

StartChar: AE
Encoding: 198 198 137
Width: 929
GlyphClass: 2
Flags: W
LayerCount: 2
Fore
SplineSet
490 710 m 1,0,-1
 974 710 l 1,1,-1
 948 589 l 1,2,-1
 637 589 l 1,3,-1
 602 422 l 1,4,-1
 861 422 l 1,5,-1
 835 301 l 1,6,-1
 576 301 l 1,7,-1
 538 121 l 1,8,-1
 856 121 l 1,9,-1
 831 0 l 1,10,-1
 375 0 l 1,11,-1
 413 177 l 1,12,-1
 200 177 l 1,13,-1
 67 0 l 1,14,-1
 -80 0 l 1,15,-1
 490 710 l 1,0,-1
428 297 m 1,16,-1
 483 555 l 1,17,-1
 285 297 l 1,18,-1
 428 297 l 1,16,-1
EndSplineSet
EndChar

StartChar: Ccedilla
Encoding: 199 199 138
Width: 656
GlyphClass: 2
Flags: W
LayerCount: 2
Fore
SplineSet
185 -127 m 1,0,1
 195 -134 195 -134 217.5 -140 c 128,-1,2
 240 -146 240 -146 266 -146 c 0,3,4
 293 -146 293 -146 310 -137 c 128,-1,5
 327 -128 327 -128 327 -107 c 0,6,7
 327 -92 327 -92 315 -86 c 128,-1,8
 303 -80 303 -80 283 -80 c 256,9,10
 263 -80 263 -80 240 -84.5 c 128,-1,11
 217 -89 217 -89 205 -92 c 1,12,-1
 265 -4 l 1,13,14
 210 2 210 2 167 29 c 128,-1,15
 124 56 124 56 95 97 c 128,-1,16
 66 138 66 138 50.5 189.5 c 128,-1,17
 35 241 35 241 35 296 c 0,18,19
 35 345 35 345 49 395 c 128,-1,20
 63 445 63 445 89.5 491.5 c 128,-1,21
 116 538 116 538 153.5 578.5 c 128,-1,22
 191 619 191 619 237.5 649 c 128,-1,23
 284 679 284 679 338 696.5 c 128,-1,24
 392 714 392 714 452 714 c 0,25,26
 546 714 546 714 605.5 671 c 128,-1,27
 665 628 665 628 683 559 c 1,28,-1
 562 486 l 1,29,30
 556 516 556 516 542 536.5 c 128,-1,31
 528 557 528 557 508.5 569 c 128,-1,32
 489 581 489 581 466.5 586.5 c 128,-1,33
 444 592 444 592 422 592 c 0,34,35
 366 592 366 592 320 565 c 128,-1,36
 274 538 274 538 242 496 c 128,-1,37
 210 454 210 454 192.5 403 c 128,-1,38
 175 352 175 352 175 304 c 0,39,40
 175 266 175 266 185 232 c 128,-1,41
 195 198 195 198 214 172 c 128,-1,42
 233 146 233 146 260.5 131 c 128,-1,43
 288 116 288 116 324 116 c 0,44,45
 346 116 346 116 371.5 122 c 128,-1,46
 397 128 397 128 421.5 141 c 128,-1,47
 446 154 446 154 468.5 174.5 c 128,-1,48
 491 195 491 195 509 224 c 1,49,-1
 608 159 l 1,50,51
 586 123 586 123 553.5 94 c 128,-1,52
 521 65 521 65 482.5 44 c 128,-1,53
 444 23 444 23 403 11 c 128,-1,54
 362 -1 362 -1 323 -4 c 1,55,-1
 292 -42 l 1,56,57
 299 -40 299 -40 307 -39 c 128,-1,58
 315 -38 315 -38 323 -38 c 0,59,60
 352 -38 352 -38 371.5 -51.5 c 128,-1,61
 391 -65 391 -65 391 -94 c 0,62,63
 391 -137 391 -137 355 -166.5 c 128,-1,64
 319 -196 319 -196 246 -196 c 0,65,66
 214 -196 214 -196 189.5 -190 c 128,-1,67
 165 -184 165 -184 148 -176 c 1,68,-1
 185 -127 l 1,0,1
EndSplineSet
EndChar

StartChar: Egrave
Encoding: 200 200 139
Width: 578
GlyphClass: 2
Flags: W
LayerCount: 2
Fore
SplineSet
161 710 m 1,0,-1
 621 710 l 1,1,-1
 596 589 l 1,2,-1
 272 589 l 1,3,-1
 236 418 l 1,4,-1
 515 418 l 1,5,-1
 491 306 l 1,6,-1
 212 306 l 1,7,-1
 173 121 l 1,8,-1
 505 121 l 1,9,-1
 479 0 l 1,10,-1
 10 0 l 1,11,-1
 161 710 l 1,0,-1
325 917 m 1,12,-1
 448 917 l 1,13,-1
 474 798 l 1,14,-1
 381 780 l 1,15,-1
 325 917 l 1,12,-1
EndSplineSet
EndChar

StartChar: Eacute
Encoding: 201 201 140
Width: 578
GlyphClass: 2
Flags: W
LayerCount: 2
Fore
SplineSet
431 780 m 1,0,-1
 344 797 l 1,1,-1
 420 916 l 1,2,-1
 544 916 l 1,3,-1
 431 780 l 1,0,-1
161 710 m 1,4,-1
 621 710 l 1,5,-1
 596 589 l 1,6,-1
 272 589 l 1,7,-1
 236 418 l 1,8,-1
 515 418 l 1,9,-1
 491 306 l 1,10,-1
 212 306 l 1,11,-1
 173 121 l 1,12,-1
 505 121 l 1,13,-1
 479 0 l 1,14,-1
 10 0 l 1,15,-1
 161 710 l 1,4,-1
EndSplineSet
EndChar

StartChar: Ecircumflex
Encoding: 202 202 141
Width: 578
GlyphClass: 2
Flags: W
LayerCount: 2
Fore
SplineSet
264 815 m 1,0,-1
 387 916 l 1,1,-1
 484 916 l 1,2,-1
 564 815 l 1,3,-1
 487 783 l 1,4,-1
 420 846 l 1,5,-1
 326 783 l 1,6,-1
 264 815 l 1,0,-1
161 710 m 1,7,-1
 621 710 l 1,8,-1
 596 589 l 1,9,-1
 272 589 l 1,10,-1
 236 418 l 1,11,-1
 515 418 l 1,12,-1
 491 306 l 1,13,-1
 212 306 l 1,14,-1
 173 121 l 1,15,-1
 505 121 l 1,16,-1
 479 0 l 1,17,-1
 10 0 l 1,18,-1
 161 710 l 1,7,-1
EndSplineSet
EndChar

StartChar: Edieresis
Encoding: 203 203 142
Width: 578
GlyphClass: 2
Flags: W
LayerCount: 2
Fore
SplineSet
258 791 m 1,0,-1
 284 910 l 1,1,-1
 395 910 l 1,2,-1
 369 791 l 1,3,-1
 258 791 l 1,0,-1
446 791 m 1,4,-1
 471 910 l 1,5,-1
 581 910 l 1,6,-1
 557 791 l 1,7,-1
 446 791 l 1,4,-1
161 710 m 1,8,-1
 621 710 l 1,9,-1
 596 589 l 1,10,-1
 272 589 l 1,11,-1
 236 418 l 1,12,-1
 515 418 l 1,13,-1
 491 306 l 1,14,-1
 212 306 l 1,15,-1
 173 121 l 1,16,-1
 505 121 l 1,17,-1
 479 0 l 1,18,-1
 10 0 l 1,19,-1
 161 710 l 1,8,-1
EndSplineSet
EndChar

StartChar: Igrave
Encoding: 204 204 143
Width: 285
GlyphClass: 2
Flags: W
LayerCount: 2
Fore
SplineSet
161 709 m 1,0,-1
 298 709 l 1,1,-1
 147 0 l 1,2,-1
 10 0 l 1,3,-1
 161 709 l 1,0,-1
160 917 m 1,4,-1
 283 917 l 1,5,-1
 309 798 l 1,6,-1
 216 780 l 1,7,-1
 160 917 l 1,4,-1
EndSplineSet
EndChar

StartChar: Iacute
Encoding: 205 205 144
Width: 285
GlyphClass: 2
Flags: W
LayerCount: 2
Fore
SplineSet
161 709 m 1,0,-1
 298 709 l 1,1,-1
 147 0 l 1,2,-1
 10 0 l 1,3,-1
 161 709 l 1,0,-1
257 780 m 1,4,-1
 170 797 l 1,5,-1
 246 916 l 1,6,-1
 370 916 l 1,7,-1
 257 780 l 1,4,-1
EndSplineSet
EndChar

StartChar: Icircumflex
Encoding: 206 206 145
Width: 285
GlyphClass: 2
Flags: W
LayerCount: 2
Fore
SplineSet
161 709 m 1,0,-1
 298 709 l 1,1,-1
 147 0 l 1,2,-1
 10 0 l 1,3,-1
 161 709 l 1,0,-1
102 815 m 1,4,-1
 225 916 l 1,5,-1
 322 916 l 1,6,-1
 402 815 l 1,7,-1
 325 783 l 1,8,-1
 258 846 l 1,9,-1
 164 783 l 1,10,-1
 102 815 l 1,4,-1
EndSplineSet
EndChar

StartChar: Idieresis
Encoding: 207 207 146
Width: 285
GlyphClass: 2
Flags: W
LayerCount: 2
Fore
SplineSet
161 709 m 1,0,-1
 298 709 l 1,1,-1
 147 0 l 1,2,-1
 10 0 l 1,3,-1
 161 709 l 1,0,-1
97 791 m 1,4,-1
 123 910 l 1,5,-1
 234 910 l 1,6,-1
 208 791 l 1,7,-1
 97 791 l 1,4,-1
285 791 m 1,8,-1
 310 910 l 1,9,-1
 420 910 l 1,10,-1
 396 791 l 1,11,-1
 285 791 l 1,8,-1
EndSplineSet
EndChar

StartChar: Eth
Encoding: 208 208 147
Width: 698
GlyphClass: 2
Flags: W
LayerCount: 2
Fore
SplineSet
57 407 m 1,0,-1
 101 407 l 1,1,-1
 166 710 l 1,2,-1
 413 710 l 2,3,4
 482 710 482 710 532.5 688.5 c 128,-1,5
 583 667 583 667 616 630 c 128,-1,6
 649 593 649 593 665 543 c 128,-1,7
 681 493 681 493 681 435 c 0,8,9
 681 341 681 341 649.5 261.5 c 128,-1,10
 618 182 618 182 561.5 124 c 128,-1,11
 505 66 505 66 428.5 33 c 128,-1,12
 352 0 352 0 262 0 c 2,13,-1
 15 0 l 1,14,-1
 80 307 l 1,15,-1
 36 307 l 1,16,-1
 57 407 l 1,0,-1
288 121 m 2,17,18
 345 121 345 121 391.5 145 c 128,-1,19
 438 169 438 169 471 209.5 c 128,-1,20
 504 250 504 250 522 303 c 128,-1,21
 540 356 540 356 540 415 c 0,22,23
 540 454 540 454 530 486 c 128,-1,24
 520 518 520 518 501 541 c 128,-1,25
 482 564 482 564 453 576.5 c 128,-1,26
 424 589 424 589 387 589 c 2,27,-1
 278 589 l 1,28,-1
 239 407 l 1,29,-1
 369 407 l 1,30,-1
 347 307 l 1,31,-1
 217 307 l 1,32,-1
 178 121 l 1,33,-1
 288 121 l 2,17,18
EndSplineSet
EndChar

StartChar: Ntilde
Encoding: 209 209 148
Width: 733
GlyphClass: 2
Flags: W
LayerCount: 2
Fore
SplineSet
161 710 m 1,0,-1
 268 710 l 1,1,-1
 510 244 l 1,2,-1
 609 709 l 1,3,-1
 746 709 l 1,4,-1
 595 0 l 1,5,-1
 484 0 l 1,6,-1
 243 455 l 1,7,-1
 147 0 l 1,8,-1
 10 0 l 1,9,-1
 161 710 l 1,0,-1
531 788 m 0,10,11
 510 788 510 788 495 795 c 128,-1,12
 480 802 480 802 467.5 810.5 c 128,-1,13
 455 819 455 819 443 826 c 128,-1,14
 431 833 431 833 415 833 c 256,15,16
 399 833 399 833 388.5 826 c 128,-1,17
 378 819 378 819 372 810 c 128,-1,18
 366 801 366 801 363.5 793.5 c 128,-1,19
 361 786 361 786 361 785 c 2,20,-1
 287 785 l 1,21,22
 289 794 289 794 299 815.5 c 128,-1,23
 309 837 309 837 327 858.5 c 128,-1,24
 345 880 345 880 370.5 896.5 c 128,-1,25
 396 913 396 913 428 913 c 0,26,27
 450 913 450 913 464 905.5 c 128,-1,28
 478 898 478 898 490 889.5 c 128,-1,29
 502 881 502 881 514 873.5 c 128,-1,30
 526 866 526 866 543 866 c 256,31,32
 560 866 560 866 571.5 873 c 128,-1,33
 583 880 583 880 590 889 c 128,-1,34
 597 898 597 898 600.5 906 c 128,-1,35
 604 914 604 914 604 916 c 2,36,-1
 677 916 l 1,37,38
 675 909 675 909 665 888 c 128,-1,39
 655 867 655 867 636.5 845 c 128,-1,40
 618 823 618 823 591.5 805.5 c 128,-1,41
 565 788 565 788 531 788 c 0,10,11
EndSplineSet
EndChar

StartChar: Ograve
Encoding: 210 210 149
Width: 729
GlyphClass: 2
Flags: W
LayerCount: 2
Fore
SplineSet
299 -5 m 0,0,1
 236 -5 236 -5 187 19.5 c 128,-1,2
 138 44 138 44 104.5 85 c 128,-1,3
 71 126 71 126 54 179 c 128,-1,4
 37 232 37 232 37 290 c 0,5,6
 37 371 37 371 71.5 447.5 c 128,-1,7
 106 524 106 524 164 583.5 c 128,-1,8
 222 643 222 643 297.5 679 c 128,-1,9
 373 715 373 715 455 715 c 0,10,11
 518 715 518 715 566.5 690 c 128,-1,12
 615 665 615 665 647.5 624 c 128,-1,13
 680 583 680 583 697 529 c 128,-1,14
 714 475 714 475 714 418 c 0,15,16
 714 338 714 338 680 261.5 c 128,-1,17
 646 185 646 185 588.5 126 c 128,-1,18
 531 67 531 67 456 31 c 128,-1,19
 381 -5 381 -5 299 -5 c 0,0,1
326 117 m 0,20,21
 381 117 381 117 426.5 144 c 128,-1,22
 472 171 472 171 505 213 c 128,-1,23
 538 255 538 255 556 306.5 c 128,-1,24
 574 358 574 358 574 408 c 0,25,26
 574 445 574 445 565 478.5 c 128,-1,27
 556 512 556 512 537.5 537 c 128,-1,28
 519 562 519 562 491 577 c 128,-1,29
 463 592 463 592 426 592 c 0,30,31
 371 592 371 592 325 565.5 c 128,-1,32
 279 539 279 539 246 497 c 128,-1,33
 213 455 213 455 195 403.5 c 128,-1,34
 177 352 177 352 177 301 c 0,35,36
 177 264 177 264 186 231 c 128,-1,37
 195 198 195 198 214 172.5 c 128,-1,38
 233 147 233 147 260.5 132 c 128,-1,39
 288 117 288 117 326 117 c 0,20,21
394 917 m 1,40,-1
 517 917 l 1,41,-1
 543 798 l 1,42,-1
 450 780 l 1,43,-1
 394 917 l 1,40,-1
EndSplineSet
EndChar

StartChar: Oacute
Encoding: 211 211 150
Width: 729
GlyphClass: 2
Flags: W
LayerCount: 2
Fore
SplineSet
494 780 m 1,0,-1
 407 797 l 1,1,-1
 483 916 l 1,2,-1
 607 916 l 1,3,-1
 494 780 l 1,0,-1
299 -5 m 0,4,5
 236 -5 236 -5 187 19.5 c 128,-1,6
 138 44 138 44 104.5 85 c 128,-1,7
 71 126 71 126 54 179 c 128,-1,8
 37 232 37 232 37 290 c 0,9,10
 37 371 37 371 71.5 447.5 c 128,-1,11
 106 524 106 524 164 583.5 c 128,-1,12
 222 643 222 643 297.5 679 c 128,-1,13
 373 715 373 715 455 715 c 0,14,15
 518 715 518 715 566.5 690 c 128,-1,16
 615 665 615 665 647.5 624 c 128,-1,17
 680 583 680 583 697 529 c 128,-1,18
 714 475 714 475 714 418 c 0,19,20
 714 338 714 338 680 261.5 c 128,-1,21
 646 185 646 185 588.5 126 c 128,-1,22
 531 67 531 67 456 31 c 128,-1,23
 381 -5 381 -5 299 -5 c 0,4,5
326 117 m 0,24,25
 381 117 381 117 426.5 144 c 128,-1,26
 472 171 472 171 505 213 c 128,-1,27
 538 255 538 255 556 306.5 c 128,-1,28
 574 358 574 358 574 408 c 0,29,30
 574 445 574 445 565 478.5 c 128,-1,31
 556 512 556 512 537.5 537 c 128,-1,32
 519 562 519 562 491 577 c 128,-1,33
 463 592 463 592 426 592 c 0,34,35
 371 592 371 592 325 565.5 c 128,-1,36
 279 539 279 539 246 497 c 128,-1,37
 213 455 213 455 195 403.5 c 128,-1,38
 177 352 177 352 177 301 c 0,39,40
 177 264 177 264 186 231 c 128,-1,41
 195 198 195 198 214 172.5 c 128,-1,42
 233 147 233 147 260.5 132 c 128,-1,43
 288 117 288 117 326 117 c 0,24,25
EndSplineSet
EndChar

StartChar: Ocircumflex
Encoding: 212 212 151
Width: 729
GlyphClass: 2
Flags: W
LayerCount: 2
Fore
SplineSet
329 815 m 1,0,-1
 452 916 l 1,1,-1
 549 916 l 1,2,-1
 629 815 l 1,3,-1
 552 783 l 1,4,-1
 485 846 l 1,5,-1
 391 783 l 1,6,-1
 329 815 l 1,0,-1
299 -5 m 0,7,8
 236 -5 236 -5 187 19.5 c 128,-1,9
 138 44 138 44 104.5 85 c 128,-1,10
 71 126 71 126 54 179 c 128,-1,11
 37 232 37 232 37 290 c 0,12,13
 37 371 37 371 71.5 447.5 c 128,-1,14
 106 524 106 524 164 583.5 c 128,-1,15
 222 643 222 643 297.5 679 c 128,-1,16
 373 715 373 715 455 715 c 0,17,18
 518 715 518 715 566.5 690 c 128,-1,19
 615 665 615 665 647.5 624 c 128,-1,20
 680 583 680 583 697 529 c 128,-1,21
 714 475 714 475 714 418 c 0,22,23
 714 338 714 338 680 261.5 c 128,-1,24
 646 185 646 185 588.5 126 c 128,-1,25
 531 67 531 67 456 31 c 128,-1,26
 381 -5 381 -5 299 -5 c 0,7,8
326 117 m 0,27,28
 381 117 381 117 426.5 144 c 128,-1,29
 472 171 472 171 505 213 c 128,-1,30
 538 255 538 255 556 306.5 c 128,-1,31
 574 358 574 358 574 408 c 0,32,33
 574 445 574 445 565 478.5 c 128,-1,34
 556 512 556 512 537.5 537 c 128,-1,35
 519 562 519 562 491 577 c 128,-1,36
 463 592 463 592 426 592 c 0,37,38
 371 592 371 592 325 565.5 c 128,-1,39
 279 539 279 539 246 497 c 128,-1,40
 213 455 213 455 195 403.5 c 128,-1,41
 177 352 177 352 177 301 c 0,42,43
 177 264 177 264 186 231 c 128,-1,44
 195 198 195 198 214 172.5 c 128,-1,45
 233 147 233 147 260.5 132 c 128,-1,46
 288 117 288 117 326 117 c 0,27,28
EndSplineSet
EndChar

StartChar: Otilde
Encoding: 213 213 152
Width: 729
GlyphClass: 2
Flags: W
LayerCount: 2
Fore
SplineSet
299 -5 m 0,0,1
 236 -5 236 -5 187 19.5 c 128,-1,2
 138 44 138 44 104.5 85 c 128,-1,3
 71 126 71 126 54 179 c 128,-1,4
 37 232 37 232 37 290 c 0,5,6
 37 371 37 371 71.5 447.5 c 128,-1,7
 106 524 106 524 164 583.5 c 128,-1,8
 222 643 222 643 297.5 679 c 128,-1,9
 373 715 373 715 455 715 c 0,10,11
 518 715 518 715 566.5 690 c 128,-1,12
 615 665 615 665 647.5 624 c 128,-1,13
 680 583 680 583 697 529 c 128,-1,14
 714 475 714 475 714 418 c 0,15,16
 714 338 714 338 680 261.5 c 128,-1,17
 646 185 646 185 588.5 126 c 128,-1,18
 531 67 531 67 456 31 c 128,-1,19
 381 -5 381 -5 299 -5 c 0,0,1
326 117 m 0,20,21
 381 117 381 117 426.5 144 c 128,-1,22
 472 171 472 171 505 213 c 128,-1,23
 538 255 538 255 556 306.5 c 128,-1,24
 574 358 574 358 574 408 c 0,25,26
 574 445 574 445 565 478.5 c 128,-1,27
 556 512 556 512 537.5 537 c 128,-1,28
 519 562 519 562 491 577 c 128,-1,29
 463 592 463 592 426 592 c 0,30,31
 371 592 371 592 325 565.5 c 128,-1,32
 279 539 279 539 246 497 c 128,-1,33
 213 455 213 455 195 403.5 c 128,-1,34
 177 352 177 352 177 301 c 0,35,36
 177 264 177 264 186 231 c 128,-1,37
 195 198 195 198 214 172.5 c 128,-1,38
 233 147 233 147 260.5 132 c 128,-1,39
 288 117 288 117 326 117 c 0,20,21
534 788 m 0,40,41
 513 788 513 788 498 795 c 128,-1,42
 483 802 483 802 470.5 810.5 c 128,-1,43
 458 819 458 819 446 826 c 128,-1,44
 434 833 434 833 418 833 c 256,45,46
 402 833 402 833 391.5 826 c 128,-1,47
 381 819 381 819 375 810 c 128,-1,48
 369 801 369 801 366.5 793.5 c 128,-1,49
 364 786 364 786 364 785 c 2,50,-1
 290 785 l 1,51,52
 292 794 292 794 302 815.5 c 128,-1,53
 312 837 312 837 330 858.5 c 128,-1,54
 348 880 348 880 373.5 896.5 c 128,-1,55
 399 913 399 913 431 913 c 0,56,57
 453 913 453 913 467 905.5 c 128,-1,58
 481 898 481 898 493 889.5 c 128,-1,59
 505 881 505 881 517 873.5 c 128,-1,60
 529 866 529 866 546 866 c 256,61,62
 563 866 563 866 574.5 873 c 128,-1,63
 586 880 586 880 593 889 c 128,-1,64
 600 898 600 898 603.5 906 c 128,-1,65
 607 914 607 914 607 916 c 2,66,-1
 680 916 l 1,67,68
 678 909 678 909 668 888 c 128,-1,69
 658 867 658 867 639.5 845 c 128,-1,70
 621 823 621 823 594.5 805.5 c 128,-1,71
 568 788 568 788 534 788 c 0,40,41
EndSplineSet
EndChar

StartChar: Odieresis
Encoding: 214 214 153
Width: 729
GlyphClass: 2
Flags: W
LayerCount: 2
Fore
SplineSet
321 791 m 1,0,-1
 347 910 l 1,1,-1
 458 910 l 1,2,-1
 432 791 l 1,3,-1
 321 791 l 1,0,-1
509 791 m 1,4,-1
 534 910 l 1,5,-1
 644 910 l 1,6,-1
 620 791 l 1,7,-1
 509 791 l 1,4,-1
299 -5 m 0,8,9
 236 -5 236 -5 187 19.5 c 128,-1,10
 138 44 138 44 104.5 85 c 128,-1,11
 71 126 71 126 54 179 c 128,-1,12
 37 232 37 232 37 290 c 0,13,14
 37 371 37 371 71.5 447.5 c 128,-1,15
 106 524 106 524 164 583.5 c 128,-1,16
 222 643 222 643 297.5 679 c 128,-1,17
 373 715 373 715 455 715 c 0,18,19
 518 715 518 715 566.5 690 c 128,-1,20
 615 665 615 665 647.5 624 c 128,-1,21
 680 583 680 583 697 529 c 128,-1,22
 714 475 714 475 714 418 c 0,23,24
 714 338 714 338 680 261.5 c 128,-1,25
 646 185 646 185 588.5 126 c 128,-1,26
 531 67 531 67 456 31 c 128,-1,27
 381 -5 381 -5 299 -5 c 0,8,9
326 117 m 0,28,29
 381 117 381 117 426.5 144 c 128,-1,30
 472 171 472 171 505 213 c 128,-1,31
 538 255 538 255 556 306.5 c 128,-1,32
 574 358 574 358 574 408 c 0,33,34
 574 445 574 445 565 478.5 c 128,-1,35
 556 512 556 512 537.5 537 c 128,-1,36
 519 562 519 562 491 577 c 128,-1,37
 463 592 463 592 426 592 c 0,38,39
 371 592 371 592 325 565.5 c 128,-1,40
 279 539 279 539 246 497 c 128,-1,41
 213 455 213 455 195 403.5 c 128,-1,42
 177 352 177 352 177 301 c 0,43,44
 177 264 177 264 186 231 c 128,-1,45
 195 198 195 198 214 172.5 c 128,-1,46
 233 147 233 147 260.5 132 c 128,-1,47
 288 117 288 117 326 117 c 0,28,29
EndSplineSet
EndChar

StartChar: multiply
Encoding: 215 215 154
Width: 487
GlyphClass: 2
Flags: W
LayerCount: 2
Fore
SplineSet
423 172 m 1,0,-1
 338 89 l 1,1,-1
 235 192 l 1,2,-1
 132 89 l 1,3,-1
 49 173 l 1,4,-1
 151 275 l 1,5,-1
 53 374 l 1,6,-1
 138 457 l 1,7,-1
 236 359 l 1,8,-1
 334 458 l 1,9,-1
 417 374 l 1,10,-1
 319 275 l 1,11,-1
 423 172 l 1,0,-1
EndSplineSet
EndChar

StartChar: Oslash
Encoding: 216 216 155
Width: 729
GlyphClass: 2
Flags: W
LayerCount: 2
Fore
SplineSet
763 710 m 1,0,-1
 665 599 l 1,1,2
 689 560 689 560 701.5 513.5 c 128,-1,3
 714 467 714 467 714 418 c 0,4,5
 714 338 714 338 680 261.5 c 128,-1,6
 646 185 646 185 588.5 126 c 128,-1,7
 531 67 531 67 456 31 c 128,-1,8
 381 -5 381 -5 299 -5 c 0,9,10
 260 -5 260 -5 227 4.5 c 128,-1,11
 194 14 194 14 166 31 c 1,12,-1
 139 0 l 1,13,-1
 -9 0 l 1,14,-1
 87 109 l 1,15,16
 62 147 62 147 49.5 193.5 c 128,-1,17
 37 240 37 240 37 290 c 0,18,19
 37 371 37 371 71.5 447.5 c 128,-1,20
 106 524 106 524 164 583.5 c 128,-1,21
 222 643 222 643 297.5 679 c 128,-1,22
 373 715 373 715 455 715 c 0,23,24
 493 715 493 715 526.5 705 c 128,-1,25
 560 695 560 695 587 678 c 1,26,-1
 615 710 l 1,27,-1
 763 710 l 1,0,-1
177 301 m 0,28,29
 177 281 177 281 179.5 261 c 128,-1,30
 182 241 182 241 188 224 c 1,31,-1
 496 574 l 1,32,33
 481 582 481 582 463.5 587 c 128,-1,34
 446 592 446 592 426 592 c 0,35,36
 371 592 371 592 325 565.5 c 128,-1,37
 279 539 279 539 246 497 c 128,-1,38
 213 455 213 455 195 403.5 c 128,-1,39
 177 352 177 352 177 301 c 0,28,29
326 117 m 0,40,41
 381 117 381 117 426.5 144 c 128,-1,42
 472 171 472 171 505 213 c 128,-1,43
 538 255 538 255 556 306.5 c 128,-1,44
 574 358 574 358 574 408 c 0,45,46
 574 447 574 447 563 483 c 1,47,-1
 256 134 l 1,48,49
 287 117 287 117 326 117 c 0,40,41
EndSplineSet
EndChar

StartChar: Ugrave
Encoding: 217 217 156
Width: 719
GlyphClass: 2
Flags: W
LayerCount: 2
Fore
SplineSet
295 -5 m 0,0,1
 231 -5 231 -5 186.5 13.5 c 128,-1,2
 142 32 142 32 114 64.5 c 128,-1,3
 86 97 86 97 73.5 140.5 c 128,-1,4
 61 184 61 184 61 235 c 0,5,6
 61 290 61 290 74 348 c 2,7,-1
 151 710 l 1,8,-1
 288 710 l 1,9,-1
 211 348 l 2,10,11
 206 325 206 325 203.5 302.5 c 128,-1,12
 201 280 201 280 201 259 c 0,13,14
 201 229 201 229 207 203 c 128,-1,15
 213 177 213 177 227.5 158 c 128,-1,16
 242 139 242 139 264.5 128 c 128,-1,17
 287 117 287 117 320 117 c 0,18,19
 365 117 365 117 400 137 c 128,-1,20
 435 157 435 157 460.5 189 c 128,-1,21
 486 221 486 221 503 262.5 c 128,-1,22
 520 304 520 304 529 348 c 2,23,-1
 606 710 l 1,24,-1
 743 710 l 1,25,-1
 666 348 l 2,26,27
 651 275 651 275 620 211 c 128,-1,28
 589 147 589 147 543 99 c 128,-1,29
 497 51 497 51 435 23 c 128,-1,30
 373 -5 373 -5 295 -5 c 0,0,1
378 917 m 1,31,-1
 501 917 l 1,32,-1
 527 798 l 1,33,-1
 434 780 l 1,34,-1
 378 917 l 1,31,-1
EndSplineSet
EndChar

StartChar: Uacute
Encoding: 218 218 157
Width: 719
GlyphClass: 2
Flags: W
LayerCount: 2
Fore
SplineSet
481 780 m 1,0,-1
 394 797 l 1,1,-1
 470 916 l 1,2,-1
 594 916 l 1,3,-1
 481 780 l 1,0,-1
295 -5 m 0,4,5
 231 -5 231 -5 186.5 13.5 c 128,-1,6
 142 32 142 32 114 64.5 c 128,-1,7
 86 97 86 97 73.5 140.5 c 128,-1,8
 61 184 61 184 61 235 c 0,9,10
 61 290 61 290 74 348 c 2,11,-1
 151 710 l 1,12,-1
 288 710 l 1,13,-1
 211 348 l 2,14,15
 206 325 206 325 203.5 302.5 c 128,-1,16
 201 280 201 280 201 259 c 0,17,18
 201 229 201 229 207 203 c 128,-1,19
 213 177 213 177 227.5 158 c 128,-1,20
 242 139 242 139 264.5 128 c 128,-1,21
 287 117 287 117 320 117 c 0,22,23
 365 117 365 117 400 137 c 128,-1,24
 435 157 435 157 460.5 189 c 128,-1,25
 486 221 486 221 503 262.5 c 128,-1,26
 520 304 520 304 529 348 c 2,27,-1
 606 710 l 1,28,-1
 743 710 l 1,29,-1
 666 348 l 2,30,31
 651 275 651 275 620 211 c 128,-1,32
 589 147 589 147 543 99 c 128,-1,33
 497 51 497 51 435 23 c 128,-1,34
 373 -5 373 -5 295 -5 c 0,4,5
EndSplineSet
EndChar

StartChar: Ucircumflex
Encoding: 219 219 158
Width: 719
GlyphClass: 2
Flags: W
LayerCount: 2
Fore
SplineSet
315 815 m 1,0,-1
 438 916 l 1,1,-1
 535 916 l 1,2,-1
 615 815 l 1,3,-1
 538 783 l 1,4,-1
 471 846 l 1,5,-1
 377 783 l 1,6,-1
 315 815 l 1,0,-1
295 -5 m 0,7,8
 231 -5 231 -5 186.5 13.5 c 128,-1,9
 142 32 142 32 114 64.5 c 128,-1,10
 86 97 86 97 73.5 140.5 c 128,-1,11
 61 184 61 184 61 235 c 0,12,13
 61 290 61 290 74 348 c 2,14,-1
 151 710 l 1,15,-1
 288 710 l 1,16,-1
 211 348 l 2,17,18
 206 325 206 325 203.5 302.5 c 128,-1,19
 201 280 201 280 201 259 c 0,20,21
 201 229 201 229 207 203 c 128,-1,22
 213 177 213 177 227.5 158 c 128,-1,23
 242 139 242 139 264.5 128 c 128,-1,24
 287 117 287 117 320 117 c 0,25,26
 365 117 365 117 400 137 c 128,-1,27
 435 157 435 157 460.5 189 c 128,-1,28
 486 221 486 221 503 262.5 c 128,-1,29
 520 304 520 304 529 348 c 2,30,-1
 606 710 l 1,31,-1
 743 710 l 1,32,-1
 666 348 l 2,33,34
 651 275 651 275 620 211 c 128,-1,35
 589 147 589 147 543 99 c 128,-1,36
 497 51 497 51 435 23 c 128,-1,37
 373 -5 373 -5 295 -5 c 0,7,8
EndSplineSet
EndChar

StartChar: Udieresis
Encoding: 220 220 159
Width: 719
GlyphClass: 2
Flags: W
LayerCount: 2
Fore
SplineSet
309 791 m 1,0,-1
 335 910 l 1,1,-1
 446 910 l 1,2,-1
 420 791 l 1,3,-1
 309 791 l 1,0,-1
497 791 m 1,4,-1
 522 910 l 1,5,-1
 632 910 l 1,6,-1
 608 791 l 1,7,-1
 497 791 l 1,4,-1
295 -5 m 0,8,9
 231 -5 231 -5 186.5 13.5 c 128,-1,10
 142 32 142 32 114 64.5 c 128,-1,11
 86 97 86 97 73.5 140.5 c 128,-1,12
 61 184 61 184 61 235 c 0,13,14
 61 290 61 290 74 348 c 2,15,-1
 151 710 l 1,16,-1
 288 710 l 1,17,-1
 211 348 l 2,18,19
 206 325 206 325 203.5 302.5 c 128,-1,20
 201 280 201 280 201 259 c 0,21,22
 201 229 201 229 207 203 c 128,-1,23
 213 177 213 177 227.5 158 c 128,-1,24
 242 139 242 139 264.5 128 c 128,-1,25
 287 117 287 117 320 117 c 0,26,27
 365 117 365 117 400 137 c 128,-1,28
 435 157 435 157 460.5 189 c 128,-1,29
 486 221 486 221 503 262.5 c 128,-1,30
 520 304 520 304 529 348 c 2,31,-1
 606 710 l 1,32,-1
 743 710 l 1,33,-1
 666 348 l 2,34,35
 651 275 651 275 620 211 c 128,-1,36
 589 147 589 147 543 99 c 128,-1,37
 497 51 497 51 435 23 c 128,-1,38
 373 -5 373 -5 295 -5 c 0,8,9
EndSplineSet
EndChar

StartChar: Yacute
Encoding: 221 221 160
Width: 619
GlyphClass: 2
Flags: W
LayerCount: 2
Fore
SplineSet
225 250 m 1,0,-1
 81 710 l 1,1,-1
 231 710 l 1,2,-1
 319 368 l 1,3,-1
 555 710 l 1,4,-1
 704 710 l 1,5,-1
 361 248 l 1,6,-1
 309 0 l 1,7,-1
 172 0 l 1,8,-1
 225 250 l 1,0,-1
423 780 m 1,9,-1
 336 797 l 1,10,-1
 412 916 l 1,11,-1
 536 916 l 1,12,-1
 423 780 l 1,9,-1
EndSplineSet
EndChar

StartChar: Thorn
Encoding: 222 222 161
Width: 583
GlyphClass: 2
Flags: W
LayerCount: 2
Fore
SplineSet
161 710 m 1,0,-1
 298 710 l 1,1,-1
 271 582 l 1,2,-1
 403 582 l 2,3,4
 444 582 444 582 476 565.5 c 128,-1,5
 508 549 508 549 530 521.5 c 128,-1,6
 552 494 552 494 563.5 458.5 c 128,-1,7
 575 423 575 423 575 386 c 0,8,9
 575 336 575 336 554 286.5 c 128,-1,10
 533 237 533 237 496.5 198 c 128,-1,11
 460 159 460 159 411.5 134.5 c 128,-1,12
 363 110 363 110 309 110 c 2,13,-1
 170 110 l 1,14,-1
 147 0 l 1,15,-1
 10 0 l 1,16,-1
 161 710 l 1,0,-1
328 231 m 2,17,18
 349 231 349 231 368.5 243 c 128,-1,19
 388 255 388 255 403 274.5 c 128,-1,20
 418 294 418 294 427 319.5 c 128,-1,21
 436 345 436 345 436 372 c 0,22,23
 436 411 436 411 417.5 436 c 128,-1,24
 399 461 399 461 371 461 c 2,25,-1
 245 461 l 1,26,-1
 196 231 l 1,27,-1
 328 231 l 2,17,18
EndSplineSet
EndChar

StartChar: germandbls
Encoding: 223 223 162
Width: 538
GlyphClass: 2
Flags: W
LayerCount: 2
Fore
SplineSet
200 117 m 1,0,1
 232 117 232 117 260.5 125.5 c 128,-1,2
 289 134 289 134 310 150 c 128,-1,3
 331 166 331 166 343 190 c 128,-1,4
 355 214 355 214 355 247 c 0,5,6
 355 289 355 289 330.5 311 c 128,-1,7
 306 333 306 333 272 333 c 2,8,-1
 252 333 l 1,9,-1
 277 453 l 1,10,-1
 296 453 l 2,11,12
 316 453 316 453 332 460.5 c 128,-1,13
 348 468 348 468 359.5 480.5 c 128,-1,14
 371 493 371 493 377 509.5 c 128,-1,15
 383 526 383 526 383 543 c 0,16,17
 383 572 383 572 366 586 c 128,-1,18
 349 600 349 600 325 600 c 0,19,20
 285 600 285 600 261.5 571 c 128,-1,21
 238 542 238 542 229 499 c 2,22,-1
 123 0 l 1,23,-1
 -4 0 l 1,24,-1
 106 522 l 2,25,26
 115 564 115 564 139 599.5 c 128,-1,27
 163 635 163 635 197 660.5 c 128,-1,28
 231 686 231 686 273 700 c 128,-1,29
 315 714 315 714 360 714 c 0,30,31
 430 714 430 714 473.5 678 c 128,-1,32
 517 642 517 642 517 580 c 0,33,34
 517 550 517 550 506.5 521.5 c 128,-1,35
 496 493 496 493 479.5 469 c 128,-1,36
 463 445 463 445 442 427.5 c 128,-1,37
 421 410 421 410 400 402 c 1,38,39
 446 388 446 388 470.5 347.5 c 128,-1,40
 495 307 495 307 495 253 c 0,41,42
 495 184 495 184 467.5 135.5 c 128,-1,43
 440 87 440 87 394.5 56 c 128,-1,44
 349 25 349 25 291.5 10 c 128,-1,45
 234 -5 234 -5 174 -6 c 1,46,-1
 200 117 l 1,0,1
EndSplineSet
EndChar

StartChar: agrave
Encoding: 224 224 163
Width: 624
GlyphClass: 2
Flags: W
LayerCount: 2
Fore
SplineSet
201 -10 m 0,0,1
 157 -10 157 -10 122.5 6.5 c 128,-1,2
 88 23 88 23 64 52 c 128,-1,3
 40 81 40 81 27.5 120.5 c 128,-1,4
 15 160 15 160 15 205 c 0,5,6
 15 270 15 270 38.5 329.5 c 128,-1,7
 62 389 62 389 101.5 434 c 128,-1,8
 141 479 141 479 193 506 c 128,-1,9
 245 533 245 533 302 533 c 0,10,11
 356 533 356 533 394 505 c 128,-1,12
 432 477 432 477 446 432 c 1,13,-1
 466 522 l 1,14,-1
 600 522 l 1,15,-1
 522 154 l 2,16,17
 519 143 519 143 519 136 c 0,18,19
 519 115 519 115 543 114 c 1,20,-1
 519 0 l 1,21,22
 501 -3 501 -3 487.5 -5 c 128,-1,23
 474 -7 474 -7 464 -7 c 0,24,25
 429 -7 429 -7 408.5 8 c 128,-1,26
 388 23 388 23 388 53 c 0,27,28
 388 65 388 65 394 91 c 1,29,30
 356 41 356 41 304.5 15.5 c 128,-1,31
 253 -10 253 -10 201 -10 c 0,0,1
261 104 m 0,32,33
 278 104 278 104 297.5 110.5 c 128,-1,34
 317 117 317 117 335 129 c 128,-1,35
 353 141 353 141 369 157 c 128,-1,36
 385 173 385 173 396 192 c 1,37,-1
 422 317 l 1,38,39
 416 361 416 361 387 390 c 128,-1,40
 358 419 358 419 320 419 c 0,41,42
 288 419 288 419 258 402.5 c 128,-1,43
 228 386 228 386 205.5 358.5 c 128,-1,44
 183 331 183 331 169.5 296.5 c 128,-1,45
 156 262 156 262 156 226 c 0,46,47
 156 174 156 174 184 139 c 128,-1,48
 212 104 212 104 261 104 c 0,32,33
237 730 m 1,49,-1
 360 730 l 1,50,-1
 386 611 l 1,51,-1
 293 593 l 1,52,-1
 237 730 l 1,49,-1
EndSplineSet
EndChar

StartChar: aacute
Encoding: 225 225 164
Width: 624
GlyphClass: 2
Flags: W
LayerCount: 2
Fore
SplineSet
201 -10 m 0,0,1
 157 -10 157 -10 122.5 6.5 c 128,-1,2
 88 23 88 23 64 52 c 128,-1,3
 40 81 40 81 27.5 120.5 c 128,-1,4
 15 160 15 160 15 205 c 0,5,6
 15 270 15 270 38.5 329.5 c 128,-1,7
 62 389 62 389 101.5 434 c 128,-1,8
 141 479 141 479 193 506 c 128,-1,9
 245 533 245 533 302 533 c 0,10,11
 356 533 356 533 394 505 c 128,-1,12
 432 477 432 477 446 432 c 1,13,-1
 466 522 l 1,14,-1
 600 522 l 1,15,-1
 522 154 l 2,16,17
 519 143 519 143 519 136 c 0,18,19
 519 115 519 115 543 114 c 1,20,-1
 519 0 l 1,21,22
 501 -3 501 -3 487.5 -5 c 128,-1,23
 474 -7 474 -7 464 -7 c 0,24,25
 429 -7 429 -7 408.5 8 c 128,-1,26
 388 23 388 23 388 53 c 0,27,28
 388 65 388 65 394 91 c 1,29,30
 356 41 356 41 304.5 15.5 c 128,-1,31
 253 -10 253 -10 201 -10 c 0,0,1
261 104 m 0,32,33
 278 104 278 104 297.5 110.5 c 128,-1,34
 317 117 317 117 335 129 c 128,-1,35
 353 141 353 141 369 157 c 128,-1,36
 385 173 385 173 396 192 c 1,37,-1
 422 317 l 1,38,39
 416 361 416 361 387 390 c 128,-1,40
 358 419 358 419 320 419 c 0,41,42
 288 419 288 419 258 402.5 c 128,-1,43
 228 386 228 386 205.5 358.5 c 128,-1,44
 183 331 183 331 169.5 296.5 c 128,-1,45
 156 262 156 262 156 226 c 0,46,47
 156 174 156 174 184 139 c 128,-1,48
 212 104 212 104 261 104 c 0,32,33
363 594 m 1,49,-1
 276 611 l 1,50,-1
 352 730 l 1,51,-1
 476 730 l 1,52,-1
 363 594 l 1,49,-1
EndSplineSet
EndChar

StartChar: acircumflex
Encoding: 226 226 165
Width: 624
GlyphClass: 2
Flags: W
LayerCount: 2
Fore
SplineSet
201 -10 m 0,0,1
 157 -10 157 -10 122.5 6.5 c 128,-1,2
 88 23 88 23 64 52 c 128,-1,3
 40 81 40 81 27.5 120.5 c 128,-1,4
 15 160 15 160 15 205 c 0,5,6
 15 270 15 270 38.5 329.5 c 128,-1,7
 62 389 62 389 101.5 434 c 128,-1,8
 141 479 141 479 193 506 c 128,-1,9
 245 533 245 533 302 533 c 0,10,11
 356 533 356 533 394 505 c 128,-1,12
 432 477 432 477 446 432 c 1,13,-1
 466 522 l 1,14,-1
 600 522 l 1,15,-1
 522 154 l 2,16,17
 519 143 519 143 519 136 c 0,18,19
 519 115 519 115 543 114 c 1,20,-1
 519 0 l 1,21,22
 501 -3 501 -3 487.5 -5 c 128,-1,23
 474 -7 474 -7 464 -7 c 0,24,25
 429 -7 429 -7 408.5 8 c 128,-1,26
 388 23 388 23 388 53 c 0,27,28
 388 65 388 65 394 91 c 1,29,30
 356 41 356 41 304.5 15.5 c 128,-1,31
 253 -10 253 -10 201 -10 c 0,0,1
261 104 m 0,32,33
 278 104 278 104 297.5 110.5 c 128,-1,34
 317 117 317 117 335 129 c 128,-1,35
 353 141 353 141 369 157 c 128,-1,36
 385 173 385 173 396 192 c 1,37,-1
 422 317 l 1,38,39
 416 361 416 361 387 390 c 128,-1,40
 358 419 358 419 320 419 c 0,41,42
 288 419 288 419 258 402.5 c 128,-1,43
 228 386 228 386 205.5 358.5 c 128,-1,44
 183 331 183 331 169.5 296.5 c 128,-1,45
 156 262 156 262 156 226 c 0,46,47
 156 174 156 174 184 139 c 128,-1,48
 212 104 212 104 261 104 c 0,32,33
191 629 m 1,49,-1
 314 730 l 1,50,-1
 411 730 l 1,51,-1
 491 629 l 1,52,-1
 414 597 l 1,53,-1
 347 660 l 1,54,-1
 253 597 l 1,55,-1
 191 629 l 1,49,-1
EndSplineSet
EndChar

StartChar: atilde
Encoding: 227 227 166
Width: 624
GlyphClass: 2
Flags: W
LayerCount: 2
Fore
SplineSet
201 -10 m 0,0,1
 157 -10 157 -10 122.5 6.5 c 128,-1,2
 88 23 88 23 64 52 c 128,-1,3
 40 81 40 81 27.5 120.5 c 128,-1,4
 15 160 15 160 15 205 c 0,5,6
 15 270 15 270 38.5 329.5 c 128,-1,7
 62 389 62 389 101.5 434 c 128,-1,8
 141 479 141 479 193 506 c 128,-1,9
 245 533 245 533 302 533 c 0,10,11
 356 533 356 533 394 505 c 128,-1,12
 432 477 432 477 446 432 c 1,13,-1
 466 522 l 1,14,-1
 600 522 l 1,15,-1
 522 154 l 2,16,17
 519 143 519 143 519 136 c 0,18,19
 519 115 519 115 543 114 c 1,20,-1
 519 0 l 1,21,22
 501 -3 501 -3 487.5 -5 c 128,-1,23
 474 -7 474 -7 464 -7 c 0,24,25
 429 -7 429 -7 408.5 8 c 128,-1,26
 388 23 388 23 388 53 c 0,27,28
 388 65 388 65 394 91 c 1,29,30
 356 41 356 41 304.5 15.5 c 128,-1,31
 253 -10 253 -10 201 -10 c 0,0,1
261 104 m 0,32,33
 278 104 278 104 297.5 110.5 c 128,-1,34
 317 117 317 117 335 129 c 128,-1,35
 353 141 353 141 369 157 c 128,-1,36
 385 173 385 173 396 192 c 1,37,-1
 422 317 l 1,38,39
 416 361 416 361 387 390 c 128,-1,40
 358 419 358 419 320 419 c 0,41,42
 288 419 288 419 258 402.5 c 128,-1,43
 228 386 228 386 205.5 358.5 c 128,-1,44
 183 331 183 331 169.5 296.5 c 128,-1,45
 156 262 156 262 156 226 c 0,46,47
 156 174 156 174 184 139 c 128,-1,48
 212 104 212 104 261 104 c 0,32,33
394 602 m 0,49,50
 373 602 373 602 358 609 c 128,-1,51
 343 616 343 616 330.5 624.5 c 128,-1,52
 318 633 318 633 306 640 c 128,-1,53
 294 647 294 647 278 647 c 256,54,55
 262 647 262 647 251.5 640 c 128,-1,56
 241 633 241 633 235 624 c 128,-1,57
 229 615 229 615 226.5 607.5 c 128,-1,58
 224 600 224 600 224 599 c 2,59,-1
 150 599 l 1,60,61
 152 608 152 608 162 629.5 c 128,-1,62
 172 651 172 651 190 672.5 c 128,-1,63
 208 694 208 694 233.5 710.5 c 128,-1,64
 259 727 259 727 291 727 c 0,65,66
 313 727 313 727 327 719.5 c 128,-1,67
 341 712 341 712 353 703.5 c 128,-1,68
 365 695 365 695 377 687.5 c 128,-1,69
 389 680 389 680 406 680 c 256,70,71
 423 680 423 680 434.5 687 c 128,-1,72
 446 694 446 694 453 703 c 128,-1,73
 460 712 460 712 463.5 720 c 128,-1,74
 467 728 467 728 467 730 c 2,75,-1
 540 730 l 1,76,77
 538 723 538 723 528 702 c 128,-1,78
 518 681 518 681 499.5 659 c 128,-1,79
 481 637 481 637 454.5 619.5 c 128,-1,80
 428 602 428 602 394 602 c 0,49,50
EndSplineSet
EndChar

StartChar: adieresis
Encoding: 228 228 167
Width: 624
GlyphClass: 2
Flags: W
LayerCount: 2
Fore
SplineSet
201 -10 m 0,0,1
 157 -10 157 -10 122.5 6.5 c 128,-1,2
 88 23 88 23 64 52 c 128,-1,3
 40 81 40 81 27.5 120.5 c 128,-1,4
 15 160 15 160 15 205 c 0,5,6
 15 270 15 270 38.5 329.5 c 128,-1,7
 62 389 62 389 101.5 434 c 128,-1,8
 141 479 141 479 193 506 c 128,-1,9
 245 533 245 533 302 533 c 0,10,11
 356 533 356 533 394 505 c 128,-1,12
 432 477 432 477 446 432 c 1,13,-1
 466 522 l 1,14,-1
 600 522 l 1,15,-1
 522 154 l 2,16,17
 519 143 519 143 519 136 c 0,18,19
 519 115 519 115 543 114 c 1,20,-1
 519 0 l 1,21,22
 501 -3 501 -3 487.5 -5 c 128,-1,23
 474 -7 474 -7 464 -7 c 0,24,25
 429 -7 429 -7 408.5 8 c 128,-1,26
 388 23 388 23 388 53 c 0,27,28
 388 65 388 65 394 91 c 1,29,30
 356 41 356 41 304.5 15.5 c 128,-1,31
 253 -10 253 -10 201 -10 c 0,0,1
261 104 m 0,32,33
 278 104 278 104 297.5 110.5 c 128,-1,34
 317 117 317 117 335 129 c 128,-1,35
 353 141 353 141 369 157 c 128,-1,36
 385 173 385 173 396 192 c 1,37,-1
 422 317 l 1,38,39
 416 361 416 361 387 390 c 128,-1,40
 358 419 358 419 320 419 c 0,41,42
 288 419 288 419 258 402.5 c 128,-1,43
 228 386 228 386 205.5 358.5 c 128,-1,44
 183 331 183 331 169.5 296.5 c 128,-1,45
 156 262 156 262 156 226 c 0,46,47
 156 174 156 174 184 139 c 128,-1,48
 212 104 212 104 261 104 c 0,32,33
187 604 m 1,49,-1
 213 723 l 1,50,-1
 324 723 l 1,51,-1
 298 604 l 1,52,-1
 187 604 l 1,49,-1
375 604 m 1,53,-1
 400 723 l 1,54,-1
 510 723 l 1,55,-1
 486 604 l 1,56,-1
 375 604 l 1,53,-1
EndSplineSet
EndChar

StartChar: aring
Encoding: 229 229 168
Width: 624
GlyphClass: 2
Flags: W
LayerCount: 2
Fore
SplineSet
201 -10 m 0,0,1
 157 -10 157 -10 122.5 6.5 c 128,-1,2
 88 23 88 23 64 52 c 128,-1,3
 40 81 40 81 27.5 120.5 c 128,-1,4
 15 160 15 160 15 205 c 0,5,6
 15 270 15 270 38.5 329.5 c 128,-1,7
 62 389 62 389 101.5 434 c 128,-1,8
 141 479 141 479 193 506 c 128,-1,9
 245 533 245 533 302 533 c 0,10,11
 356 533 356 533 394 505 c 128,-1,12
 432 477 432 477 446 432 c 1,13,-1
 466 522 l 1,14,-1
 600 522 l 1,15,-1
 522 154 l 2,16,17
 519 143 519 143 519 136 c 0,18,19
 519 115 519 115 543 114 c 1,20,-1
 519 0 l 1,21,22
 501 -3 501 -3 487.5 -5 c 128,-1,23
 474 -7 474 -7 464 -7 c 0,24,25
 429 -7 429 -7 408.5 8 c 128,-1,26
 388 23 388 23 388 53 c 0,27,28
 388 65 388 65 394 91 c 1,29,30
 356 41 356 41 304.5 15.5 c 128,-1,31
 253 -10 253 -10 201 -10 c 0,0,1
261 104 m 0,32,33
 278 104 278 104 297.5 110.5 c 128,-1,34
 317 117 317 117 335 129 c 128,-1,35
 353 141 353 141 369 157 c 128,-1,36
 385 173 385 173 396 192 c 1,37,-1
 422 317 l 1,38,39
 416 361 416 361 387 390 c 128,-1,40
 358 419 358 419 320 419 c 0,41,42
 288 419 288 419 258 402.5 c 128,-1,43
 228 386 228 386 205.5 358.5 c 128,-1,44
 183 331 183 331 169.5 296.5 c 128,-1,45
 156 262 156 262 156 226 c 0,46,47
 156 174 156 174 184 139 c 128,-1,48
 212 104 212 104 261 104 c 0,32,33
247 638 m 0,49,50
 247 682 247 682 279 706 c 128,-1,51
 311 730 311 730 360 730 c 0,52,53
 398 730 398 730 419 713.5 c 128,-1,54
 440 697 440 697 440 668 c 0,55,56
 440 625 440 625 408.5 600.5 c 128,-1,57
 377 576 377 576 327 576 c 0,58,59
 290 576 290 576 268.5 592.5 c 128,-1,60
 247 609 247 609 247 638 c 0,49,50
351 689 m 0,61,62
 332 689 332 689 318.5 677 c 128,-1,63
 305 665 305 665 305 647 c 0,64,65
 305 634 305 634 313.5 625.5 c 128,-1,66
 322 617 322 617 336 617 c 0,67,68
 353 617 353 617 368 629 c 128,-1,69
 383 641 383 641 383 659 c 0,70,71
 383 673 383 673 374 681 c 128,-1,72
 365 689 365 689 351 689 c 0,61,62
EndSplineSet
EndChar

StartChar: ae
Encoding: 230 230 169
Width: 894
GlyphClass: 2
Flags: W
LayerCount: 2
Fore
SplineSet
132 -10 m 0,0,1
 66 -10 66 -10 28 28.5 c 128,-1,2
 -10 67 -10 67 -10 127 c 0,3,4
 -10 170 -10 170 10 206 c 128,-1,5
 30 242 30 242 64 268.5 c 128,-1,6
 98 295 98 295 144 310 c 128,-1,7
 190 325 190 325 242 325 c 0,8,9
 273 325 273 325 301 320 c 128,-1,10
 329 315 329 315 349 305 c 1,11,12
 354 324 354 324 360.5 339 c 128,-1,13
 367 354 367 354 367 371 c 0,14,15
 367 402 367 402 344.5 421 c 128,-1,16
 322 440 322 440 277 440 c 0,17,18
 238 440 238 440 197 425 c 128,-1,19
 156 410 156 410 109 381 c 1,20,-1
 87 466 l 1,21,22
 199 533 199 533 311 533 c 0,23,24
 369 533 369 533 408.5 513.5 c 128,-1,25
 448 494 448 494 468 459 c 1,26,27
 507 493 507 493 556 513 c 128,-1,28
 605 533 605 533 661 533 c 0,29,30
 713 533 713 533 752.5 516 c 128,-1,31
 792 499 792 499 818.5 469 c 128,-1,32
 845 439 845 439 858.5 399 c 128,-1,33
 872 359 872 359 872 314 c 0,34,35
 872 276 872 276 865 253.5 c 128,-1,36
 858 231 858 231 853 219 c 1,37,-1
 469 219 l 1,38,39
 468 213 468 213 468 207.5 c 128,-1,40
 468 202 468 202 468 197 c 0,41,42
 468 168 468 168 476.5 147.5 c 128,-1,43
 485 127 485 127 499 113.5 c 128,-1,44
 513 100 513 100 532 94 c 128,-1,45
 551 88 551 88 571 88 c 0,46,47
 608 88 608 88 645 107.5 c 128,-1,48
 682 127 682 127 701 159 c 1,49,-1
 808 127 l 1,50,51
 788 97 788 97 760 72 c 128,-1,52
 732 47 732 47 698.5 28.5 c 128,-1,53
 665 10 665 10 626.5 0 c 128,-1,54
 588 -10 588 -10 546 -10 c 0,55,56
 474 -10 474 -10 425.5 19.5 c 128,-1,57
 377 49 377 49 354 98 c 1,58,59
 331 69 331 69 302 48.5 c 128,-1,60
 273 28 273 28 243 15 c 128,-1,61
 213 2 213 2 184.5 -4 c 128,-1,62
 156 -10 156 -10 132 -10 c 0,0,1
192 88 m 0,63,64
 210 88 210 88 231 93.5 c 128,-1,65
 252 99 252 99 271.5 108.5 c 128,-1,66
 291 118 291 118 307 130.5 c 128,-1,67
 323 143 323 143 331 157 c 0,68,69
 330 162 330 162 329.5 168.5 c 128,-1,70
 329 175 329 175 329 182 c 0,71,72
 329 205 329 205 334 233 c 1,73,74
 315 241 315 241 292 245.5 c 128,-1,75
 269 250 269 250 248 250 c 0,76,77
 222 250 222 250 198.5 242.5 c 128,-1,78
 175 235 175 235 158 222.5 c 128,-1,79
 141 210 141 210 131 192 c 128,-1,80
 121 174 121 174 121 153 c 0,81,82
 121 125 121 125 139 106.5 c 128,-1,83
 157 88 157 88 192 88 c 0,63,64
735 302 m 1,84,85
 736 309 736 309 736 314.5 c 128,-1,86
 736 320 736 320 736 327 c 0,87,88
 736 377 736 377 710 406.5 c 128,-1,89
 684 436 684 436 637 436 c 0,90,91
 585 436 585 436 543 399 c 128,-1,92
 501 362 501 362 484 302 c 1,93,-1
 735 302 l 1,84,85
EndSplineSet
EndChar

StartChar: ccedilla
Encoding: 231 231 170
Width: 542
GlyphClass: 2
Flags: W
LayerCount: 2
Fore
SplineSet
119 -127 m 1,0,1
 129 -134 129 -134 151.5 -140 c 128,-1,2
 174 -146 174 -146 200 -146 c 0,3,4
 227 -146 227 -146 244 -137 c 128,-1,5
 261 -128 261 -128 261 -107 c 0,6,7
 261 -92 261 -92 249 -86 c 128,-1,8
 237 -80 237 -80 217 -80 c 256,9,10
 197 -80 197 -80 174 -84.5 c 128,-1,11
 151 -89 151 -89 139 -92 c 1,12,-1
 197 -8 l 1,13,14
 152 -3 152 -3 118 16 c 128,-1,15
 84 35 84 35 61 64 c 128,-1,16
 38 93 38 93 26.5 130.5 c 128,-1,17
 15 168 15 168 15 210 c 0,18,19
 15 272 15 272 39.5 330.5 c 128,-1,20
 64 389 64 389 107.5 434 c 128,-1,21
 151 479 151 479 211.5 506 c 128,-1,22
 272 533 272 533 343 533 c 0,23,24
 426 533 426 533 475.5 496 c 128,-1,25
 525 459 525 459 541 399 c 1,26,-1
 403 359 l 1,27,28
 393 388 393 388 371 403.5 c 128,-1,29
 349 419 349 419 317 419 c 0,30,31
 286 419 286 419 256.5 404.5 c 128,-1,32
 227 390 227 390 204.5 364 c 128,-1,33
 182 338 182 338 168 302.5 c 128,-1,34
 154 267 154 267 154 226 c 0,35,36
 154 172 154 172 180.5 138 c 128,-1,37
 207 104 207 104 251 104 c 0,38,39
 283 104 283 104 314.5 122 c 128,-1,40
 346 140 346 140 363 166 c 1,41,-1
 485 126 l 1,42,43
 449 71 449 71 388.5 34 c 128,-1,44
 328 -3 328 -3 253 -9 c 1,45,-1
 226 -42 l 1,46,47
 233 -40 233 -40 241 -39 c 128,-1,48
 249 -38 249 -38 257 -38 c 0,49,50
 286 -38 286 -38 305.5 -51.5 c 128,-1,51
 325 -65 325 -65 325 -94 c 0,52,53
 325 -137 325 -137 289 -166.5 c 128,-1,54
 253 -196 253 -196 180 -196 c 0,55,56
 148 -196 148 -196 123.5 -190 c 128,-1,57
 99 -184 99 -184 82 -176 c 1,58,-1
 119 -127 l 1,0,1
EndSplineSet
EndChar

StartChar: egrave
Encoding: 232 232 171
Width: 551
GlyphClass: 2
Flags: W
LayerCount: 2
Fore
SplineSet
230 -10 m 0,0,1
 180 -10 180 -10 140.5 6.5 c 128,-1,2
 101 23 101 23 73 52.5 c 128,-1,3
 45 82 45 82 30.5 122.5 c 128,-1,4
 16 163 16 163 16 211 c 0,5,6
 16 276 16 276 41.5 334.5 c 128,-1,7
 67 393 67 393 111.5 437 c 128,-1,8
 156 481 156 481 216.5 507 c 128,-1,9
 277 533 277 533 347 533 c 0,10,11
 432 533 432 533 482.5 495.5 c 128,-1,12
 533 458 533 458 533 387 c 0,13,14
 533 218 533 218 231 218 c 0,15,16
 213 218 213 218 194 218 c 128,-1,17
 175 218 175 218 154 220 c 1,18,-1
 154 207 l 2,19,20
 154 154 154 154 178 121 c 128,-1,21
 202 88 202 88 254 88 c 0,22,23
 294 88 294 88 329.5 107 c 128,-1,24
 365 126 365 126 386 160 c 1,25,-1
 492 127 l 1,26,27
 472 97 472 97 443 71.5 c 128,-1,28
 414 46 414 46 379.5 28 c 128,-1,29
 345 10 345 10 307 0 c 128,-1,30
 269 -10 269 -10 230 -10 c 0,0,1
327 436 m 0,31,32
 298 436 298 436 273 425.5 c 128,-1,33
 248 415 248 415 228.5 397 c 128,-1,34
 209 379 209 379 194 355 c 128,-1,35
 179 331 179 331 170 304 c 1,36,37
 186 303 186 303 201 303 c 128,-1,38
 216 303 216 303 232 303 c 0,39,40
 280 303 280 303 313.5 308 c 128,-1,41
 347 313 347 313 367.5 323 c 128,-1,42
 388 333 388 333 397 346.5 c 128,-1,43
 406 360 406 360 406 378 c 0,44,45
 406 407 406 407 384 421.5 c 128,-1,46
 362 436 362 436 327 436 c 0,31,32
270 730 m 1,47,-1
 393 730 l 1,48,-1
 419 611 l 1,49,-1
 326 593 l 1,50,-1
 270 730 l 1,47,-1
EndSplineSet
EndChar

StartChar: eacute
Encoding: 233 233 172
Width: 551
GlyphClass: 2
Flags: W
LayerCount: 2
Fore
SplineSet
370 594 m 1,0,-1
 283 611 l 1,1,-1
 359 730 l 1,2,-1
 483 730 l 1,3,-1
 370 594 l 1,0,-1
230 -10 m 0,4,5
 180 -10 180 -10 140.5 6.5 c 128,-1,6
 101 23 101 23 73 52.5 c 128,-1,7
 45 82 45 82 30.5 122.5 c 128,-1,8
 16 163 16 163 16 211 c 0,9,10
 16 276 16 276 41.5 334.5 c 128,-1,11
 67 393 67 393 111.5 437 c 128,-1,12
 156 481 156 481 216.5 507 c 128,-1,13
 277 533 277 533 347 533 c 0,14,15
 432 533 432 533 482.5 495.5 c 128,-1,16
 533 458 533 458 533 387 c 0,17,18
 533 218 533 218 231 218 c 0,19,20
 213 218 213 218 194 218 c 128,-1,21
 175 218 175 218 154 220 c 1,22,-1
 154 207 l 2,23,24
 154 154 154 154 178 121 c 128,-1,25
 202 88 202 88 254 88 c 0,26,27
 294 88 294 88 329.5 107 c 128,-1,28
 365 126 365 126 386 160 c 1,29,-1
 492 127 l 1,30,31
 472 97 472 97 443 71.5 c 128,-1,32
 414 46 414 46 379.5 28 c 128,-1,33
 345 10 345 10 307 0 c 128,-1,34
 269 -10 269 -10 230 -10 c 0,4,5
327 436 m 0,35,36
 298 436 298 436 273 425.5 c 128,-1,37
 248 415 248 415 228.5 397 c 128,-1,38
 209 379 209 379 194 355 c 128,-1,39
 179 331 179 331 170 304 c 1,40,41
 186 303 186 303 201 303 c 128,-1,42
 216 303 216 303 232 303 c 0,43,44
 280 303 280 303 313.5 308 c 128,-1,45
 347 313 347 313 367.5 323 c 128,-1,46
 388 333 388 333 397 346.5 c 128,-1,47
 406 360 406 360 406 378 c 0,48,49
 406 407 406 407 384 421.5 c 128,-1,50
 362 436 362 436 327 436 c 0,35,36
EndSplineSet
EndChar

StartChar: ecircumflex
Encoding: 234 234 173
Width: 551
GlyphClass: 2
Flags: W
LayerCount: 2
Fore
SplineSet
218 629 m 1,0,-1
 341 730 l 1,1,-1
 438 730 l 1,2,-1
 518 629 l 1,3,-1
 441 597 l 1,4,-1
 374 660 l 1,5,-1
 280 597 l 1,6,-1
 218 629 l 1,0,-1
230 -10 m 0,7,8
 180 -10 180 -10 140.5 6.5 c 128,-1,9
 101 23 101 23 73 52.5 c 128,-1,10
 45 82 45 82 30.5 122.5 c 128,-1,11
 16 163 16 163 16 211 c 0,12,13
 16 276 16 276 41.5 334.5 c 128,-1,14
 67 393 67 393 111.5 437 c 128,-1,15
 156 481 156 481 216.5 507 c 128,-1,16
 277 533 277 533 347 533 c 0,17,18
 432 533 432 533 482.5 495.5 c 128,-1,19
 533 458 533 458 533 387 c 0,20,21
 533 218 533 218 231 218 c 0,22,23
 213 218 213 218 194 218 c 128,-1,24
 175 218 175 218 154 220 c 1,25,-1
 154 207 l 2,26,27
 154 154 154 154 178 121 c 128,-1,28
 202 88 202 88 254 88 c 0,29,30
 294 88 294 88 329.5 107 c 128,-1,31
 365 126 365 126 386 160 c 1,32,-1
 492 127 l 1,33,34
 472 97 472 97 443 71.5 c 128,-1,35
 414 46 414 46 379.5 28 c 128,-1,36
 345 10 345 10 307 0 c 128,-1,37
 269 -10 269 -10 230 -10 c 0,7,8
327 436 m 0,38,39
 298 436 298 436 273 425.5 c 128,-1,40
 248 415 248 415 228.5 397 c 128,-1,41
 209 379 209 379 194 355 c 128,-1,42
 179 331 179 331 170 304 c 1,43,44
 186 303 186 303 201 303 c 128,-1,45
 216 303 216 303 232 303 c 0,46,47
 280 303 280 303 313.5 308 c 128,-1,48
 347 313 347 313 367.5 323 c 128,-1,49
 388 333 388 333 397 346.5 c 128,-1,50
 406 360 406 360 406 378 c 0,51,52
 406 407 406 407 384 421.5 c 128,-1,53
 362 436 362 436 327 436 c 0,38,39
EndSplineSet
EndChar

StartChar: edieresis
Encoding: 235 235 174
Width: 551
GlyphClass: 2
Flags: W
LayerCount: 2
Fore
SplineSet
208 604 m 1,0,-1
 234 723 l 1,1,-1
 345 723 l 1,2,-1
 319 604 l 1,3,-1
 208 604 l 1,0,-1
396 604 m 1,4,-1
 421 723 l 1,5,-1
 531 723 l 1,6,-1
 507 604 l 1,7,-1
 396 604 l 1,4,-1
230 -10 m 0,8,9
 180 -10 180 -10 140.5 6.5 c 128,-1,10
 101 23 101 23 73 52.5 c 128,-1,11
 45 82 45 82 30.5 122.5 c 128,-1,12
 16 163 16 163 16 211 c 0,13,14
 16 276 16 276 41.5 334.5 c 128,-1,15
 67 393 67 393 111.5 437 c 128,-1,16
 156 481 156 481 216.5 507 c 128,-1,17
 277 533 277 533 347 533 c 0,18,19
 432 533 432 533 482.5 495.5 c 128,-1,20
 533 458 533 458 533 387 c 0,21,22
 533 218 533 218 231 218 c 0,23,24
 213 218 213 218 194 218 c 128,-1,25
 175 218 175 218 154 220 c 1,26,-1
 154 207 l 2,27,28
 154 154 154 154 178 121 c 128,-1,29
 202 88 202 88 254 88 c 0,30,31
 294 88 294 88 329.5 107 c 128,-1,32
 365 126 365 126 386 160 c 1,33,-1
 492 127 l 1,34,35
 472 97 472 97 443 71.5 c 128,-1,36
 414 46 414 46 379.5 28 c 128,-1,37
 345 10 345 10 307 0 c 128,-1,38
 269 -10 269 -10 230 -10 c 0,8,9
327 436 m 0,39,40
 298 436 298 436 273 425.5 c 128,-1,41
 248 415 248 415 228.5 397 c 128,-1,42
 209 379 209 379 194 355 c 128,-1,43
 179 331 179 331 170 304 c 1,44,45
 186 303 186 303 201 303 c 128,-1,46
 216 303 216 303 232 303 c 0,47,48
 280 303 280 303 313.5 308 c 128,-1,49
 347 313 347 313 367.5 323 c 128,-1,50
 388 333 388 333 397 346.5 c 128,-1,51
 406 360 406 360 406 378 c 0,52,53
 406 407 406 407 384 421.5 c 128,-1,54
 362 436 362 436 327 436 c 0,39,40
EndSplineSet
EndChar

StartChar: igrave
Encoding: 236 236 175
Width: 253
GlyphClass: 2
Flags: W
LayerCount: 2
Fore
SplineSet
107 524 m 1,0,-1
 241 524 l 1,1,-1
 130 0 l 1,2,-1
 -4 0 l 1,3,-1
 107 524 l 1,0,-1
98 730 m 1,4,-1
 221 730 l 1,5,-1
 247 611 l 1,6,-1
 154 593 l 1,7,-1
 98 730 l 1,4,-1
EndSplineSet
EndChar

StartChar: iacute
Encoding: 237 237 176
Width: 253
GlyphClass: 2
Flags: W
LayerCount: 2
Fore
SplineSet
211 594 m 1,0,-1
 124 611 l 1,1,-1
 200 730 l 1,2,-1
 324 730 l 1,3,-1
 211 594 l 1,0,-1
107 524 m 1,4,-1
 241 524 l 1,5,-1
 130 0 l 1,6,-1
 -4 0 l 1,7,-1
 107 524 l 1,4,-1
EndSplineSet
EndChar

StartChar: icircumflex
Encoding: 238 238 177
Width: 253
GlyphClass: 2
Flags: W
LayerCount: 2
Fore
SplineSet
51 629 m 1,0,-1
 174 730 l 1,1,-1
 271 730 l 1,2,-1
 351 629 l 1,3,-1
 274 597 l 1,4,-1
 207 660 l 1,5,-1
 113 597 l 1,6,-1
 51 629 l 1,0,-1
107 524 m 1,7,-1
 241 524 l 1,8,-1
 130 0 l 1,9,-1
 -4 0 l 1,10,-1
 107 524 l 1,7,-1
EndSplineSet
EndChar

StartChar: idieresis
Encoding: 239 239 178
Width: 253
GlyphClass: 2
Flags: W
LayerCount: 2
Fore
SplineSet
40 604 m 1,0,-1
 66 723 l 1,1,-1
 177 723 l 1,2,-1
 151 604 l 1,3,-1
 40 604 l 1,0,-1
228 604 m 1,4,-1
 253 723 l 1,5,-1
 363 723 l 1,6,-1
 339 604 l 1,7,-1
 228 604 l 1,4,-1
107 524 m 1,8,-1
 241 524 l 1,9,-1
 130 0 l 1,10,-1
 -4 0 l 1,11,-1
 107 524 l 1,8,-1
EndSplineSet
EndChar

StartChar: eth
Encoding: 240 240 179
Width: 592
GlyphClass: 2
Flags: W
LayerCount: 2
Fore
SplineSet
582 660 m 1,0,-1
 502 619 l 1,1,2
 534 564 534 564 549.5 500.5 c 128,-1,3
 565 437 565 437 565 375 c 0,4,5
 565 287 565 287 538 216 c 128,-1,6
 511 145 511 145 464.5 94.5 c 128,-1,7
 418 44 418 44 356.5 17 c 128,-1,8
 295 -10 295 -10 225 -10 c 0,9,10
 177 -10 177 -10 137.5 5 c 128,-1,11
 98 20 98 20 70 47 c 128,-1,12
 42 74 42 74 27 111 c 128,-1,13
 12 148 12 148 12 191 c 0,14,15
 12 248 12 248 36 299 c 128,-1,16
 60 350 60 350 100 388.5 c 128,-1,17
 140 427 140 427 191.5 449.5 c 128,-1,18
 243 472 243 472 297 472 c 0,19,20
 345 472 345 472 382.5 450.5 c 128,-1,21
 420 429 420 429 439 394 c 1,22,23
 437 442 437 442 426 485.5 c 128,-1,24
 415 529 415 529 391 571 c 1,25,-1
 298 522 l 1,26,-1
 271 574 l 1,27,-1
 357 620 l 1,28,29
 334 648 334 648 302 675.5 c 128,-1,30
 270 703 270 703 228 730 c 1,31,-1
 398 730 l 1,32,33
 418 717 418 717 435.5 701 c 128,-1,34
 453 685 453 685 468 667 c 1,35,-1
 555 713 l 1,36,-1
 582 660 l 1,0,-1
151 208 m 0,37,38
 151 163 151 163 178 133.5 c 128,-1,39
 205 104 205 104 251 104 c 0,40,41
 282 104 282 104 311 117 c 128,-1,42
 340 130 340 130 361.5 151.5 c 128,-1,43
 383 173 383 173 396 201.5 c 128,-1,44
 409 230 409 230 409 262 c 0,45,46
 409 307 409 307 382 335.5 c 128,-1,47
 355 364 355 364 308 364 c 0,48,49
 277 364 277 364 248.5 351.5 c 128,-1,50
 220 339 220 339 198.5 318 c 128,-1,51
 177 297 177 297 164 268.5 c 128,-1,52
 151 240 151 240 151 208 c 0,37,38
EndSplineSet
EndChar

StartChar: ntilde
Encoding: 241 241 180
Width: 582
GlyphClass: 2
Flags: W
LayerCount: 2
Fore
SplineSet
107 524 m 1,0,-1
 228 524 l 1,1,-1
 207 427 l 1,2,3
 245 477 245 477 303 505 c 128,-1,4
 361 533 361 533 426 533 c 0,5,6
 460 533 460 533 482.5 523.5 c 128,-1,7
 505 514 505 514 518.5 498 c 128,-1,8
 532 482 532 482 537.5 459.5 c 128,-1,9
 543 437 543 437 543 412 c 0,10,11
 543 392 543 392 540.5 370.5 c 128,-1,12
 538 349 538 349 533 327 c 2,13,-1
 464 0 l 1,14,-1
 330 0 l 1,15,-1
 392 294 l 2,16,17
 395 309 395 309 397 322.5 c 128,-1,18
 399 336 399 336 399 347 c 0,19,20
 399 382 399 382 383.5 398.5 c 128,-1,21
 368 415 368 415 342 415 c 0,22,23
 324 415 324 415 303 407 c 128,-1,24
 282 399 282 399 262 384.5 c 128,-1,25
 242 370 242 370 224.5 350 c 128,-1,26
 207 330 207 330 195 306 c 1,27,-1
 130 0 l 1,28,-1
 -4 0 l 1,29,-1
 107 524 l 1,0,-1
405 602 m 0,30,31
 384 602 384 602 369 609 c 128,-1,32
 354 616 354 616 341.5 624.5 c 128,-1,33
 329 633 329 633 317 640 c 128,-1,34
 305 647 305 647 289 647 c 256,35,36
 273 647 273 647 262.5 640 c 128,-1,37
 252 633 252 633 246 624 c 128,-1,38
 240 615 240 615 237.5 607.5 c 128,-1,39
 235 600 235 600 235 599 c 2,40,-1
 161 599 l 1,41,42
 163 608 163 608 173 629.5 c 128,-1,43
 183 651 183 651 201 672.5 c 128,-1,44
 219 694 219 694 244.5 710.5 c 128,-1,45
 270 727 270 727 302 727 c 0,46,47
 324 727 324 727 338 719.5 c 128,-1,48
 352 712 352 712 364 703.5 c 128,-1,49
 376 695 376 695 388 687.5 c 128,-1,50
 400 680 400 680 417 680 c 256,51,52
 434 680 434 680 445.5 687 c 128,-1,53
 457 694 457 694 464 703 c 128,-1,54
 471 712 471 712 474.5 720 c 128,-1,55
 478 728 478 728 478 730 c 2,56,-1
 551 730 l 1,57,58
 549 723 549 723 539 702 c 128,-1,59
 529 681 529 681 510.5 659 c 128,-1,60
 492 637 492 637 465.5 619.5 c 128,-1,61
 439 602 439 602 405 602 c 0,30,31
EndSplineSet
EndChar

StartChar: ograve
Encoding: 242 242 181
Width: 586
GlyphClass: 2
Flags: W
LayerCount: 2
Fore
SplineSet
227 -10 m 0,0,1
 174 -10 174 -10 134.5 7.5 c 128,-1,2
 95 25 95 25 68.5 55 c 128,-1,3
 42 85 42 85 28.5 124.5 c 128,-1,4
 15 164 15 164 15 208 c 0,5,6
 15 270 15 270 39.5 328.5 c 128,-1,7
 64 387 64 387 107.5 432.5 c 128,-1,8
 151 478 151 478 211 505.5 c 128,-1,9
 271 533 271 533 342 533 c 0,10,11
 394 533 394 533 433.5 515.5 c 128,-1,12
 473 498 473 498 500 468.5 c 128,-1,13
 527 439 527 439 540.5 399 c 128,-1,14
 554 359 554 359 554 314 c 0,15,16
 554 252 554 252 529.5 194 c 128,-1,17
 505 136 505 136 461.5 90.5 c 128,-1,18
 418 45 418 45 358 17.5 c 128,-1,19
 298 -10 298 -10 227 -10 c 0,0,1
251 104 m 0,20,21
 282 104 282 104 311.5 119.5 c 128,-1,22
 341 135 341 135 364 161 c 128,-1,23
 387 187 387 187 401 222.5 c 128,-1,24
 415 258 415 258 415 298 c 0,25,26
 415 352 415 352 389 385.5 c 128,-1,27
 363 419 363 419 318 419 c 0,28,29
 287 419 287 419 257.5 403.5 c 128,-1,30
 228 388 228 388 205 361.5 c 128,-1,31
 182 335 182 335 168 300 c 128,-1,32
 154 265 154 265 154 225 c 0,33,34
 154 171 154 171 180 137.5 c 128,-1,35
 206 104 206 104 251 104 c 0,20,21
274 730 m 1,36,-1
 397 730 l 1,37,-1
 423 611 l 1,38,-1
 330 593 l 1,39,-1
 274 730 l 1,36,-1
EndSplineSet
EndChar

StartChar: oacute
Encoding: 243 243 182
Width: 586
GlyphClass: 2
Flags: W
LayerCount: 2
Fore
SplineSet
378 594 m 1,0,-1
 291 611 l 1,1,-1
 367 730 l 1,2,-1
 491 730 l 1,3,-1
 378 594 l 1,0,-1
227 -10 m 0,4,5
 174 -10 174 -10 134.5 7.5 c 128,-1,6
 95 25 95 25 68.5 55 c 128,-1,7
 42 85 42 85 28.5 124.5 c 128,-1,8
 15 164 15 164 15 208 c 0,9,10
 15 270 15 270 39.5 328.5 c 128,-1,11
 64 387 64 387 107.5 432.5 c 128,-1,12
 151 478 151 478 211 505.5 c 128,-1,13
 271 533 271 533 342 533 c 0,14,15
 394 533 394 533 433.5 515.5 c 128,-1,16
 473 498 473 498 500 468.5 c 128,-1,17
 527 439 527 439 540.5 399 c 128,-1,18
 554 359 554 359 554 314 c 0,19,20
 554 252 554 252 529.5 194 c 128,-1,21
 505 136 505 136 461.5 90.5 c 128,-1,22
 418 45 418 45 358 17.5 c 128,-1,23
 298 -10 298 -10 227 -10 c 0,4,5
251 104 m 0,24,25
 282 104 282 104 311.5 119.5 c 128,-1,26
 341 135 341 135 364 161 c 128,-1,27
 387 187 387 187 401 222.5 c 128,-1,28
 415 258 415 258 415 298 c 0,29,30
 415 352 415 352 389 385.5 c 128,-1,31
 363 419 363 419 318 419 c 0,32,33
 287 419 287 419 257.5 403.5 c 128,-1,34
 228 388 228 388 205 361.5 c 128,-1,35
 182 335 182 335 168 300 c 128,-1,36
 154 265 154 265 154 225 c 0,37,38
 154 171 154 171 180 137.5 c 128,-1,39
 206 104 206 104 251 104 c 0,24,25
EndSplineSet
EndChar

StartChar: ocircumflex
Encoding: 244 244 183
Width: 586
GlyphClass: 2
Flags: W
LayerCount: 2
Fore
SplineSet
216 629 m 1,0,-1
 339 730 l 1,1,-1
 436 730 l 1,2,-1
 516 629 l 1,3,-1
 439 597 l 1,4,-1
 372 660 l 1,5,-1
 278 597 l 1,6,-1
 216 629 l 1,0,-1
227 -10 m 0,7,8
 174 -10 174 -10 134.5 7.5 c 128,-1,9
 95 25 95 25 68.5 55 c 128,-1,10
 42 85 42 85 28.5 124.5 c 128,-1,11
 15 164 15 164 15 208 c 0,12,13
 15 270 15 270 39.5 328.5 c 128,-1,14
 64 387 64 387 107.5 432.5 c 128,-1,15
 151 478 151 478 211 505.5 c 128,-1,16
 271 533 271 533 342 533 c 0,17,18
 394 533 394 533 433.5 515.5 c 128,-1,19
 473 498 473 498 500 468.5 c 128,-1,20
 527 439 527 439 540.5 399 c 128,-1,21
 554 359 554 359 554 314 c 0,22,23
 554 252 554 252 529.5 194 c 128,-1,24
 505 136 505 136 461.5 90.5 c 128,-1,25
 418 45 418 45 358 17.5 c 128,-1,26
 298 -10 298 -10 227 -10 c 0,7,8
251 104 m 0,27,28
 282 104 282 104 311.5 119.5 c 128,-1,29
 341 135 341 135 364 161 c 128,-1,30
 387 187 387 187 401 222.5 c 128,-1,31
 415 258 415 258 415 298 c 0,32,33
 415 352 415 352 389 385.5 c 128,-1,34
 363 419 363 419 318 419 c 0,35,36
 287 419 287 419 257.5 403.5 c 128,-1,37
 228 388 228 388 205 361.5 c 128,-1,38
 182 335 182 335 168 300 c 128,-1,39
 154 265 154 265 154 225 c 0,40,41
 154 171 154 171 180 137.5 c 128,-1,42
 206 104 206 104 251 104 c 0,27,28
EndSplineSet
EndChar

StartChar: otilde
Encoding: 245 245 184
Width: 586
GlyphClass: 2
Flags: W
LayerCount: 2
Fore
SplineSet
227 -10 m 0,0,1
 174 -10 174 -10 134.5 7.5 c 128,-1,2
 95 25 95 25 68.5 55 c 128,-1,3
 42 85 42 85 28.5 124.5 c 128,-1,4
 15 164 15 164 15 208 c 0,5,6
 15 270 15 270 39.5 328.5 c 128,-1,7
 64 387 64 387 107.5 432.5 c 128,-1,8
 151 478 151 478 211 505.5 c 128,-1,9
 271 533 271 533 342 533 c 0,10,11
 394 533 394 533 433.5 515.5 c 128,-1,12
 473 498 473 498 500 468.5 c 128,-1,13
 527 439 527 439 540.5 399 c 128,-1,14
 554 359 554 359 554 314 c 0,15,16
 554 252 554 252 529.5 194 c 128,-1,17
 505 136 505 136 461.5 90.5 c 128,-1,18
 418 45 418 45 358 17.5 c 128,-1,19
 298 -10 298 -10 227 -10 c 0,0,1
251 104 m 0,20,21
 282 104 282 104 311.5 119.5 c 128,-1,22
 341 135 341 135 364 161 c 128,-1,23
 387 187 387 187 401 222.5 c 128,-1,24
 415 258 415 258 415 298 c 0,25,26
 415 352 415 352 389 385.5 c 128,-1,27
 363 419 363 419 318 419 c 0,28,29
 287 419 287 419 257.5 403.5 c 128,-1,30
 228 388 228 388 205 361.5 c 128,-1,31
 182 335 182 335 168 300 c 128,-1,32
 154 265 154 265 154 225 c 0,33,34
 154 171 154 171 180 137.5 c 128,-1,35
 206 104 206 104 251 104 c 0,20,21
417 602 m 0,36,37
 396 602 396 602 381 609 c 128,-1,38
 366 616 366 616 353.5 624.5 c 128,-1,39
 341 633 341 633 329 640 c 128,-1,40
 317 647 317 647 301 647 c 256,41,42
 285 647 285 647 274.5 640 c 128,-1,43
 264 633 264 633 258 624 c 128,-1,44
 252 615 252 615 249.5 607.5 c 128,-1,45
 247 600 247 600 247 599 c 2,46,-1
 173 599 l 1,47,48
 175 608 175 608 185 629.5 c 128,-1,49
 195 651 195 651 213 672.5 c 128,-1,50
 231 694 231 694 256.5 710.5 c 128,-1,51
 282 727 282 727 314 727 c 0,52,53
 336 727 336 727 350 719.5 c 128,-1,54
 364 712 364 712 376 703.5 c 128,-1,55
 388 695 388 695 400 687.5 c 128,-1,56
 412 680 412 680 429 680 c 256,57,58
 446 680 446 680 457.5 687 c 128,-1,59
 469 694 469 694 476 703 c 128,-1,60
 483 712 483 712 486.5 720 c 128,-1,61
 490 728 490 728 490 730 c 2,62,-1
 563 730 l 1,63,64
 561 723 561 723 551 702 c 128,-1,65
 541 681 541 681 522.5 659 c 128,-1,66
 504 637 504 637 477.5 619.5 c 128,-1,67
 451 602 451 602 417 602 c 0,36,37
EndSplineSet
EndChar

StartChar: odieresis
Encoding: 246 246 185
Width: 586
GlyphClass: 2
Flags: W
LayerCount: 2
Fore
SplineSet
211 604 m 1,0,-1
 237 723 l 1,1,-1
 348 723 l 1,2,-1
 322 604 l 1,3,-1
 211 604 l 1,0,-1
399 604 m 1,4,-1
 424 723 l 1,5,-1
 534 723 l 1,6,-1
 510 604 l 1,7,-1
 399 604 l 1,4,-1
227 -10 m 0,8,9
 174 -10 174 -10 134.5 7.5 c 128,-1,10
 95 25 95 25 68.5 55 c 128,-1,11
 42 85 42 85 28.5 124.5 c 128,-1,12
 15 164 15 164 15 208 c 0,13,14
 15 270 15 270 39.5 328.5 c 128,-1,15
 64 387 64 387 107.5 432.5 c 128,-1,16
 151 478 151 478 211 505.5 c 128,-1,17
 271 533 271 533 342 533 c 0,18,19
 394 533 394 533 433.5 515.5 c 128,-1,20
 473 498 473 498 500 468.5 c 128,-1,21
 527 439 527 439 540.5 399 c 128,-1,22
 554 359 554 359 554 314 c 0,23,24
 554 252 554 252 529.5 194 c 128,-1,25
 505 136 505 136 461.5 90.5 c 128,-1,26
 418 45 418 45 358 17.5 c 128,-1,27
 298 -10 298 -10 227 -10 c 0,8,9
251 104 m 0,28,29
 282 104 282 104 311.5 119.5 c 128,-1,30
 341 135 341 135 364 161 c 128,-1,31
 387 187 387 187 401 222.5 c 128,-1,32
 415 258 415 258 415 298 c 0,33,34
 415 352 415 352 389 385.5 c 128,-1,35
 363 419 363 419 318 419 c 0,36,37
 287 419 287 419 257.5 403.5 c 128,-1,38
 228 388 228 388 205 361.5 c 128,-1,39
 182 335 182 335 168 300 c 128,-1,40
 154 265 154 265 154 225 c 0,41,42
 154 171 154 171 180 137.5 c 128,-1,43
 206 104 206 104 251 104 c 0,28,29
EndSplineSet
EndChar

StartChar: divide
Encoding: 247 247 186
Width: 520
GlyphClass: 2
Flags: W
LayerCount: 2
Fore
SplineSet
203 419 m 1,0,-1
 203 547 l 1,1,-1
 316 547 l 1,2,-1
 316 419 l 1,3,-1
 203 419 l 1,0,-1
203 48 m 1,4,-1
 203 177 l 1,5,-1
 316 177 l 1,6,-1
 316 48 l 1,7,-1
 203 48 l 1,4,-1
57 244 m 1,8,-1
 57 351 l 1,9,-1
 461 351 l 1,10,-1
 461 244 l 1,11,-1
 57 244 l 1,8,-1
EndSplineSet
EndChar

StartChar: oslash
Encoding: 248 248 187
Width: 586
GlyphClass: 2
Flags: W
LayerCount: 2
Fore
SplineSet
58 67 m 1,0,1
 36 96 36 96 25.5 132 c 128,-1,2
 15 168 15 168 15 208 c 0,3,4
 15 270 15 270 39.5 328.5 c 128,-1,5
 64 387 64 387 107.5 432.5 c 128,-1,6
 151 478 151 478 211.5 505.5 c 128,-1,7
 272 533 272 533 343 533 c 0,8,9
 382 533 382 533 414 523 c 128,-1,10
 446 513 446 513 471 495 c 1,11,-1
 505 528 l 1,12,-1
 581 528 l 1,13,-1
 508 459 l 1,14,15
 554 399 554 399 554 314 c 0,16,17
 554 252 554 252 529.5 194 c 128,-1,18
 505 136 505 136 461.5 90.5 c 128,-1,19
 418 45 418 45 358 17.5 c 128,-1,20
 298 -10 298 -10 227 -10 c 0,21,22
 186 -10 186 -10 153 0.5 c 128,-1,23
 120 11 120 11 95 31 c 1,24,-1
 58 -4 l 1,25,-1
 -16 -4 l 1,26,-1
 58 67 l 1,0,1
251 104 m 0,27,28
 282 104 282 104 311.5 119.5 c 128,-1,29
 341 135 341 135 364 161 c 128,-1,30
 387 187 387 187 401 222.5 c 128,-1,31
 415 258 415 258 415 298 c 0,32,33
 415 330 415 330 404 358 c 1,34,-1
 189 128 l 1,35,36
 213 104 213 104 251 104 c 0,27,28
154 225 m 0,37,38
 154 191 154 191 164 167 c 1,39,-1
 377 397 l 1,40,41
 352 419 352 419 318 419 c 0,42,43
 287 419 287 419 257.5 403.5 c 128,-1,44
 228 388 228 388 205 361.5 c 128,-1,45
 182 335 182 335 168 300 c 128,-1,46
 154 265 154 265 154 225 c 0,37,38
EndSplineSet
EndChar

StartChar: ugrave
Encoding: 249 249 188
Width: 595
GlyphClass: 2
Flags: W
LayerCount: 2
Fore
SplineSet
145 -10 m 0,0,1
 22 -10 22 -10 22 118 c 0,2,3
 22 135 22 135 24.5 154.5 c 128,-1,4
 27 174 27 174 32 196 c 2,5,-1
 102 524 l 1,6,-1
 235 524 l 1,7,-1
 172 225 l 2,8,9
 169 210 169 210 167 198 c 128,-1,10
 165 186 165 186 165 175 c 0,11,12
 165 104 165 104 225 104 c 0,13,14
 260 104 260 104 298.5 127.5 c 128,-1,15
 337 151 337 151 369 199 c 1,16,-1
 438 524 l 1,17,-1
 572 524 l 1,18,-1
 493 154 l 2,19,20
 492 149 492 149 491.5 144.5 c 128,-1,21
 491 140 491 140 491 136 c 0,22,23
 491 115 491 115 515 114 c 1,24,-1
 491 0 l 1,25,26
 473 -3 473 -3 459.5 -5 c 128,-1,27
 446 -7 446 -7 435 -7 c 0,28,29
 400 -7 400 -7 380.5 7 c 128,-1,30
 361 21 361 21 361 50 c 0,31,32
 361 58 361 58 362 68 c 128,-1,33
 363 78 363 78 368 98 c 1,34,35
 323 44 323 44 265.5 17 c 128,-1,36
 208 -10 208 -10 145 -10 c 0,0,1
262 730 m 1,37,-1
 385 730 l 1,38,-1
 411 611 l 1,39,-1
 318 593 l 1,40,-1
 262 730 l 1,37,-1
EndSplineSet
EndChar

StartChar: uacute
Encoding: 250 250 189
Width: 595
GlyphClass: 2
Flags: W
LayerCount: 2
Fore
SplineSet
361 594 m 1,0,-1
 274 611 l 1,1,-1
 350 730 l 1,2,-1
 474 730 l 1,3,-1
 361 594 l 1,0,-1
145 -10 m 0,4,5
 22 -10 22 -10 22 118 c 0,6,7
 22 135 22 135 24.5 154.5 c 128,-1,8
 27 174 27 174 32 196 c 2,9,-1
 102 524 l 1,10,-1
 235 524 l 1,11,-1
 172 225 l 2,12,13
 169 210 169 210 167 198 c 128,-1,14
 165 186 165 186 165 175 c 0,15,16
 165 104 165 104 225 104 c 0,17,18
 260 104 260 104 298.5 127.5 c 128,-1,19
 337 151 337 151 369 199 c 1,20,-1
 438 524 l 1,21,-1
 572 524 l 1,22,-1
 493 154 l 2,23,24
 492 149 492 149 491.5 144.5 c 128,-1,25
 491 140 491 140 491 136 c 0,26,27
 491 115 491 115 515 114 c 1,28,-1
 491 0 l 1,29,30
 473 -3 473 -3 459.5 -5 c 128,-1,31
 446 -7 446 -7 435 -7 c 0,32,33
 400 -7 400 -7 380.5 7 c 128,-1,34
 361 21 361 21 361 50 c 0,35,36
 361 58 361 58 362 68 c 128,-1,37
 363 78 363 78 368 98 c 1,38,39
 323 44 323 44 265.5 17 c 128,-1,40
 208 -10 208 -10 145 -10 c 0,4,5
EndSplineSet
EndChar

StartChar: ucircumflex
Encoding: 251 251 190
Width: 595
GlyphClass: 2
Flags: W
LayerCount: 2
Fore
SplineSet
213 629 m 1,0,-1
 336 730 l 1,1,-1
 433 730 l 1,2,-1
 513 629 l 1,3,-1
 436 597 l 1,4,-1
 369 660 l 1,5,-1
 275 597 l 1,6,-1
 213 629 l 1,0,-1
145 -10 m 0,7,8
 22 -10 22 -10 22 118 c 0,9,10
 22 135 22 135 24.5 154.5 c 128,-1,11
 27 174 27 174 32 196 c 2,12,-1
 102 524 l 1,13,-1
 235 524 l 1,14,-1
 172 225 l 2,15,16
 169 210 169 210 167 198 c 128,-1,17
 165 186 165 186 165 175 c 0,18,19
 165 104 165 104 225 104 c 0,20,21
 260 104 260 104 298.5 127.5 c 128,-1,22
 337 151 337 151 369 199 c 1,23,-1
 438 524 l 1,24,-1
 572 524 l 1,25,-1
 493 154 l 2,26,27
 492 149 492 149 491.5 144.5 c 128,-1,28
 491 140 491 140 491 136 c 0,29,30
 491 115 491 115 515 114 c 1,31,-1
 491 0 l 1,32,33
 473 -3 473 -3 459.5 -5 c 128,-1,34
 446 -7 446 -7 435 -7 c 0,35,36
 400 -7 400 -7 380.5 7 c 128,-1,37
 361 21 361 21 361 50 c 0,38,39
 361 58 361 58 362 68 c 128,-1,40
 363 78 363 78 368 98 c 1,41,42
 323 44 323 44 265.5 17 c 128,-1,43
 208 -10 208 -10 145 -10 c 0,7,8
EndSplineSet
EndChar

StartChar: udieresis
Encoding: 252 252 191
Width: 595
GlyphClass: 2
Flags: W
LayerCount: 2
Fore
SplineSet
199 604 m 1,0,-1
 225 723 l 1,1,-1
 336 723 l 1,2,-1
 310 604 l 1,3,-1
 199 604 l 1,0,-1
387 604 m 1,4,-1
 412 723 l 1,5,-1
 522 723 l 1,6,-1
 498 604 l 1,7,-1
 387 604 l 1,4,-1
145 -10 m 0,8,9
 22 -10 22 -10 22 118 c 0,10,11
 22 135 22 135 24.5 154.5 c 128,-1,12
 27 174 27 174 32 196 c 2,13,-1
 102 524 l 1,14,-1
 235 524 l 1,15,-1
 172 225 l 2,16,17
 169 210 169 210 167 198 c 128,-1,18
 165 186 165 186 165 175 c 0,19,20
 165 104 165 104 225 104 c 0,21,22
 260 104 260 104 298.5 127.5 c 128,-1,23
 337 151 337 151 369 199 c 1,24,-1
 438 524 l 1,25,-1
 572 524 l 1,26,-1
 493 154 l 2,27,28
 492 149 492 149 491.5 144.5 c 128,-1,29
 491 140 491 140 491 136 c 0,30,31
 491 115 491 115 515 114 c 1,32,-1
 491 0 l 1,33,34
 473 -3 473 -3 459.5 -5 c 128,-1,35
 446 -7 446 -7 435 -7 c 0,36,37
 400 -7 400 -7 380.5 7 c 128,-1,38
 361 21 361 21 361 50 c 0,39,40
 361 58 361 58 362 68 c 128,-1,41
 363 78 363 78 368 98 c 1,42,43
 323 44 323 44 265.5 17 c 128,-1,44
 208 -10 208 -10 145 -10 c 0,8,9
EndSplineSet
EndChar

StartChar: yacute
Encoding: 253 253 192
Width: 520
GlyphClass: 2
Flags: W
LayerCount: 2
Fore
SplineSet
-44 -126 m 1,0,1
 -14 -123 -14 -123 7.5 -119 c 128,-1,2
 29 -115 29 -115 45.5 -106.5 c 128,-1,3
 62 -98 62 -98 76 -84.5 c 128,-1,4
 90 -71 90 -71 105 -50 c 2,5,-1
 134 -11 l 1,6,-1
 47 524 l 1,7,-1
 184 524 l 1,8,-1
 229 116 l 1,9,-1
 263 172 l 2,10,11
 294 223 294 223 317 267.5 c 128,-1,12
 340 312 340 312 358 354 c 128,-1,13
 376 396 376 396 389 437.5 c 128,-1,14
 402 479 402 479 413 524 c 1,15,-1
 543 524 l 1,16,17
 529 476 529 476 514 434 c 128,-1,18
 499 392 499 392 476 345 c 128,-1,19
 453 298 453 298 419.5 240.5 c 128,-1,20
 386 183 386 183 337 103 c 2,21,-1
 257 -26 l 2,22,23
 222 -82 222 -82 189.5 -120.5 c 128,-1,24
 157 -159 157 -159 123.5 -183 c 128,-1,25
 90 -207 90 -207 53 -217.5 c 128,-1,26
 16 -228 16 -228 -28 -229 c 1,27,-1
 -44 -126 l 1,0,1
330 594 m 1,28,-1
 243 611 l 1,29,-1
 319 730 l 1,30,-1
 443 730 l 1,31,-1
 330 594 l 1,28,-1
EndSplineSet
EndChar

StartChar: thorn
Encoding: 254 254 193
Width: 577
GlyphClass: 2
Flags: W
LayerCount: 2
Fore
SplineSet
146 710 m 1,0,-1
 283 710 l 1,1,2
 276 678 276 678 268.5 639 c 128,-1,3
 261 600 261 600 253 565 c 0,4,5
 244 525 244 525 236 483 c 1,6,7
 255 506 255 506 284 522.5 c 128,-1,8
 313 539 313 539 355 539 c 0,9,10
 403 539 403 539 439 520.5 c 128,-1,11
 475 502 475 502 499 471.5 c 128,-1,12
 523 441 523 441 535 402 c 128,-1,13
 547 363 547 363 547 322 c 0,14,15
 547 264 547 264 524 202.5 c 128,-1,16
 501 141 501 141 460 91 c 128,-1,17
 419 41 419 41 362 8.5 c 128,-1,18
 305 -24 305 -24 237 -24 c 0,19,20
 189 -24 189 -24 167.5 -8 c 128,-1,21
 146 8 146 8 138 27 c 1,22,23
 128 -18 128 -18 119 -62 c 0,24,25
 111 -100 111 -100 102.5 -141 c 128,-1,26
 94 -182 94 -182 87 -213 c 1,27,-1
 -50 -213 l 1,28,-1
 146 710 l 1,0,-1
258 97 m 0,29,30
 291 97 291 97 319 114 c 128,-1,31
 347 131 347 131 367 159 c 128,-1,32
 387 187 387 187 398 223 c 128,-1,33
 409 259 409 259 409 297 c 0,34,35
 409 349 409 349 387 383.5 c 128,-1,36
 365 418 365 418 322 418 c 0,37,38
 287 418 287 418 257.5 394.5 c 128,-1,39
 228 371 228 371 204 336 c 1,40,-1
 170 176 l 2,41,42
 169 173 169 173 168.5 171 c 128,-1,43
 168 169 168 169 168 165 c 0,44,45
 168 153 168 153 174 141 c 128,-1,46
 180 129 180 129 192 119.5 c 128,-1,47
 204 110 204 110 220.5 103.5 c 128,-1,48
 237 97 237 97 258 97 c 0,29,30
EndSplineSet
EndChar

StartChar: ydieresis
Encoding: 255 255 194
Width: 520
GlyphClass: 2
Flags: W
LayerCount: 2
Fore
SplineSet
-44 -126 m 1,0,1
 -14 -123 -14 -123 7.5 -119 c 128,-1,2
 29 -115 29 -115 45.5 -106.5 c 128,-1,3
 62 -98 62 -98 76 -84.5 c 128,-1,4
 90 -71 90 -71 105 -50 c 2,5,-1
 134 -11 l 1,6,-1
 47 524 l 1,7,-1
 184 524 l 1,8,-1
 229 116 l 1,9,-1
 263 172 l 2,10,11
 294 223 294 223 317 267.5 c 128,-1,12
 340 312 340 312 358 354 c 128,-1,13
 376 396 376 396 389 437.5 c 128,-1,14
 402 479 402 479 413 524 c 1,15,-1
 543 524 l 1,16,17
 529 476 529 476 514 434 c 128,-1,18
 499 392 499 392 476 345 c 128,-1,19
 453 298 453 298 419.5 240.5 c 128,-1,20
 386 183 386 183 337 103 c 2,21,-1
 257 -26 l 2,22,23
 222 -82 222 -82 189.5 -120.5 c 128,-1,24
 157 -159 157 -159 123.5 -183 c 128,-1,25
 90 -207 90 -207 53 -217.5 c 128,-1,26
 16 -228 16 -228 -28 -229 c 1,27,-1
 -44 -126 l 1,0,1
164 604 m 1,28,-1
 190 723 l 1,29,-1
 301 723 l 1,30,-1
 275 604 l 1,31,-1
 164 604 l 1,28,-1
352 604 m 1,32,-1
 377 723 l 1,33,-1
 487 723 l 1,34,-1
 463 604 l 1,35,-1
 352 604 l 1,32,-1
EndSplineSet
EndChar

StartChar: Amacron
Encoding: 256 256 195
Width: 645
GlyphClass: 2
Flags: W
LayerCount: 2
Fore
SplineSet
352 710 m 1,0,-1
 475 710 l 1,1,-1
 578 0 l 1,2,-1
 436 0 l 1,3,-1
 414 177 l 1,4,-1
 185 177 l 1,5,-1
 89 0 l 1,6,-1
 -53 0 l 1,7,-1
 352 710 l 1,0,-1
411 274 m 1,8,-1
 380 553 l 1,9,-1
 228 274 l 1,10,-1
 411 274 l 1,8,-1
289 818 m 1,11,-1
 307 901 l 1,12,-1
 593 901 l 1,13,-1
 575 818 l 1,14,-1
 289 818 l 1,11,-1
EndSplineSet
EndChar

StartChar: amacron
Encoding: 257 257 196
Width: 624
GlyphClass: 2
Flags: W
LayerCount: 2
Fore
SplineSet
201 -10 m 0,0,1
 157 -10 157 -10 122.5 6.5 c 128,-1,2
 88 23 88 23 64 52 c 128,-1,3
 40 81 40 81 27.5 120.5 c 128,-1,4
 15 160 15 160 15 205 c 0,5,6
 15 270 15 270 38.5 329.5 c 128,-1,7
 62 389 62 389 101.5 434 c 128,-1,8
 141 479 141 479 193 506 c 128,-1,9
 245 533 245 533 302 533 c 0,10,11
 356 533 356 533 394 505 c 128,-1,12
 432 477 432 477 446 432 c 1,13,-1
 466 522 l 1,14,-1
 600 522 l 1,15,-1
 522 154 l 2,16,17
 519 143 519 143 519 136 c 0,18,19
 519 115 519 115 543 114 c 1,20,-1
 519 0 l 1,21,22
 501 -3 501 -3 487.5 -5 c 128,-1,23
 474 -7 474 -7 464 -7 c 0,24,25
 429 -7 429 -7 408.5 8 c 128,-1,26
 388 23 388 23 388 53 c 0,27,28
 388 65 388 65 394 91 c 1,29,30
 356 41 356 41 304.5 15.5 c 128,-1,31
 253 -10 253 -10 201 -10 c 0,0,1
261 104 m 0,32,33
 278 104 278 104 297.5 110.5 c 128,-1,34
 317 117 317 117 335 129 c 128,-1,35
 353 141 353 141 369 157 c 128,-1,36
 385 173 385 173 396 192 c 1,37,-1
 422 317 l 1,38,39
 416 361 416 361 387 390 c 128,-1,40
 358 419 358 419 320 419 c 0,41,42
 288 419 288 419 258 402.5 c 128,-1,43
 228 386 228 386 205.5 358.5 c 128,-1,44
 183 331 183 331 169.5 296.5 c 128,-1,45
 156 262 156 262 156 226 c 0,46,47
 156 174 156 174 184 139 c 128,-1,48
 212 104 212 104 261 104 c 0,32,33
204 632 m 1,49,-1
 222 715 l 1,50,-1
 508 715 l 1,51,-1
 490 632 l 1,52,-1
 204 632 l 1,49,-1
EndSplineSet
EndChar

StartChar: Abreve
Encoding: 258 258 197
Width: 645
GlyphClass: 2
Flags: W
LayerCount: 2
Fore
SplineSet
352 710 m 1,0,-1
 475 710 l 1,1,-1
 578 0 l 1,2,-1
 436 0 l 1,3,-1
 414 177 l 1,4,-1
 185 177 l 1,5,-1
 89 0 l 1,6,-1
 -53 0 l 1,7,-1
 352 710 l 1,0,-1
411 274 m 1,8,-1
 380 553 l 1,9,-1
 228 274 l 1,10,-1
 411 274 l 1,8,-1
431 842 m 0,11,12
 452 842 452 842 472.5 863 c 128,-1,13
 493 884 493 884 503 916 c 1,14,-1
 575 916 l 1,15,16
 569 887 569 887 554 862.5 c 128,-1,17
 539 838 539 838 518.5 820 c 128,-1,18
 498 802 498 802 472.5 792 c 128,-1,19
 447 782 447 782 419 782 c 0,20,21
 370 782 370 782 342.5 810 c 128,-1,22
 315 838 315 838 315 883 c 0,23,24
 315 901 315 901 319 916 c 1,25,-1
 391 916 l 1,26,27
 388 905 388 905 388 896 c 0,28,29
 388 873 388 873 400 857.5 c 128,-1,30
 412 842 412 842 431 842 c 0,11,12
EndSplineSet
EndChar

StartChar: abreve
Encoding: 259 259 198
Width: 624
GlyphClass: 2
Flags: W
LayerCount: 2
Fore
SplineSet
201 -10 m 0,0,1
 157 -10 157 -10 122.5 6.5 c 128,-1,2
 88 23 88 23 64 52 c 128,-1,3
 40 81 40 81 27.5 120.5 c 128,-1,4
 15 160 15 160 15 205 c 0,5,6
 15 270 15 270 38.5 329.5 c 128,-1,7
 62 389 62 389 101.5 434 c 128,-1,8
 141 479 141 479 193 506 c 128,-1,9
 245 533 245 533 302 533 c 0,10,11
 356 533 356 533 394 505 c 128,-1,12
 432 477 432 477 446 432 c 1,13,-1
 466 522 l 1,14,-1
 600 522 l 1,15,-1
 522 154 l 2,16,17
 519 143 519 143 519 136 c 0,18,19
 519 115 519 115 543 114 c 1,20,-1
 519 0 l 1,21,22
 501 -3 501 -3 487.5 -5 c 128,-1,23
 474 -7 474 -7 464 -7 c 0,24,25
 429 -7 429 -7 408.5 8 c 128,-1,26
 388 23 388 23 388 53 c 0,27,28
 388 65 388 65 394 91 c 1,29,30
 356 41 356 41 304.5 15.5 c 128,-1,31
 253 -10 253 -10 201 -10 c 0,0,1
261 104 m 0,32,33
 278 104 278 104 297.5 110.5 c 128,-1,34
 317 117 317 117 335 129 c 128,-1,35
 353 141 353 141 369 157 c 128,-1,36
 385 173 385 173 396 192 c 1,37,-1
 422 317 l 1,38,39
 416 361 416 361 387 390 c 128,-1,40
 358 419 358 419 320 419 c 0,41,42
 288 419 288 419 258 402.5 c 128,-1,43
 228 386 228 386 205.5 358.5 c 128,-1,44
 183 331 183 331 169.5 296.5 c 128,-1,45
 156 262 156 262 156 226 c 0,46,47
 156 174 156 174 184 139 c 128,-1,48
 212 104 212 104 261 104 c 0,32,33
339 656 m 0,49,50
 360 656 360 656 380.5 677 c 128,-1,51
 401 698 401 698 411 730 c 1,52,-1
 483 730 l 1,53,54
 477 701 477 701 462 676.5 c 128,-1,55
 447 652 447 652 426.5 634 c 128,-1,56
 406 616 406 616 380.5 606 c 128,-1,57
 355 596 355 596 327 596 c 0,58,59
 278 596 278 596 250.5 624 c 128,-1,60
 223 652 223 652 223 697 c 0,61,62
 223 715 223 715 227 730 c 1,63,-1
 299 730 l 1,64,65
 296 719 296 719 296 710 c 0,66,67
 296 687 296 687 308 671.5 c 128,-1,68
 320 656 320 656 339 656 c 0,49,50
EndSplineSet
EndChar

StartChar: Aogonek
Encoding: 260 260 199
Width: 645
GlyphClass: 2
Flags: W
LayerCount: 2
Fore
SplineSet
496 -196 m 1,0,1
 446 -188 446 -188 422.5 -167.5 c 128,-1,2
 399 -147 399 -147 399 -120 c 0,3,4
 399 -58 399 -58 502 0 c 1,5,-1
 436 0 l 1,6,-1
 414 177 l 1,7,-1
 185 177 l 1,8,-1
 89 0 l 1,9,-1
 -53 0 l 1,10,-1
 352 710 l 1,11,-1
 475 710 l 1,12,-1
 578 0 l 1,13,14
 486 -53 486 -53 486 -91 c 0,15,16
 486 -123 486 -123 538 -126 c 1,17,-1
 496 -196 l 1,0,1
411 274 m 1,18,-1
 380 553 l 1,19,-1
 228 274 l 1,20,-1
 411 274 l 1,18,-1
EndSplineSet
EndChar

StartChar: aogonek
Encoding: 261 261 200
Width: 624
GlyphClass: 2
Flags: W
LayerCount: 2
Fore
SplineSet
437 -196 m 1,0,1
 387 -188 387 -188 363.5 -167.5 c 128,-1,2
 340 -147 340 -147 340 -120 c 0,3,4
 340 -61 340 -61 436 -4 c 1,5,6
 388 7 388 7 388 53 c 0,7,8
 388 65 388 65 394 91 c 1,9,10
 356 41 356 41 304.5 15.5 c 128,-1,11
 253 -10 253 -10 201 -10 c 0,12,13
 157 -10 157 -10 122.5 6.5 c 128,-1,14
 88 23 88 23 64 52 c 128,-1,15
 40 81 40 81 27.5 120.5 c 128,-1,16
 15 160 15 160 15 205 c 0,17,18
 15 270 15 270 38.5 329.5 c 128,-1,19
 62 389 62 389 101.5 434 c 128,-1,20
 141 479 141 479 193 506 c 128,-1,21
 245 533 245 533 302 533 c 0,22,23
 356 533 356 533 394 505 c 128,-1,24
 432 477 432 477 446 432 c 1,25,-1
 466 522 l 1,26,-1
 600 522 l 1,27,-1
 522 154 l 2,28,29
 519 143 519 143 519 136 c 0,30,31
 519 115 519 115 543 114 c 1,32,-1
 519 0 l 1,33,34
 427 -53 427 -53 427 -91 c 0,35,36
 427 -123 427 -123 479 -126 c 1,37,-1
 437 -196 l 1,0,1
261 104 m 0,38,39
 278 104 278 104 297.5 110.5 c 128,-1,40
 317 117 317 117 335 129 c 128,-1,41
 353 141 353 141 369 157 c 128,-1,42
 385 173 385 173 396 192 c 1,43,-1
 422 317 l 1,44,45
 416 361 416 361 387 390 c 128,-1,46
 358 419 358 419 320 419 c 0,47,48
 288 419 288 419 258 402.5 c 128,-1,49
 228 386 228 386 205.5 358.5 c 128,-1,50
 183 331 183 331 169.5 296.5 c 128,-1,51
 156 262 156 262 156 226 c 0,52,53
 156 174 156 174 184 139 c 128,-1,54
 212 104 212 104 261 104 c 0,38,39
EndSplineSet
EndChar

StartChar: Cacute
Encoding: 262 262 201
Width: 658
GlyphClass: 2
Flags: W
LayerCount: 2
Fore
SplineSet
498 780 m 1,0,-1
 411 797 l 1,1,-1
 487 916 l 1,2,-1
 611 916 l 1,3,-1
 498 780 l 1,0,-1
296 -6 m 0,4,5
 234 -6 234 -6 186 19.5 c 128,-1,6
 138 45 138 45 105 87 c 128,-1,7
 72 129 72 129 54.5 183.5 c 128,-1,8
 37 238 37 238 37 296 c 0,9,10
 37 345 37 345 51 395 c 128,-1,11
 65 445 65 445 91.5 491.5 c 128,-1,12
 118 538 118 538 155.5 578.5 c 128,-1,13
 193 619 193 619 239.5 649 c 128,-1,14
 286 679 286 679 340 696.5 c 128,-1,15
 394 714 394 714 454 714 c 0,16,17
 548 714 548 714 607.5 671 c 128,-1,18
 667 628 667 628 685 559 c 1,19,-1
 564 486 l 1,20,21
 558 516 558 516 544 536.5 c 128,-1,22
 530 557 530 557 510.5 569 c 128,-1,23
 491 581 491 581 468.5 586.5 c 128,-1,24
 446 592 446 592 424 592 c 0,25,26
 368 592 368 592 322 565 c 128,-1,27
 276 538 276 538 244 496 c 128,-1,28
 212 454 212 454 194.5 403 c 128,-1,29
 177 352 177 352 177 304 c 0,30,31
 177 266 177 266 187 232 c 128,-1,32
 197 198 197 198 216 172 c 128,-1,33
 235 146 235 146 262.5 131 c 128,-1,34
 290 116 290 116 326 116 c 0,35,36
 348 116 348 116 373.5 122 c 128,-1,37
 399 128 399 128 423.5 141 c 128,-1,38
 448 154 448 154 470.5 174.5 c 128,-1,39
 493 195 493 195 511 224 c 1,40,-1
 610 159 l 1,41,42
 586 119 586 119 549.5 88.5 c 128,-1,43
 513 58 513 58 470.5 37 c 128,-1,44
 428 16 428 16 382.5 5 c 128,-1,45
 337 -6 337 -6 296 -6 c 0,4,5
EndSplineSet
EndChar

StartChar: cacute
Encoding: 263 263 202
Width: 542
GlyphClass: 2
Flags: W
LayerCount: 2
Fore
SplineSet
369 594 m 1,0,-1
 282 611 l 1,1,-1
 358 730 l 1,2,-1
 482 730 l 1,3,-1
 369 594 l 1,0,-1
228 -10 m 0,4,5
 176 -10 176 -10 136 7.5 c 128,-1,6
 96 25 96 25 69 55 c 128,-1,7
 42 85 42 85 28.5 125 c 128,-1,8
 15 165 15 165 15 210 c 0,9,10
 15 272 15 272 39.5 330.5 c 128,-1,11
 64 389 64 389 107.5 434 c 128,-1,12
 151 479 151 479 211.5 506 c 128,-1,13
 272 533 272 533 343 533 c 0,14,15
 426 533 426 533 475.5 496 c 128,-1,16
 525 459 525 459 541 399 c 1,17,-1
 403 359 l 1,18,19
 393 388 393 388 371 403.5 c 128,-1,20
 349 419 349 419 317 419 c 0,21,22
 286 419 286 419 256.5 404.5 c 128,-1,23
 227 390 227 390 204.5 364 c 128,-1,24
 182 338 182 338 168 302.5 c 128,-1,25
 154 267 154 267 154 226 c 0,26,27
 154 172 154 172 180.5 138 c 128,-1,28
 207 104 207 104 251 104 c 0,29,30
 283 104 283 104 314.5 122 c 128,-1,31
 346 140 346 140 363 166 c 1,32,-1
 485 126 l 1,33,34
 446 66 446 66 379 28 c 128,-1,35
 312 -10 312 -10 228 -10 c 0,4,5
EndSplineSet
EndChar

StartChar: Ccircumflex
Encoding: 264 264 203
Width: 658
GlyphClass: 2
Flags: W
LayerCount: 2
Fore
SplineSet
331 815 m 1,0,-1
 454 916 l 1,1,-1
 551 916 l 1,2,-1
 631 815 l 1,3,-1
 554 783 l 1,4,-1
 487 846 l 1,5,-1
 393 783 l 1,6,-1
 331 815 l 1,0,-1
296 -6 m 0,7,8
 234 -6 234 -6 186 19.5 c 128,-1,9
 138 45 138 45 105 87 c 128,-1,10
 72 129 72 129 54.5 183.5 c 128,-1,11
 37 238 37 238 37 296 c 0,12,13
 37 345 37 345 51 395 c 128,-1,14
 65 445 65 445 91.5 491.5 c 128,-1,15
 118 538 118 538 155.5 578.5 c 128,-1,16
 193 619 193 619 239.5 649 c 128,-1,17
 286 679 286 679 340 696.5 c 128,-1,18
 394 714 394 714 454 714 c 0,19,20
 548 714 548 714 607.5 671 c 128,-1,21
 667 628 667 628 685 559 c 1,22,-1
 564 486 l 1,23,24
 558 516 558 516 544 536.5 c 128,-1,25
 530 557 530 557 510.5 569 c 128,-1,26
 491 581 491 581 468.5 586.5 c 128,-1,27
 446 592 446 592 424 592 c 0,28,29
 368 592 368 592 322 565 c 128,-1,30
 276 538 276 538 244 496 c 128,-1,31
 212 454 212 454 194.5 403 c 128,-1,32
 177 352 177 352 177 304 c 0,33,34
 177 266 177 266 187 232 c 128,-1,35
 197 198 197 198 216 172 c 128,-1,36
 235 146 235 146 262.5 131 c 128,-1,37
 290 116 290 116 326 116 c 0,38,39
 348 116 348 116 373.5 122 c 128,-1,40
 399 128 399 128 423.5 141 c 128,-1,41
 448 154 448 154 470.5 174.5 c 128,-1,42
 493 195 493 195 511 224 c 1,43,-1
 610 159 l 1,44,45
 586 119 586 119 549.5 88.5 c 128,-1,46
 513 58 513 58 470.5 37 c 128,-1,47
 428 16 428 16 382.5 5 c 128,-1,48
 337 -6 337 -6 296 -6 c 0,7,8
EndSplineSet
EndChar

StartChar: ccircumflex
Encoding: 265 265 204
Width: 542
GlyphClass: 2
Flags: W
LayerCount: 2
Fore
SplineSet
215 629 m 1,0,-1
 338 730 l 1,1,-1
 435 730 l 1,2,-1
 515 629 l 1,3,-1
 438 597 l 1,4,-1
 371 660 l 1,5,-1
 277 597 l 1,6,-1
 215 629 l 1,0,-1
228 -10 m 0,7,8
 176 -10 176 -10 136 7.5 c 128,-1,9
 96 25 96 25 69 55 c 128,-1,10
 42 85 42 85 28.5 125 c 128,-1,11
 15 165 15 165 15 210 c 0,12,13
 15 272 15 272 39.5 330.5 c 128,-1,14
 64 389 64 389 107.5 434 c 128,-1,15
 151 479 151 479 211.5 506 c 128,-1,16
 272 533 272 533 343 533 c 0,17,18
 426 533 426 533 475.5 496 c 128,-1,19
 525 459 525 459 541 399 c 1,20,-1
 403 359 l 1,21,22
 393 388 393 388 371 403.5 c 128,-1,23
 349 419 349 419 317 419 c 0,24,25
 286 419 286 419 256.5 404.5 c 128,-1,26
 227 390 227 390 204.5 364 c 128,-1,27
 182 338 182 338 168 302.5 c 128,-1,28
 154 267 154 267 154 226 c 0,29,30
 154 172 154 172 180.5 138 c 128,-1,31
 207 104 207 104 251 104 c 0,32,33
 283 104 283 104 314.5 122 c 128,-1,34
 346 140 346 140 363 166 c 1,35,-1
 485 126 l 1,36,37
 446 66 446 66 379 28 c 128,-1,38
 312 -10 312 -10 228 -10 c 0,7,8
EndSplineSet
EndChar

StartChar: Cdotaccent
Encoding: 266 266 205
Width: 658
GlyphClass: 2
Flags: W
LayerCount: 2
Fore
SplineSet
296 -6 m 0,0,1
 234 -6 234 -6 186 19.5 c 128,-1,2
 138 45 138 45 105 87 c 128,-1,3
 72 129 72 129 54.5 183.5 c 128,-1,4
 37 238 37 238 37 296 c 0,5,6
 37 345 37 345 51 395 c 128,-1,7
 65 445 65 445 91.5 491.5 c 128,-1,8
 118 538 118 538 155.5 578.5 c 128,-1,9
 193 619 193 619 239.5 649 c 128,-1,10
 286 679 286 679 340 696.5 c 128,-1,11
 394 714 394 714 454 714 c 0,12,13
 548 714 548 714 607.5 671 c 128,-1,14
 667 628 667 628 685 559 c 1,15,-1
 564 486 l 1,16,17
 558 516 558 516 544 536.5 c 128,-1,18
 530 557 530 557 510.5 569 c 128,-1,19
 491 581 491 581 468.5 586.5 c 128,-1,20
 446 592 446 592 424 592 c 0,21,22
 368 592 368 592 322 565 c 128,-1,23
 276 538 276 538 244 496 c 128,-1,24
 212 454 212 454 194.5 403 c 128,-1,25
 177 352 177 352 177 304 c 0,26,27
 177 266 177 266 187 232 c 128,-1,28
 197 198 197 198 216 172 c 128,-1,29
 235 146 235 146 262.5 131 c 128,-1,30
 290 116 290 116 326 116 c 0,31,32
 348 116 348 116 373.5 122 c 128,-1,33
 399 128 399 128 423.5 141 c 128,-1,34
 448 154 448 154 470.5 174.5 c 128,-1,35
 493 195 493 195 511 224 c 1,36,-1
 610 159 l 1,37,38
 586 119 586 119 549.5 88.5 c 128,-1,39
 513 58 513 58 470.5 37 c 128,-1,40
 428 16 428 16 382.5 5 c 128,-1,41
 337 -6 337 -6 296 -6 c 0,0,1
416 790 m 1,42,-1
 443 916 l 1,43,-1
 563 916 l 1,44,-1
 537 790 l 1,45,-1
 416 790 l 1,42,-1
EndSplineSet
EndChar

StartChar: cdotaccent
Encoding: 267 267 206
Width: 542
GlyphClass: 2
Flags: W
LayerCount: 2
Fore
SplineSet
228 -10 m 0,0,1
 176 -10 176 -10 136 7.5 c 128,-1,2
 96 25 96 25 69 55 c 128,-1,3
 42 85 42 85 28.5 125 c 128,-1,4
 15 165 15 165 15 210 c 0,5,6
 15 272 15 272 39.5 330.5 c 128,-1,7
 64 389 64 389 107.5 434 c 128,-1,8
 151 479 151 479 211.5 506 c 128,-1,9
 272 533 272 533 343 533 c 0,10,11
 426 533 426 533 475.5 496 c 128,-1,12
 525 459 525 459 541 399 c 1,13,-1
 403 359 l 1,14,15
 393 388 393 388 371 403.5 c 128,-1,16
 349 419 349 419 317 419 c 0,17,18
 286 419 286 419 256.5 404.5 c 128,-1,19
 227 390 227 390 204.5 364 c 128,-1,20
 182 338 182 338 168 302.5 c 128,-1,21
 154 267 154 267 154 226 c 0,22,23
 154 172 154 172 180.5 138 c 128,-1,24
 207 104 207 104 251 104 c 0,25,26
 283 104 283 104 314.5 122 c 128,-1,27
 346 140 346 140 363 166 c 1,28,-1
 485 126 l 1,29,30
 446 66 446 66 379 28 c 128,-1,31
 312 -10 312 -10 228 -10 c 0,0,1
297 604 m 1,32,-1
 324 730 l 1,33,-1
 444 730 l 1,34,-1
 418 604 l 1,35,-1
 297 604 l 1,32,-1
EndSplineSet
EndChar

StartChar: Ccaron
Encoding: 268 268 207
Width: 658
GlyphClass: 2
Flags: W
LayerCount: 2
Fore
SplineSet
341 884 m 1,0,-1
 418 916 l 1,1,-1
 485 853 l 1,2,-1
 579 916 l 1,3,-1
 642 884 l 1,4,-1
 518 783 l 1,5,-1
 421 783 l 1,6,-1
 341 884 l 1,0,-1
296 -6 m 0,7,8
 234 -6 234 -6 186 19.5 c 128,-1,9
 138 45 138 45 105 87 c 128,-1,10
 72 129 72 129 54.5 183.5 c 128,-1,11
 37 238 37 238 37 296 c 0,12,13
 37 345 37 345 51 395 c 128,-1,14
 65 445 65 445 91.5 491.5 c 128,-1,15
 118 538 118 538 155.5 578.5 c 128,-1,16
 193 619 193 619 239.5 649 c 128,-1,17
 286 679 286 679 340 696.5 c 128,-1,18
 394 714 394 714 454 714 c 0,19,20
 548 714 548 714 607.5 671 c 128,-1,21
 667 628 667 628 685 559 c 1,22,-1
 564 486 l 1,23,24
 558 516 558 516 544 536.5 c 128,-1,25
 530 557 530 557 510.5 569 c 128,-1,26
 491 581 491 581 468.5 586.5 c 128,-1,27
 446 592 446 592 424 592 c 0,28,29
 368 592 368 592 322 565 c 128,-1,30
 276 538 276 538 244 496 c 128,-1,31
 212 454 212 454 194.5 403 c 128,-1,32
 177 352 177 352 177 304 c 0,33,34
 177 266 177 266 187 232 c 128,-1,35
 197 198 197 198 216 172 c 128,-1,36
 235 146 235 146 262.5 131 c 128,-1,37
 290 116 290 116 326 116 c 0,38,39
 348 116 348 116 373.5 122 c 128,-1,40
 399 128 399 128 423.5 141 c 128,-1,41
 448 154 448 154 470.5 174.5 c 128,-1,42
 493 195 493 195 511 224 c 1,43,-1
 610 159 l 1,44,45
 586 119 586 119 549.5 88.5 c 128,-1,46
 513 58 513 58 470.5 37 c 128,-1,47
 428 16 428 16 382.5 5 c 128,-1,48
 337 -6 337 -6 296 -6 c 0,7,8
EndSplineSet
EndChar

